G04 EAGLE Gerber RS-274X export*
G75*
%MOMM*%
%FSLAX34Y34*%
%LPD*%
%INBottom Copper*%
%IPPOS*%
%AMOC8*
5,1,8,0,0,1.08239X$1,22.5*%
G01*
%ADD10R,1.054000X1.200000*%
%ADD11R,0.500000X0.650000*%
%ADD12P,1.677704X8X292.500000*%
%ADD13C,0.381000*%
%ADD14C,0.028500*%
%ADD15R,1.200000X1.054000*%
%ADD16C,1.879600*%
%ADD17C,1.778000*%
%ADD18R,1.600000X1.800000*%
%ADD19C,1.270000*%
%ADD20C,0.604000*%
%ADD21C,0.254000*%
%ADD22C,0.304800*%
%ADD23C,0.609600*%
%ADD24C,0.355600*%

G36*
X285318Y3817D02*
X285318Y3817D01*
X285394Y3815D01*
X285563Y3837D01*
X285734Y3851D01*
X285808Y3869D01*
X285883Y3879D01*
X286047Y3928D01*
X286213Y3969D01*
X286282Y3999D01*
X286356Y4021D01*
X286509Y4097D01*
X286666Y4164D01*
X286730Y4205D01*
X286799Y4238D01*
X286938Y4337D01*
X287082Y4429D01*
X287139Y4480D01*
X287201Y4524D01*
X287322Y4644D01*
X287450Y4758D01*
X287498Y4817D01*
X287552Y4871D01*
X287653Y5009D01*
X287760Y5142D01*
X287797Y5208D01*
X287842Y5269D01*
X287919Y5422D01*
X288004Y5570D01*
X288030Y5642D01*
X288065Y5710D01*
X288116Y5873D01*
X288175Y6033D01*
X288190Y6108D01*
X288213Y6180D01*
X288225Y6285D01*
X288270Y6517D01*
X288277Y6753D01*
X288289Y6858D01*
X288289Y371475D01*
X288283Y371551D01*
X288285Y371627D01*
X288263Y371796D01*
X288249Y371967D01*
X288231Y372041D01*
X288221Y372116D01*
X288172Y372280D01*
X288131Y372446D01*
X288101Y372515D01*
X288079Y372589D01*
X288003Y372742D01*
X287936Y372899D01*
X287895Y372963D01*
X287862Y373032D01*
X287763Y373171D01*
X287671Y373315D01*
X287620Y373372D01*
X287576Y373434D01*
X287456Y373555D01*
X287342Y373683D01*
X287283Y373731D01*
X287229Y373785D01*
X287091Y373886D01*
X286958Y373993D01*
X286892Y374030D01*
X286831Y374075D01*
X286678Y374152D01*
X286530Y374237D01*
X286458Y374263D01*
X286390Y374298D01*
X286227Y374349D01*
X286067Y374408D01*
X285992Y374423D01*
X285920Y374446D01*
X285815Y374458D01*
X285583Y374503D01*
X285347Y374510D01*
X285242Y374522D01*
X264287Y374522D01*
X264211Y374516D01*
X264135Y374518D01*
X263966Y374496D01*
X263795Y374482D01*
X263721Y374464D01*
X263646Y374454D01*
X263482Y374405D01*
X263316Y374364D01*
X263247Y374334D01*
X263173Y374312D01*
X263020Y374236D01*
X262863Y374169D01*
X262799Y374128D01*
X262730Y374095D01*
X262591Y373996D01*
X262447Y373904D01*
X262390Y373853D01*
X262328Y373809D01*
X262207Y373689D01*
X262079Y373575D01*
X262031Y373516D01*
X261977Y373462D01*
X261876Y373324D01*
X261769Y373191D01*
X261732Y373125D01*
X261687Y373064D01*
X261610Y372911D01*
X261525Y372763D01*
X261499Y372691D01*
X261464Y372623D01*
X261413Y372460D01*
X261354Y372300D01*
X261339Y372225D01*
X261316Y372153D01*
X261304Y372048D01*
X261259Y371816D01*
X261252Y371580D01*
X261240Y371475D01*
X261240Y369403D01*
X259654Y365576D01*
X256724Y362646D01*
X252897Y361060D01*
X248753Y361060D01*
X244926Y362646D01*
X241996Y365576D01*
X240410Y369403D01*
X240410Y371475D01*
X240404Y371551D01*
X240406Y371627D01*
X240384Y371796D01*
X240370Y371967D01*
X240352Y372041D01*
X240342Y372116D01*
X240293Y372280D01*
X240252Y372446D01*
X240222Y372515D01*
X240200Y372589D01*
X240124Y372742D01*
X240057Y372899D01*
X240016Y372963D01*
X239983Y373032D01*
X239884Y373171D01*
X239792Y373315D01*
X239741Y373372D01*
X239697Y373434D01*
X239577Y373555D01*
X239463Y373683D01*
X239404Y373731D01*
X239350Y373785D01*
X239212Y373886D01*
X239079Y373993D01*
X239013Y374030D01*
X238952Y374075D01*
X238799Y374152D01*
X238651Y374237D01*
X238579Y374263D01*
X238511Y374298D01*
X238348Y374349D01*
X238188Y374408D01*
X238113Y374423D01*
X238041Y374446D01*
X237936Y374458D01*
X237704Y374503D01*
X237468Y374510D01*
X237363Y374522D01*
X235899Y374522D01*
X235788Y374564D01*
X235594Y374641D01*
X235557Y374649D01*
X235521Y374662D01*
X235317Y374702D01*
X235112Y374748D01*
X235074Y374750D01*
X235037Y374757D01*
X234829Y374764D01*
X234620Y374775D01*
X234582Y374771D01*
X234544Y374772D01*
X234337Y374745D01*
X234129Y374723D01*
X234093Y374713D01*
X234055Y374708D01*
X233855Y374648D01*
X233653Y374592D01*
X233619Y374577D01*
X233582Y374566D01*
X233395Y374474D01*
X233205Y374387D01*
X233173Y374365D01*
X233139Y374349D01*
X232970Y374228D01*
X232796Y374111D01*
X232768Y374085D01*
X232737Y374063D01*
X232589Y373917D01*
X232436Y373773D01*
X232413Y373743D01*
X232386Y373716D01*
X232263Y373548D01*
X232136Y373382D01*
X232118Y373348D01*
X232096Y373318D01*
X232002Y373132D01*
X231903Y372947D01*
X231890Y372911D01*
X231873Y372877D01*
X231810Y372678D01*
X231743Y372481D01*
X231737Y372443D01*
X231725Y372407D01*
X231715Y372314D01*
X231660Y371994D01*
X231659Y371822D01*
X231649Y371729D01*
X231649Y326375D01*
X231658Y326261D01*
X231657Y326147D01*
X231678Y326016D01*
X231689Y325883D01*
X231716Y325773D01*
X231734Y325660D01*
X231775Y325533D01*
X231807Y325405D01*
X231852Y325300D01*
X231888Y325191D01*
X231950Y325073D01*
X232002Y324951D01*
X232063Y324855D01*
X232116Y324754D01*
X232175Y324680D01*
X232267Y324535D01*
X232483Y324293D01*
X232541Y324220D01*
X240710Y316052D01*
X241174Y314931D01*
X241174Y313273D01*
X241175Y313264D01*
X241174Y313254D01*
X241194Y313018D01*
X241214Y312782D01*
X241216Y312772D01*
X241217Y312763D01*
X241228Y312724D01*
X241332Y312303D01*
X241384Y312183D01*
X241406Y312107D01*
X241428Y312054D01*
X241428Y310246D01*
X240736Y308576D01*
X239457Y307297D01*
X237787Y306605D01*
X235979Y306605D01*
X234309Y307297D01*
X233030Y308576D01*
X232338Y310246D01*
X232338Y312054D01*
X232656Y312822D01*
X232723Y313029D01*
X232794Y313236D01*
X232799Y313264D01*
X232808Y313291D01*
X232840Y313507D01*
X232877Y313723D01*
X232877Y313751D01*
X232881Y313779D01*
X232878Y313997D01*
X232880Y314216D01*
X232875Y314244D01*
X232875Y314273D01*
X232837Y314487D01*
X232803Y314703D01*
X232794Y314730D01*
X232789Y314758D01*
X232717Y314964D01*
X232649Y315172D01*
X232636Y315197D01*
X232626Y315224D01*
X232522Y315415D01*
X232421Y315609D01*
X232406Y315628D01*
X232390Y315657D01*
X232088Y316047D01*
X232029Y316102D01*
X231996Y316143D01*
X226015Y322123D01*
X225551Y323244D01*
X225551Y450192D01*
X225534Y450410D01*
X225520Y450628D01*
X225514Y450656D01*
X225511Y450684D01*
X225459Y450896D01*
X225410Y451109D01*
X225399Y451135D01*
X225393Y451163D01*
X225306Y451364D01*
X225224Y451566D01*
X225209Y451590D01*
X225198Y451616D01*
X225081Y451801D01*
X224967Y451987D01*
X224948Y452009D01*
X224933Y452032D01*
X224788Y452195D01*
X224645Y452361D01*
X224623Y452379D01*
X224604Y452400D01*
X224435Y452537D01*
X224267Y452678D01*
X224246Y452689D01*
X224220Y452710D01*
X223792Y452954D01*
X223716Y452982D01*
X223670Y453008D01*
X222851Y453347D01*
X221572Y454626D01*
X220880Y456296D01*
X220880Y458104D01*
X221572Y459774D01*
X222851Y461053D01*
X224521Y461745D01*
X226329Y461745D01*
X227999Y461053D01*
X229278Y459774D01*
X229979Y458082D01*
X229978Y458001D01*
X229999Y457870D01*
X230010Y457737D01*
X230037Y457627D01*
X230055Y457514D01*
X230096Y457387D01*
X230128Y457259D01*
X230173Y457154D01*
X230209Y457045D01*
X230271Y456927D01*
X230323Y456805D01*
X230384Y456709D01*
X230437Y456608D01*
X230496Y456534D01*
X230588Y456389D01*
X230804Y456147D01*
X230862Y456074D01*
X231185Y455752D01*
X231649Y454631D01*
X231649Y415925D01*
X231655Y415849D01*
X231653Y415773D01*
X231675Y415604D01*
X231689Y415433D01*
X231707Y415359D01*
X231717Y415284D01*
X231766Y415120D01*
X231807Y414954D01*
X231837Y414885D01*
X231859Y414812D01*
X231935Y414658D01*
X232002Y414501D01*
X232043Y414437D01*
X232076Y414368D01*
X232175Y414229D01*
X232267Y414085D01*
X232318Y414028D01*
X232362Y413966D01*
X232482Y413845D01*
X232596Y413717D01*
X232655Y413669D01*
X232709Y413615D01*
X232847Y413514D01*
X232980Y413407D01*
X233046Y413370D01*
X233107Y413325D01*
X233260Y413248D01*
X233408Y413163D01*
X233480Y413137D01*
X233548Y413102D01*
X233711Y413051D01*
X233871Y412992D01*
X233946Y412977D01*
X234018Y412954D01*
X234123Y412942D01*
X234355Y412897D01*
X234591Y412890D01*
X234696Y412878D01*
X237811Y412878D01*
X237865Y412882D01*
X237918Y412880D01*
X238110Y412902D01*
X238303Y412918D01*
X238355Y412931D01*
X238408Y412937D01*
X238594Y412990D01*
X238782Y413036D01*
X238831Y413058D01*
X238882Y413072D01*
X239058Y413155D01*
X239235Y413231D01*
X239280Y413260D01*
X239329Y413282D01*
X239489Y413392D01*
X239651Y413496D01*
X239691Y413531D01*
X239735Y413562D01*
X239875Y413696D01*
X240019Y413825D01*
X240053Y413866D01*
X240091Y413903D01*
X240208Y414058D01*
X240329Y414209D01*
X240356Y414255D01*
X240388Y414298D01*
X240478Y414469D01*
X240573Y414637D01*
X240592Y414687D01*
X240617Y414735D01*
X240678Y414918D01*
X240745Y415100D01*
X240755Y415152D01*
X240772Y415203D01*
X240803Y415394D01*
X240840Y415584D01*
X240841Y415637D01*
X240850Y415690D01*
X240849Y415884D01*
X240855Y416077D01*
X240848Y416130D01*
X240848Y416183D01*
X240816Y416375D01*
X240791Y416566D01*
X240775Y416617D01*
X240766Y416670D01*
X240730Y416766D01*
X240648Y417039D01*
X240562Y417215D01*
X240527Y417309D01*
X240232Y417887D01*
X239796Y419228D01*
X250825Y419228D01*
X261854Y419228D01*
X261418Y417887D01*
X261123Y417309D01*
X261103Y417259D01*
X261077Y417213D01*
X261009Y417031D01*
X260936Y416852D01*
X260924Y416800D01*
X260905Y416750D01*
X260868Y416560D01*
X260824Y416372D01*
X260821Y416318D01*
X260810Y416266D01*
X260804Y416073D01*
X260792Y415879D01*
X260797Y415826D01*
X260795Y415773D01*
X260820Y415581D01*
X260839Y415388D01*
X260853Y415337D01*
X260859Y415284D01*
X260915Y415098D01*
X260965Y414911D01*
X260987Y414863D01*
X261002Y414812D01*
X261087Y414637D01*
X261166Y414461D01*
X261195Y414416D01*
X261219Y414368D01*
X261331Y414211D01*
X261437Y414049D01*
X261473Y414010D01*
X261504Y413966D01*
X261640Y413828D01*
X261771Y413686D01*
X261814Y413653D01*
X261851Y413615D01*
X262007Y413501D01*
X262160Y413382D01*
X262207Y413356D01*
X262250Y413325D01*
X262422Y413238D01*
X262592Y413144D01*
X262643Y413126D01*
X262690Y413102D01*
X262875Y413044D01*
X263057Y412980D01*
X263110Y412970D01*
X263161Y412954D01*
X263263Y412943D01*
X263543Y412892D01*
X263739Y412889D01*
X263839Y412878D01*
X285242Y412878D01*
X285318Y412884D01*
X285394Y412882D01*
X285563Y412904D01*
X285734Y412918D01*
X285808Y412936D01*
X285883Y412946D01*
X286047Y412995D01*
X286213Y413036D01*
X286282Y413066D01*
X286356Y413088D01*
X286509Y413164D01*
X286666Y413231D01*
X286730Y413272D01*
X286799Y413305D01*
X286938Y413404D01*
X287082Y413496D01*
X287139Y413547D01*
X287201Y413591D01*
X287322Y413711D01*
X287450Y413825D01*
X287498Y413884D01*
X287552Y413938D01*
X287653Y414076D01*
X287760Y414209D01*
X287797Y414275D01*
X287842Y414336D01*
X287919Y414489D01*
X288004Y414637D01*
X288030Y414709D01*
X288065Y414777D01*
X288116Y414940D01*
X288175Y415100D01*
X288190Y415175D01*
X288213Y415247D01*
X288225Y415352D01*
X288270Y415584D01*
X288277Y415820D01*
X288289Y415925D01*
X288289Y495300D01*
X288283Y495376D01*
X288285Y495452D01*
X288263Y495621D01*
X288249Y495792D01*
X288231Y495866D01*
X288221Y495941D01*
X288172Y496105D01*
X288131Y496271D01*
X288101Y496340D01*
X288079Y496414D01*
X288004Y496567D01*
X287936Y496724D01*
X287895Y496788D01*
X287862Y496857D01*
X287763Y496996D01*
X287671Y497140D01*
X287620Y497197D01*
X287576Y497259D01*
X287456Y497380D01*
X287342Y497508D01*
X287283Y497556D01*
X287229Y497610D01*
X287091Y497711D01*
X286958Y497818D01*
X286892Y497855D01*
X286831Y497900D01*
X286678Y497977D01*
X286530Y498062D01*
X286458Y498088D01*
X286390Y498123D01*
X286227Y498174D01*
X286067Y498233D01*
X285992Y498248D01*
X285920Y498271D01*
X285815Y498283D01*
X285583Y498328D01*
X285347Y498335D01*
X285242Y498347D01*
X196977Y498347D01*
X196901Y498341D01*
X196825Y498343D01*
X196656Y498321D01*
X196485Y498307D01*
X196411Y498289D01*
X196336Y498279D01*
X196172Y498230D01*
X196006Y498189D01*
X195937Y498159D01*
X195863Y498137D01*
X195710Y498061D01*
X195553Y497994D01*
X195489Y497953D01*
X195420Y497920D01*
X195281Y497821D01*
X195137Y497729D01*
X195080Y497678D01*
X195018Y497634D01*
X194897Y497514D01*
X194769Y497400D01*
X194721Y497341D01*
X194667Y497287D01*
X194566Y497149D01*
X194459Y497016D01*
X194422Y496950D01*
X194377Y496889D01*
X194300Y496736D01*
X194215Y496588D01*
X194189Y496516D01*
X194154Y496448D01*
X194103Y496285D01*
X194044Y496125D01*
X194029Y496050D01*
X194006Y495978D01*
X193994Y495873D01*
X193949Y495641D01*
X193942Y495405D01*
X193930Y495300D01*
X193930Y478933D01*
X193939Y478819D01*
X193938Y478705D01*
X193959Y478573D01*
X193970Y478441D01*
X193997Y478330D01*
X194015Y478217D01*
X194056Y478091D01*
X194088Y477962D01*
X194133Y477857D01*
X194169Y477749D01*
X194231Y477631D01*
X194283Y477509D01*
X194344Y477413D01*
X194397Y477311D01*
X194456Y477238D01*
X194548Y477093D01*
X194764Y476851D01*
X194822Y476778D01*
X199758Y471843D01*
X200280Y470582D01*
X200280Y461402D01*
X200281Y461392D01*
X200280Y461383D01*
X200300Y461147D01*
X200320Y460910D01*
X200322Y460901D01*
X200323Y460891D01*
X200334Y460853D01*
X200438Y460431D01*
X200490Y460311D01*
X200512Y460236D01*
X201395Y458104D01*
X201395Y456296D01*
X200703Y454626D01*
X199424Y453347D01*
X197754Y452655D01*
X196342Y452655D01*
X196266Y452649D01*
X196190Y452651D01*
X196021Y452629D01*
X195850Y452615D01*
X195776Y452597D01*
X195701Y452587D01*
X195537Y452538D01*
X195371Y452497D01*
X195302Y452467D01*
X195228Y452445D01*
X195075Y452369D01*
X194918Y452302D01*
X194854Y452261D01*
X194785Y452228D01*
X194646Y452129D01*
X194502Y452037D01*
X194445Y451986D01*
X194383Y451942D01*
X194262Y451822D01*
X194134Y451708D01*
X194086Y451649D01*
X194032Y451595D01*
X193931Y451457D01*
X193824Y451324D01*
X193787Y451258D01*
X193742Y451197D01*
X193665Y451044D01*
X193580Y450896D01*
X193554Y450824D01*
X193519Y450756D01*
X193468Y450593D01*
X193409Y450433D01*
X193394Y450358D01*
X193371Y450286D01*
X193359Y450181D01*
X193314Y449949D01*
X193307Y449713D01*
X193295Y449608D01*
X193295Y400311D01*
X193304Y400197D01*
X193303Y400083D01*
X193324Y399951D01*
X193335Y399819D01*
X193362Y399708D01*
X193380Y399595D01*
X193421Y399469D01*
X193453Y399340D01*
X193498Y399235D01*
X193534Y399127D01*
X193596Y399009D01*
X193648Y398887D01*
X193709Y398791D01*
X193762Y398689D01*
X193803Y398638D01*
X193803Y396225D01*
X184662Y387085D01*
X184588Y386998D01*
X184507Y386918D01*
X184429Y386810D01*
X184343Y386709D01*
X184284Y386611D01*
X184217Y386519D01*
X184157Y386400D01*
X184088Y386286D01*
X184046Y386180D01*
X183994Y386078D01*
X183954Y385952D01*
X183905Y385828D01*
X183880Y385717D01*
X183846Y385608D01*
X183836Y385514D01*
X183798Y385347D01*
X183780Y385022D01*
X183770Y384930D01*
X183770Y309695D01*
X183779Y309581D01*
X183778Y309467D01*
X183799Y309335D01*
X183810Y309203D01*
X183837Y309092D01*
X183855Y308979D01*
X183896Y308853D01*
X183928Y308724D01*
X183973Y308619D01*
X184009Y308511D01*
X184071Y308393D01*
X184123Y308271D01*
X184184Y308175D01*
X184237Y308073D01*
X184296Y308000D01*
X184388Y307855D01*
X184604Y307613D01*
X184662Y307540D01*
X184828Y307374D01*
X185568Y305588D01*
X185650Y305427D01*
X185725Y305263D01*
X185763Y305208D01*
X185793Y305149D01*
X185900Y305003D01*
X186001Y304854D01*
X186046Y304805D01*
X186086Y304752D01*
X186215Y304626D01*
X186339Y304494D01*
X186391Y304454D01*
X186439Y304407D01*
X186587Y304304D01*
X186730Y304194D01*
X186789Y304163D01*
X186843Y304124D01*
X187006Y304046D01*
X187165Y303961D01*
X187228Y303939D01*
X187288Y303910D01*
X187461Y303859D01*
X187632Y303801D01*
X187697Y303790D01*
X187761Y303771D01*
X187940Y303748D01*
X188118Y303718D01*
X188184Y303718D01*
X188250Y303710D01*
X188431Y303716D01*
X188611Y303715D01*
X188677Y303726D01*
X188743Y303728D01*
X188920Y303764D01*
X189099Y303792D01*
X189162Y303813D01*
X189227Y303826D01*
X189396Y303890D01*
X189567Y303946D01*
X189626Y303977D01*
X189688Y304000D01*
X189844Y304091D01*
X190005Y304174D01*
X190046Y304207D01*
X190116Y304247D01*
X190327Y304420D01*
X217355Y304420D01*
X217469Y304429D01*
X217583Y304428D01*
X217715Y304449D01*
X217847Y304460D01*
X217958Y304487D01*
X218071Y304505D01*
X218197Y304546D01*
X218326Y304578D01*
X218431Y304623D01*
X218539Y304659D01*
X218657Y304721D01*
X218779Y304773D01*
X218876Y304834D01*
X218977Y304887D01*
X219050Y304946D01*
X219195Y305038D01*
X219437Y305254D01*
X219510Y305312D01*
X219676Y305478D01*
X221346Y306170D01*
X223154Y306170D01*
X224824Y305478D01*
X226103Y304199D01*
X226795Y302529D01*
X226795Y300721D01*
X226103Y299051D01*
X224824Y297772D01*
X223154Y297080D01*
X221346Y297080D01*
X219676Y297772D01*
X219510Y297938D01*
X219423Y298012D01*
X219343Y298093D01*
X219236Y298171D01*
X219134Y298257D01*
X219036Y298316D01*
X218944Y298383D01*
X218825Y298443D01*
X218712Y298512D01*
X218606Y298554D01*
X218504Y298606D01*
X218377Y298646D01*
X218254Y298695D01*
X218142Y298720D01*
X218033Y298754D01*
X217940Y298764D01*
X217772Y298802D01*
X217448Y298820D01*
X217355Y298830D01*
X217304Y298830D01*
X217287Y298829D01*
X217279Y298829D01*
X217261Y298827D01*
X217228Y298829D01*
X217020Y298807D01*
X216812Y298790D01*
X216775Y298781D01*
X216737Y298777D01*
X216536Y298722D01*
X216333Y298672D01*
X216298Y298657D01*
X216261Y298646D01*
X216071Y298559D01*
X215880Y298477D01*
X215848Y298457D01*
X215813Y298441D01*
X215640Y298324D01*
X215464Y298212D01*
X215435Y298187D01*
X215404Y298165D01*
X215252Y298022D01*
X215096Y297883D01*
X215072Y297854D01*
X215044Y297828D01*
X214917Y297661D01*
X214786Y297499D01*
X214767Y297467D01*
X214744Y297436D01*
X214645Y297252D01*
X214542Y297071D01*
X214529Y297035D01*
X214511Y297001D01*
X214443Y296804D01*
X214370Y296608D01*
X214363Y296571D01*
X214351Y296535D01*
X214316Y296328D01*
X214276Y296124D01*
X214274Y296086D01*
X214268Y296048D01*
X214267Y295839D01*
X214260Y295631D01*
X214265Y295593D01*
X214265Y295555D01*
X214298Y295348D01*
X214325Y295142D01*
X214336Y295105D01*
X214342Y295068D01*
X214407Y294869D01*
X214467Y294670D01*
X214484Y294635D01*
X214496Y294599D01*
X214592Y294414D01*
X214684Y294226D01*
X214706Y294195D01*
X214724Y294161D01*
X214782Y294089D01*
X214970Y293824D01*
X215090Y293702D01*
X215149Y293628D01*
X218695Y290083D01*
X218695Y282682D01*
X218706Y282540D01*
X218708Y282397D01*
X218726Y282294D01*
X218735Y282190D01*
X218769Y282052D01*
X218794Y281912D01*
X218828Y281813D01*
X218853Y281712D01*
X218910Y281581D01*
X218957Y281446D01*
X219007Y281354D01*
X219048Y281258D01*
X219124Y281138D01*
X219193Y281013D01*
X219257Y280930D01*
X219313Y280842D01*
X219408Y280736D01*
X219495Y280623D01*
X219572Y280552D01*
X219642Y280474D01*
X219753Y280385D01*
X219857Y280288D01*
X219944Y280230D01*
X220026Y280164D01*
X220149Y280094D01*
X220268Y280015D01*
X220363Y279972D01*
X220454Y279920D01*
X220588Y279871D01*
X220718Y279812D01*
X220819Y279785D01*
X220917Y279749D01*
X221057Y279721D01*
X221194Y279684D01*
X221299Y279674D01*
X221401Y279654D01*
X221543Y279650D01*
X221685Y279635D01*
X221790Y279642D01*
X221894Y279639D01*
X222035Y279657D01*
X222178Y279666D01*
X222280Y279689D01*
X222383Y279703D01*
X222520Y279744D01*
X222659Y279776D01*
X222755Y279815D01*
X222855Y279846D01*
X222984Y279908D01*
X223116Y279962D01*
X223205Y280016D01*
X223299Y280062D01*
X223415Y280145D01*
X223536Y280219D01*
X223616Y280288D01*
X223701Y280348D01*
X223802Y280448D01*
X223910Y280541D01*
X223978Y280621D01*
X224052Y280695D01*
X224136Y280810D01*
X224227Y280919D01*
X224265Y280988D01*
X224342Y281093D01*
X224538Y281481D01*
X224557Y281516D01*
X224747Y281974D01*
X226026Y283253D01*
X227696Y283945D01*
X229504Y283945D01*
X231174Y283253D01*
X232453Y281974D01*
X233145Y280304D01*
X233145Y280070D01*
X233154Y279956D01*
X233153Y279842D01*
X233174Y279711D01*
X233185Y279578D01*
X233212Y279467D01*
X233230Y279355D01*
X233271Y279228D01*
X233303Y279099D01*
X233348Y278994D01*
X233384Y278886D01*
X233446Y278768D01*
X233498Y278646D01*
X233559Y278550D01*
X233612Y278448D01*
X233671Y278375D01*
X233763Y278230D01*
X233979Y277988D01*
X234037Y277915D01*
X235210Y276743D01*
X235347Y276626D01*
X235479Y276503D01*
X235535Y276466D01*
X235586Y276423D01*
X235740Y276330D01*
X235891Y276230D01*
X235951Y276203D01*
X236008Y276169D01*
X236176Y276101D01*
X236340Y276027D01*
X236404Y276010D01*
X236466Y275985D01*
X236643Y275946D01*
X236817Y275900D01*
X236883Y275893D01*
X236948Y275879D01*
X237128Y275869D01*
X237308Y275851D01*
X237374Y275855D01*
X237440Y275851D01*
X237620Y275870D01*
X237800Y275881D01*
X237865Y275896D01*
X237931Y275903D01*
X238105Y275951D01*
X238281Y275991D01*
X238343Y276016D01*
X238407Y276034D01*
X238570Y276109D01*
X238738Y276177D01*
X238795Y276212D01*
X238855Y276240D01*
X239005Y276340D01*
X239159Y276434D01*
X239209Y276478D01*
X239264Y276515D01*
X239396Y276638D01*
X239533Y276756D01*
X239576Y276807D01*
X239624Y276853D01*
X239734Y276996D01*
X239850Y277134D01*
X239875Y277180D01*
X239924Y277244D01*
X240157Y277679D01*
X240168Y277711D01*
X240180Y277731D01*
X240622Y278799D01*
X241901Y280078D01*
X243571Y280770D01*
X245379Y280770D01*
X247049Y280078D01*
X248328Y278799D01*
X249020Y277129D01*
X249020Y275321D01*
X248328Y273651D01*
X247527Y272850D01*
X247453Y272763D01*
X247372Y272683D01*
X247294Y272575D01*
X247208Y272474D01*
X247149Y272376D01*
X247082Y272284D01*
X247022Y272166D01*
X246953Y272052D01*
X246911Y271945D01*
X246859Y271844D01*
X246819Y271717D01*
X246770Y271593D01*
X246745Y271482D01*
X246711Y271373D01*
X246701Y271280D01*
X246663Y271112D01*
X246645Y270788D01*
X246635Y270695D01*
X246635Y252207D01*
X242993Y248566D01*
X242950Y248547D01*
X242918Y248527D01*
X242883Y248511D01*
X242710Y248394D01*
X242534Y248282D01*
X242505Y248257D01*
X242474Y248235D01*
X242322Y248092D01*
X242166Y247953D01*
X242142Y247924D01*
X242114Y247898D01*
X241987Y247732D01*
X241856Y247569D01*
X241837Y247536D01*
X241814Y247506D01*
X241715Y247322D01*
X241612Y247141D01*
X241599Y247105D01*
X241581Y247071D01*
X241513Y246874D01*
X241440Y246678D01*
X241433Y246641D01*
X241421Y246605D01*
X241386Y246398D01*
X241346Y246194D01*
X241344Y246156D01*
X241338Y246118D01*
X241337Y245909D01*
X241330Y245701D01*
X241335Y245663D01*
X241335Y245625D01*
X241368Y245418D01*
X241395Y245212D01*
X241406Y245175D01*
X241412Y245138D01*
X241477Y244939D01*
X241537Y244740D01*
X241554Y244705D01*
X241566Y244669D01*
X241662Y244484D01*
X241754Y244296D01*
X241776Y244265D01*
X241794Y244231D01*
X241852Y244159D01*
X242040Y243894D01*
X242160Y243772D01*
X242219Y243698D01*
X249429Y236489D01*
X249429Y144765D01*
X246899Y142236D01*
X246671Y142008D01*
X244142Y139478D01*
X241046Y139478D01*
X240970Y139472D01*
X240894Y139474D01*
X240725Y139452D01*
X240554Y139438D01*
X240480Y139420D01*
X240405Y139410D01*
X240241Y139361D01*
X240075Y139320D01*
X240006Y139290D01*
X239932Y139268D01*
X239779Y139192D01*
X239622Y139125D01*
X239558Y139084D01*
X239489Y139051D01*
X239350Y138952D01*
X239206Y138860D01*
X239149Y138809D01*
X239087Y138765D01*
X238966Y138645D01*
X238838Y138531D01*
X238790Y138472D01*
X238736Y138418D01*
X238635Y138280D01*
X238528Y138147D01*
X238491Y138081D01*
X238446Y138020D01*
X238369Y137867D01*
X238284Y137719D01*
X238258Y137647D01*
X238223Y137579D01*
X238172Y137416D01*
X238113Y137256D01*
X238098Y137181D01*
X238075Y137109D01*
X238063Y137004D01*
X238018Y136772D01*
X238011Y136536D01*
X237999Y136431D01*
X237999Y135094D01*
X237869Y134780D01*
X237818Y134622D01*
X237758Y134466D01*
X237742Y134387D01*
X237717Y134310D01*
X237692Y134146D01*
X237659Y133983D01*
X237656Y133902D01*
X237644Y133822D01*
X237646Y133656D01*
X237639Y133490D01*
X237649Y133410D01*
X237650Y133329D01*
X237679Y133165D01*
X237699Y133000D01*
X237722Y132923D01*
X237736Y132843D01*
X237791Y132686D01*
X237837Y132526D01*
X237866Y132470D01*
X237899Y132377D01*
X237927Y132325D01*
X226314Y132325D01*
X213742Y132325D01*
X213678Y132490D01*
X213595Y132708D01*
X213588Y132720D01*
X213583Y132734D01*
X213465Y132934D01*
X213349Y133135D01*
X213340Y133146D01*
X213333Y133159D01*
X213183Y133337D01*
X213036Y133517D01*
X213026Y133527D01*
X213017Y133537D01*
X212840Y133690D01*
X212666Y133843D01*
X212654Y133851D01*
X212644Y133860D01*
X212445Y133983D01*
X212249Y134106D01*
X212236Y134111D01*
X212224Y134119D01*
X212008Y134207D01*
X211794Y134298D01*
X211780Y134301D01*
X211767Y134306D01*
X211541Y134358D01*
X211315Y134413D01*
X211300Y134414D01*
X211287Y134417D01*
X211055Y134433D01*
X210823Y134450D01*
X210808Y134449D01*
X210794Y134450D01*
X210563Y134427D01*
X210331Y134407D01*
X210320Y134404D01*
X210303Y134402D01*
X209826Y134276D01*
X209736Y134236D01*
X209676Y134218D01*
X208310Y133652D01*
X208042Y133652D01*
X207928Y133643D01*
X207814Y133644D01*
X207682Y133623D01*
X207550Y133612D01*
X207439Y133585D01*
X207326Y133567D01*
X207200Y133526D01*
X207071Y133494D01*
X206966Y133449D01*
X206858Y133413D01*
X206740Y133351D01*
X206618Y133299D01*
X206522Y133238D01*
X206420Y133185D01*
X206347Y133126D01*
X206202Y133034D01*
X205960Y132818D01*
X205887Y132760D01*
X204207Y131080D01*
X204158Y131022D01*
X204102Y130969D01*
X203998Y130834D01*
X203888Y130704D01*
X203848Y130638D01*
X203802Y130578D01*
X203721Y130428D01*
X203633Y130281D01*
X203605Y130210D01*
X203569Y130143D01*
X203513Y129982D01*
X203450Y129823D01*
X203433Y129749D01*
X203409Y129677D01*
X203380Y129508D01*
X203343Y129341D01*
X203339Y129265D01*
X203326Y129190D01*
X203325Y129019D01*
X203315Y128849D01*
X203324Y128773D01*
X203323Y128697D01*
X203350Y128528D01*
X203368Y128358D01*
X203388Y128285D01*
X203400Y128210D01*
X203453Y128047D01*
X203498Y127883D01*
X203530Y127813D01*
X203554Y127741D01*
X203633Y127589D01*
X203704Y127434D01*
X203747Y127371D01*
X203782Y127303D01*
X203847Y127221D01*
X203979Y127025D01*
X204141Y126853D01*
X204207Y126770D01*
X206005Y124972D01*
X208535Y122443D01*
X208535Y82042D01*
X208541Y81966D01*
X208539Y81890D01*
X208561Y81721D01*
X208575Y81550D01*
X208593Y81476D01*
X208603Y81401D01*
X208652Y81237D01*
X208693Y81071D01*
X208723Y81002D01*
X208745Y80928D01*
X208821Y80775D01*
X208888Y80618D01*
X208929Y80554D01*
X208962Y80485D01*
X209061Y80346D01*
X209153Y80202D01*
X209204Y80145D01*
X209248Y80083D01*
X209368Y79962D01*
X209482Y79834D01*
X209541Y79786D01*
X209595Y79732D01*
X209733Y79631D01*
X209866Y79524D01*
X209932Y79487D01*
X209993Y79442D01*
X210146Y79365D01*
X210294Y79280D01*
X210366Y79254D01*
X210434Y79219D01*
X210597Y79168D01*
X210757Y79109D01*
X210832Y79094D01*
X210904Y79071D01*
X211009Y79059D01*
X211241Y79014D01*
X211477Y79007D01*
X211582Y78995D01*
X211766Y78995D01*
X211946Y79009D01*
X212126Y79016D01*
X212191Y79029D01*
X212258Y79035D01*
X212433Y79078D01*
X212610Y79114D01*
X212672Y79137D01*
X212736Y79153D01*
X212902Y79225D01*
X213071Y79288D01*
X213129Y79322D01*
X213190Y79348D01*
X213342Y79445D01*
X213498Y79535D01*
X213550Y79577D01*
X213606Y79613D01*
X213740Y79733D01*
X213880Y79848D01*
X213924Y79897D01*
X213974Y79942D01*
X214087Y80082D01*
X214206Y80217D01*
X214242Y80274D01*
X214284Y80326D01*
X214373Y80482D01*
X214469Y80635D01*
X214495Y80696D01*
X214528Y80754D01*
X214590Y80924D01*
X214660Y81090D01*
X214676Y81154D01*
X214699Y81217D01*
X214734Y81394D01*
X214776Y81569D01*
X214781Y81636D01*
X214794Y81701D01*
X214799Y81881D01*
X214813Y82061D01*
X214807Y82128D01*
X214809Y82194D01*
X214786Y82373D01*
X214770Y82553D01*
X214755Y82603D01*
X214745Y82683D01*
X214629Y83066D01*
X214629Y84456D01*
X215210Y85859D01*
X215246Y85968D01*
X215290Y86073D01*
X215321Y86202D01*
X215362Y86329D01*
X215379Y86442D01*
X215406Y86553D01*
X215415Y86685D01*
X215435Y86817D01*
X215434Y86931D01*
X215442Y87045D01*
X215431Y87177D01*
X215429Y87310D01*
X215409Y87423D01*
X215399Y87536D01*
X215373Y87627D01*
X215343Y87796D01*
X215236Y88102D01*
X215210Y88192D01*
X214629Y89595D01*
X214629Y90959D01*
X215209Y92359D01*
X215244Y92468D01*
X215289Y92573D01*
X215320Y92702D01*
X215361Y92829D01*
X215378Y92942D01*
X215404Y93053D01*
X215414Y93185D01*
X215434Y93317D01*
X215433Y93431D01*
X215441Y93545D01*
X215430Y93677D01*
X215428Y93810D01*
X215408Y93923D01*
X215398Y94036D01*
X215372Y94127D01*
X215342Y94296D01*
X215235Y94602D01*
X215209Y94692D01*
X214629Y96092D01*
X214629Y97456D01*
X215209Y98856D01*
X215244Y98965D01*
X215289Y99070D01*
X215320Y99199D01*
X215361Y99326D01*
X215378Y99439D01*
X215404Y99550D01*
X215414Y99682D01*
X215434Y99814D01*
X215433Y99928D01*
X215441Y100042D01*
X215430Y100174D01*
X215428Y100307D01*
X215408Y100420D01*
X215398Y100533D01*
X215372Y100624D01*
X215342Y100793D01*
X215235Y101099D01*
X215209Y101189D01*
X214629Y102589D01*
X214629Y103953D01*
X215210Y105356D01*
X215246Y105465D01*
X215290Y105570D01*
X215321Y105699D01*
X215362Y105826D01*
X215379Y105939D01*
X215406Y106050D01*
X215415Y106182D01*
X215435Y106314D01*
X215434Y106428D01*
X215442Y106542D01*
X215431Y106674D01*
X215429Y106807D01*
X215409Y106920D01*
X215399Y107033D01*
X215373Y107124D01*
X215343Y107293D01*
X215236Y107599D01*
X215210Y107689D01*
X214629Y109092D01*
X214629Y110456D01*
X215210Y111859D01*
X215245Y111968D01*
X215290Y112073D01*
X215321Y112202D01*
X215362Y112328D01*
X215379Y112441D01*
X215405Y112552D01*
X215415Y112685D01*
X215435Y112816D01*
X215434Y112931D01*
X215442Y113044D01*
X215431Y113177D01*
X215429Y113310D01*
X215409Y113422D01*
X215399Y113536D01*
X215373Y113626D01*
X215343Y113795D01*
X215236Y114102D01*
X215210Y114191D01*
X214629Y115594D01*
X214629Y116958D01*
X215210Y118360D01*
X215245Y118469D01*
X215289Y118574D01*
X215320Y118703D01*
X215361Y118829D01*
X215378Y118942D01*
X215405Y119053D01*
X215415Y119186D01*
X215435Y119317D01*
X215433Y119432D01*
X215442Y119545D01*
X215430Y119678D01*
X215429Y119811D01*
X215409Y119923D01*
X215399Y120037D01*
X215373Y120127D01*
X215343Y120296D01*
X215236Y120603D01*
X215210Y120692D01*
X214629Y122094D01*
X214629Y123458D01*
X214760Y123775D01*
X214811Y123933D01*
X214871Y124089D01*
X214887Y124168D01*
X214912Y124244D01*
X214936Y124409D01*
X214970Y124572D01*
X214973Y124653D01*
X214985Y124732D01*
X214983Y124898D01*
X214990Y125065D01*
X214980Y125145D01*
X214979Y125226D01*
X214950Y125389D01*
X214930Y125554D01*
X214907Y125632D01*
X214893Y125711D01*
X214838Y125868D01*
X214792Y126028D01*
X214763Y126084D01*
X214730Y126177D01*
X214701Y126231D01*
X226314Y126231D01*
X237925Y126231D01*
X237909Y126203D01*
X237853Y126047D01*
X237788Y125893D01*
X237769Y125815D01*
X237742Y125739D01*
X237712Y125575D01*
X237672Y125414D01*
X237666Y125333D01*
X237652Y125254D01*
X237648Y125087D01*
X237636Y124922D01*
X237643Y124841D01*
X237641Y124761D01*
X237664Y124596D01*
X237679Y124430D01*
X237696Y124370D01*
X237710Y124272D01*
X237857Y123801D01*
X237864Y123786D01*
X237868Y123775D01*
X237999Y123458D01*
X237999Y122094D01*
X237418Y120692D01*
X237383Y120583D01*
X237339Y120478D01*
X237308Y120349D01*
X237267Y120223D01*
X237250Y120110D01*
X237223Y119999D01*
X237213Y119866D01*
X237193Y119735D01*
X237195Y119621D01*
X237186Y119507D01*
X237198Y119374D01*
X237199Y119241D01*
X237219Y119129D01*
X237229Y119015D01*
X237255Y118925D01*
X237285Y118756D01*
X237392Y118449D01*
X237418Y118360D01*
X237999Y116958D01*
X237999Y115594D01*
X237418Y114191D01*
X237383Y114082D01*
X237338Y113977D01*
X237307Y113848D01*
X237266Y113722D01*
X237249Y113609D01*
X237223Y113498D01*
X237213Y113365D01*
X237193Y113234D01*
X237194Y113120D01*
X237186Y113006D01*
X237197Y112873D01*
X237199Y112740D01*
X237219Y112628D01*
X237229Y112514D01*
X237255Y112424D01*
X237285Y112255D01*
X237392Y111948D01*
X237418Y111859D01*
X237999Y110456D01*
X237999Y109092D01*
X237418Y107689D01*
X237382Y107580D01*
X237338Y107475D01*
X237307Y107346D01*
X237266Y107219D01*
X237249Y107106D01*
X237222Y106995D01*
X237213Y106863D01*
X237193Y106731D01*
X237194Y106617D01*
X237186Y106503D01*
X237197Y106371D01*
X237199Y106238D01*
X237219Y106125D01*
X237229Y106012D01*
X237255Y105922D01*
X237285Y105752D01*
X237392Y105446D01*
X237418Y105356D01*
X237999Y103953D01*
X237999Y102589D01*
X237419Y101189D01*
X237384Y101080D01*
X237339Y100975D01*
X237308Y100846D01*
X237267Y100719D01*
X237250Y100606D01*
X237224Y100495D01*
X237214Y100363D01*
X237194Y100231D01*
X237195Y100117D01*
X237187Y100003D01*
X237198Y99871D01*
X237200Y99738D01*
X237220Y99625D01*
X237230Y99512D01*
X237256Y99422D01*
X237286Y99252D01*
X237393Y98946D01*
X237419Y98856D01*
X237999Y97456D01*
X237999Y96092D01*
X237419Y94692D01*
X237384Y94583D01*
X237339Y94478D01*
X237308Y94349D01*
X237267Y94222D01*
X237250Y94109D01*
X237224Y93998D01*
X237214Y93866D01*
X237194Y93734D01*
X237195Y93620D01*
X237187Y93506D01*
X237198Y93374D01*
X237200Y93241D01*
X237220Y93128D01*
X237230Y93015D01*
X237256Y92925D01*
X237286Y92755D01*
X237393Y92449D01*
X237419Y92359D01*
X237999Y90959D01*
X237999Y89595D01*
X237418Y88192D01*
X237382Y88083D01*
X237338Y87978D01*
X237307Y87849D01*
X237266Y87722D01*
X237249Y87609D01*
X237222Y87498D01*
X237213Y87366D01*
X237193Y87234D01*
X237194Y87120D01*
X237186Y87006D01*
X237197Y86874D01*
X237199Y86741D01*
X237219Y86628D01*
X237229Y86515D01*
X237255Y86425D01*
X237285Y86255D01*
X237392Y85949D01*
X237418Y85859D01*
X237999Y84456D01*
X237999Y83092D01*
X237477Y81831D01*
X236512Y80866D01*
X235251Y80344D01*
X234442Y80344D01*
X234366Y80338D01*
X234290Y80340D01*
X234121Y80318D01*
X233950Y80304D01*
X233876Y80286D01*
X233801Y80276D01*
X233637Y80227D01*
X233471Y80186D01*
X233402Y80156D01*
X233328Y80134D01*
X233175Y80058D01*
X233018Y79991D01*
X232954Y79950D01*
X232885Y79917D01*
X232746Y79818D01*
X232602Y79726D01*
X232545Y79675D01*
X232483Y79631D01*
X232362Y79511D01*
X232234Y79397D01*
X232186Y79338D01*
X232132Y79284D01*
X232031Y79146D01*
X231924Y79013D01*
X231887Y78947D01*
X231842Y78886D01*
X231765Y78733D01*
X231680Y78585D01*
X231654Y78513D01*
X231619Y78445D01*
X231568Y78282D01*
X231509Y78122D01*
X231494Y78047D01*
X231471Y77975D01*
X231459Y77870D01*
X231414Y77638D01*
X231407Y77402D01*
X231395Y77297D01*
X231395Y72182D01*
X231401Y72106D01*
X231399Y72030D01*
X231421Y71861D01*
X231435Y71690D01*
X231453Y71616D01*
X231463Y71541D01*
X231512Y71377D01*
X231553Y71211D01*
X231583Y71142D01*
X231605Y71068D01*
X231681Y70915D01*
X231748Y70758D01*
X231789Y70694D01*
X231822Y70625D01*
X231921Y70486D01*
X232013Y70342D01*
X232064Y70285D01*
X232108Y70223D01*
X232228Y70102D01*
X232342Y69974D01*
X232401Y69926D01*
X232455Y69872D01*
X232593Y69771D01*
X232726Y69664D01*
X232792Y69627D01*
X232853Y69582D01*
X233006Y69505D01*
X233154Y69420D01*
X233226Y69394D01*
X233294Y69359D01*
X233457Y69308D01*
X233617Y69249D01*
X233692Y69234D01*
X233764Y69211D01*
X233869Y69199D01*
X234101Y69154D01*
X234337Y69147D01*
X234442Y69135D01*
X235232Y69135D01*
X236125Y68242D01*
X236125Y56438D01*
X235232Y55545D01*
X221968Y55545D01*
X221075Y56438D01*
X221075Y68244D01*
X221090Y68258D01*
X221221Y68420D01*
X221356Y68579D01*
X221376Y68612D01*
X221400Y68642D01*
X221503Y68823D01*
X221611Y69002D01*
X221625Y69037D01*
X221644Y69070D01*
X221717Y69266D01*
X221794Y69460D01*
X221802Y69497D01*
X221816Y69533D01*
X221856Y69737D01*
X221901Y69941D01*
X221903Y69980D01*
X221910Y70017D01*
X221917Y70225D01*
X221929Y70434D01*
X221925Y70472D01*
X221926Y70510D01*
X221899Y70716D01*
X221876Y70925D01*
X221866Y70961D01*
X221861Y70999D01*
X221801Y71199D01*
X221746Y71400D01*
X221730Y71435D01*
X221719Y71472D01*
X221627Y71659D01*
X221540Y71849D01*
X221519Y71880D01*
X221502Y71915D01*
X221382Y72084D01*
X221265Y72258D01*
X221238Y72286D01*
X221216Y72317D01*
X221070Y72465D01*
X220927Y72618D01*
X220897Y72641D01*
X220870Y72668D01*
X220701Y72791D01*
X220535Y72918D01*
X220502Y72936D01*
X220471Y72958D01*
X220285Y73052D01*
X220101Y73151D01*
X220065Y73163D01*
X220031Y73181D01*
X219831Y73243D01*
X219634Y73311D01*
X219597Y73317D01*
X219560Y73329D01*
X219467Y73339D01*
X219148Y73394D01*
X218976Y73395D01*
X218882Y73405D01*
X216015Y73405D01*
X215835Y73391D01*
X215655Y73384D01*
X215590Y73371D01*
X215524Y73365D01*
X215348Y73322D01*
X215171Y73286D01*
X215109Y73263D01*
X215045Y73247D01*
X214879Y73175D01*
X214710Y73112D01*
X214652Y73078D01*
X214591Y73052D01*
X214439Y72955D01*
X214283Y72865D01*
X214231Y72823D01*
X214175Y72787D01*
X214041Y72667D01*
X213901Y72552D01*
X213857Y72503D01*
X213807Y72458D01*
X213694Y72318D01*
X213575Y72183D01*
X213539Y72126D01*
X213497Y72074D01*
X213408Y71918D01*
X213312Y71765D01*
X213286Y71703D01*
X213253Y71646D01*
X213191Y71476D01*
X213121Y71310D01*
X213105Y71246D01*
X213082Y71183D01*
X213047Y71006D01*
X213005Y70831D01*
X213000Y70764D01*
X212987Y70699D01*
X212982Y70519D01*
X212968Y70339D01*
X212974Y70272D01*
X212972Y70206D01*
X212995Y70027D01*
X213011Y69847D01*
X213026Y69797D01*
X213036Y69717D01*
X213179Y69245D01*
X213194Y69214D01*
X213200Y69192D01*
X214713Y65540D01*
X214713Y62134D01*
X213409Y58988D01*
X211001Y56580D01*
X207855Y55276D01*
X204449Y55276D01*
X201303Y56580D01*
X198895Y58988D01*
X197591Y62134D01*
X197591Y65540D01*
X198895Y68686D01*
X201303Y71094D01*
X202838Y71731D01*
X202999Y71813D01*
X203163Y71888D01*
X203218Y71925D01*
X203278Y71956D01*
X203423Y72063D01*
X203572Y72164D01*
X203621Y72209D01*
X203674Y72249D01*
X203800Y72378D01*
X203932Y72501D01*
X203972Y72554D01*
X204019Y72602D01*
X204122Y72750D01*
X204232Y72893D01*
X204264Y72951D01*
X204302Y73006D01*
X204380Y73169D01*
X204465Y73328D01*
X204487Y73390D01*
X204516Y73450D01*
X204567Y73624D01*
X204625Y73794D01*
X204637Y73860D01*
X204655Y73924D01*
X204678Y74102D01*
X204708Y74281D01*
X204708Y74347D01*
X204717Y74413D01*
X204710Y74593D01*
X204711Y74774D01*
X204701Y74840D01*
X204698Y74906D01*
X204663Y75083D01*
X204634Y75261D01*
X204614Y75325D01*
X204600Y75390D01*
X204537Y75558D01*
X204480Y75730D01*
X204449Y75789D01*
X204426Y75851D01*
X204336Y76007D01*
X204252Y76167D01*
X204219Y76209D01*
X204179Y76278D01*
X203867Y76660D01*
X203842Y76682D01*
X203827Y76701D01*
X202945Y77582D01*
X202945Y117983D01*
X202939Y118059D01*
X202941Y118135D01*
X202919Y118304D01*
X202905Y118475D01*
X202887Y118549D01*
X202877Y118624D01*
X202828Y118788D01*
X202787Y118954D01*
X202757Y119023D01*
X202735Y119097D01*
X202659Y119250D01*
X202592Y119407D01*
X202551Y119471D01*
X202518Y119540D01*
X202419Y119679D01*
X202327Y119823D01*
X202276Y119880D01*
X202232Y119942D01*
X202112Y120063D01*
X201998Y120191D01*
X201939Y120239D01*
X201885Y120293D01*
X201747Y120394D01*
X201614Y120501D01*
X201548Y120538D01*
X201487Y120583D01*
X201334Y120660D01*
X201186Y120745D01*
X201114Y120771D01*
X201046Y120806D01*
X200883Y120857D01*
X200723Y120916D01*
X200648Y120931D01*
X200576Y120954D01*
X200471Y120966D01*
X200239Y121011D01*
X200003Y121018D01*
X199898Y121030D01*
X187840Y121030D01*
X187726Y121021D01*
X187612Y121022D01*
X187480Y121001D01*
X187348Y120990D01*
X187237Y120963D01*
X187124Y120945D01*
X186998Y120904D01*
X186869Y120872D01*
X186764Y120827D01*
X186656Y120791D01*
X186538Y120729D01*
X186416Y120677D01*
X186320Y120616D01*
X186218Y120563D01*
X186145Y120504D01*
X186000Y120412D01*
X185758Y120196D01*
X185685Y120138D01*
X176407Y110860D01*
X176333Y110773D01*
X176252Y110693D01*
X176174Y110585D01*
X176088Y110484D01*
X176029Y110386D01*
X175962Y110294D01*
X175902Y110175D01*
X175833Y110061D01*
X175791Y109955D01*
X175739Y109853D01*
X175699Y109727D01*
X175650Y109603D01*
X175625Y109492D01*
X175591Y109383D01*
X175581Y109289D01*
X175543Y109122D01*
X175525Y108797D01*
X175515Y108705D01*
X175515Y97267D01*
X174756Y96509D01*
X173609Y95362D01*
X173560Y95304D01*
X173504Y95252D01*
X173400Y95116D01*
X173290Y94986D01*
X173250Y94921D01*
X173204Y94860D01*
X173123Y94710D01*
X173035Y94563D01*
X173007Y94493D01*
X172971Y94425D01*
X172915Y94264D01*
X172852Y94105D01*
X172836Y94031D01*
X172811Y93959D01*
X172782Y93790D01*
X172745Y93624D01*
X172741Y93548D01*
X172728Y93472D01*
X172727Y93302D01*
X172718Y93131D01*
X172726Y93055D01*
X172725Y92979D01*
X172752Y92810D01*
X172770Y92641D01*
X172790Y92567D01*
X172802Y92492D01*
X172855Y92329D01*
X172900Y92165D01*
X172932Y92096D01*
X172956Y92023D01*
X173035Y91871D01*
X173106Y91716D01*
X173149Y91653D01*
X173184Y91586D01*
X173250Y91503D01*
X173382Y91307D01*
X173544Y91135D01*
X173609Y91052D01*
X183842Y80820D01*
X184306Y79699D01*
X184306Y78672D01*
X184315Y78558D01*
X184314Y78444D01*
X184335Y78312D01*
X184346Y78180D01*
X184373Y78069D01*
X184391Y77956D01*
X184432Y77830D01*
X184464Y77701D01*
X184509Y77596D01*
X184545Y77488D01*
X184607Y77370D01*
X184659Y77248D01*
X184720Y77152D01*
X184773Y77050D01*
X184832Y76977D01*
X184924Y76832D01*
X185096Y76640D01*
X185802Y74935D01*
X185802Y73127D01*
X185110Y71457D01*
X183831Y70178D01*
X182147Y69481D01*
X182141Y69480D01*
X182065Y69482D01*
X181896Y69460D01*
X181725Y69446D01*
X181651Y69428D01*
X181576Y69418D01*
X181412Y69369D01*
X181246Y69328D01*
X181177Y69298D01*
X181103Y69276D01*
X180950Y69200D01*
X180793Y69133D01*
X180729Y69092D01*
X180660Y69059D01*
X180521Y68960D01*
X180377Y68868D01*
X180320Y68817D01*
X180258Y68773D01*
X180137Y68653D01*
X180009Y68539D01*
X179961Y68480D01*
X179907Y68426D01*
X179806Y68288D01*
X179699Y68155D01*
X179662Y68089D01*
X179617Y68028D01*
X179540Y67875D01*
X179455Y67727D01*
X179429Y67655D01*
X179394Y67587D01*
X179343Y67424D01*
X179284Y67264D01*
X179269Y67189D01*
X179246Y67117D01*
X179234Y67012D01*
X179189Y66780D01*
X179182Y66544D01*
X179170Y66439D01*
X179170Y65771D01*
X178478Y64101D01*
X177199Y62822D01*
X175529Y62130D01*
X173651Y62130D01*
X173498Y62180D01*
X173423Y62191D01*
X173349Y62211D01*
X173179Y62228D01*
X173010Y62253D01*
X172934Y62252D01*
X172858Y62260D01*
X172687Y62249D01*
X172517Y62247D01*
X172442Y62234D01*
X172365Y62229D01*
X172199Y62191D01*
X172031Y62161D01*
X171959Y62136D01*
X171884Y62119D01*
X171726Y62055D01*
X171565Y61998D01*
X171498Y61962D01*
X171428Y61933D01*
X171282Y61844D01*
X171132Y61762D01*
X171072Y61716D01*
X171007Y61676D01*
X170877Y61565D01*
X170742Y61460D01*
X170690Y61404D01*
X170633Y61354D01*
X170523Y61223D01*
X170407Y61098D01*
X170365Y61035D01*
X170316Y60976D01*
X170265Y60884D01*
X170134Y60687D01*
X170037Y60471D01*
X169986Y60379D01*
X169409Y58988D01*
X167001Y56580D01*
X163855Y55276D01*
X160449Y55276D01*
X157303Y56580D01*
X157269Y56614D01*
X157240Y56638D01*
X157214Y56667D01*
X157052Y56798D01*
X156893Y56933D01*
X156860Y56953D01*
X156830Y56977D01*
X156649Y57080D01*
X156470Y57188D01*
X156435Y57202D01*
X156402Y57221D01*
X156206Y57293D01*
X156012Y57371D01*
X155975Y57379D01*
X155939Y57392D01*
X155734Y57432D01*
X155531Y57478D01*
X155492Y57480D01*
X155455Y57487D01*
X155247Y57493D01*
X155038Y57505D01*
X155000Y57501D01*
X154962Y57502D01*
X154755Y57475D01*
X154547Y57453D01*
X154511Y57443D01*
X154473Y57438D01*
X154273Y57378D01*
X154072Y57322D01*
X154037Y57306D01*
X154000Y57295D01*
X153813Y57204D01*
X153623Y57117D01*
X153592Y57095D01*
X153557Y57079D01*
X153388Y56958D01*
X153214Y56841D01*
X153186Y56815D01*
X153155Y56793D01*
X153007Y56647D01*
X152854Y56503D01*
X152831Y56473D01*
X152804Y56446D01*
X152682Y56278D01*
X152554Y56112D01*
X152536Y56078D01*
X152514Y56048D01*
X152420Y55861D01*
X152321Y55677D01*
X152309Y55641D01*
X152291Y55607D01*
X152229Y55408D01*
X152161Y55211D01*
X152155Y55173D01*
X152143Y55137D01*
X152133Y55044D01*
X152078Y54724D01*
X152077Y54552D01*
X152067Y54459D01*
X152067Y52105D01*
X151520Y51558D01*
X151470Y51500D01*
X151415Y51447D01*
X151311Y51312D01*
X151200Y51182D01*
X151161Y51116D01*
X151114Y51056D01*
X151034Y50906D01*
X150945Y50759D01*
X150917Y50688D01*
X150881Y50621D01*
X150826Y50460D01*
X150762Y50301D01*
X150746Y50227D01*
X150721Y50155D01*
X150693Y49986D01*
X150656Y49819D01*
X150651Y49743D01*
X150639Y49668D01*
X150638Y49497D01*
X150628Y49327D01*
X150636Y49251D01*
X150636Y49175D01*
X150662Y49006D01*
X150680Y48836D01*
X150700Y48763D01*
X150712Y48688D01*
X150766Y48525D01*
X150811Y48361D01*
X150843Y48291D01*
X150866Y48219D01*
X150945Y48068D01*
X151017Y47912D01*
X151059Y47849D01*
X151094Y47781D01*
X151160Y47699D01*
X151292Y47503D01*
X151454Y47331D01*
X151520Y47248D01*
X152067Y46701D01*
X152067Y45085D01*
X152073Y45009D01*
X152071Y44933D01*
X152093Y44764D01*
X152107Y44593D01*
X152125Y44519D01*
X152135Y44444D01*
X152184Y44280D01*
X152225Y44114D01*
X152255Y44045D01*
X152277Y43971D01*
X152353Y43818D01*
X152420Y43661D01*
X152461Y43597D01*
X152494Y43528D01*
X152593Y43389D01*
X152685Y43245D01*
X152736Y43188D01*
X152780Y43126D01*
X152900Y43005D01*
X153014Y42877D01*
X153073Y42829D01*
X153127Y42775D01*
X153265Y42674D01*
X153398Y42567D01*
X153464Y42530D01*
X153525Y42485D01*
X153678Y42408D01*
X153826Y42323D01*
X153898Y42297D01*
X153966Y42262D01*
X154129Y42211D01*
X154289Y42152D01*
X154364Y42137D01*
X154436Y42114D01*
X154541Y42102D01*
X154773Y42057D01*
X155009Y42050D01*
X155114Y42038D01*
X162768Y42038D01*
X162844Y42044D01*
X162920Y42042D01*
X163089Y42064D01*
X163260Y42078D01*
X163334Y42096D01*
X163409Y42106D01*
X163573Y42155D01*
X163739Y42196D01*
X163808Y42226D01*
X163882Y42248D01*
X164035Y42324D01*
X164192Y42391D01*
X164256Y42432D01*
X164325Y42465D01*
X164464Y42564D01*
X164608Y42656D01*
X164665Y42707D01*
X164727Y42751D01*
X164848Y42871D01*
X164976Y42985D01*
X165024Y43044D01*
X165078Y43098D01*
X165179Y43236D01*
X165286Y43369D01*
X165323Y43435D01*
X165368Y43496D01*
X165445Y43649D01*
X165530Y43797D01*
X165556Y43869D01*
X165591Y43937D01*
X165642Y44100D01*
X165701Y44260D01*
X165716Y44335D01*
X165739Y44407D01*
X165751Y44512D01*
X165796Y44744D01*
X165803Y44980D01*
X165815Y45085D01*
X165815Y45367D01*
X166708Y46260D01*
X178512Y46260D01*
X179405Y45367D01*
X179405Y32103D01*
X178512Y31210D01*
X166708Y31210D01*
X165815Y32103D01*
X165815Y32385D01*
X165809Y32461D01*
X165811Y32537D01*
X165789Y32706D01*
X165775Y32877D01*
X165757Y32951D01*
X165747Y33026D01*
X165698Y33190D01*
X165657Y33356D01*
X165627Y33425D01*
X165605Y33499D01*
X165529Y33652D01*
X165462Y33809D01*
X165421Y33873D01*
X165388Y33942D01*
X165289Y34081D01*
X165197Y34225D01*
X165146Y34282D01*
X165102Y34344D01*
X164982Y34465D01*
X164868Y34593D01*
X164809Y34641D01*
X164755Y34695D01*
X164617Y34796D01*
X164484Y34903D01*
X164418Y34940D01*
X164357Y34985D01*
X164204Y35062D01*
X164056Y35147D01*
X163984Y35173D01*
X163916Y35208D01*
X163753Y35259D01*
X163593Y35318D01*
X163518Y35333D01*
X163446Y35356D01*
X163341Y35368D01*
X163109Y35413D01*
X162873Y35420D01*
X162768Y35432D01*
X152656Y35432D01*
X152543Y35423D01*
X152428Y35424D01*
X152297Y35403D01*
X152165Y35392D01*
X152054Y35365D01*
X151941Y35347D01*
X151815Y35306D01*
X151686Y35274D01*
X151581Y35229D01*
X151472Y35193D01*
X151354Y35131D01*
X151347Y35128D01*
X139994Y35128D01*
X139184Y35938D01*
X139097Y36012D01*
X139017Y36093D01*
X138910Y36171D01*
X138808Y36257D01*
X138711Y36316D01*
X138618Y36383D01*
X138500Y36443D01*
X138386Y36512D01*
X138280Y36554D01*
X138178Y36606D01*
X138051Y36646D01*
X137928Y36695D01*
X137817Y36720D01*
X137707Y36754D01*
X137614Y36764D01*
X137446Y36802D01*
X137122Y36820D01*
X137030Y36830D01*
X132312Y36830D01*
X130632Y37526D01*
X119948Y48210D01*
X119252Y49890D01*
X119252Y153349D01*
X119311Y153508D01*
X119324Y153573D01*
X119344Y153636D01*
X119371Y153815D01*
X119406Y153992D01*
X119408Y154058D01*
X119418Y154124D01*
X119416Y154305D01*
X119421Y154485D01*
X119413Y154551D01*
X119412Y154617D01*
X119381Y154795D01*
X119357Y154974D01*
X119338Y155038D01*
X119326Y155103D01*
X119267Y155274D01*
X119214Y155447D01*
X119185Y155506D01*
X119163Y155569D01*
X119077Y155728D01*
X118998Y155890D01*
X118959Y155944D01*
X118927Y156002D01*
X118816Y156145D01*
X118712Y156292D01*
X118665Y156339D01*
X118625Y156392D01*
X118492Y156515D01*
X118365Y156643D01*
X118312Y156682D01*
X118263Y156727D01*
X118112Y156827D01*
X117967Y156933D01*
X117907Y156963D01*
X117852Y157000D01*
X117687Y157074D01*
X117526Y157156D01*
X117463Y157176D01*
X117402Y157203D01*
X117228Y157250D01*
X117056Y157304D01*
X117003Y157310D01*
X116926Y157331D01*
X116616Y157362D01*
X114901Y158072D01*
X113622Y159351D01*
X112930Y161021D01*
X112930Y162829D01*
X113622Y164499D01*
X113788Y164665D01*
X113862Y164752D01*
X113943Y164832D01*
X114021Y164940D01*
X114107Y165041D01*
X114166Y165139D01*
X114233Y165231D01*
X114293Y165349D01*
X114362Y165463D01*
X114404Y165570D01*
X114456Y165671D01*
X114496Y165798D01*
X114545Y165922D01*
X114570Y166033D01*
X114604Y166142D01*
X114614Y166235D01*
X114652Y166403D01*
X114670Y166727D01*
X114680Y166820D01*
X114680Y454580D01*
X120984Y460884D01*
X141344Y460884D01*
X141458Y460893D01*
X141572Y460892D01*
X141704Y460913D01*
X141836Y460924D01*
X141947Y460951D01*
X142060Y460969D01*
X142186Y461010D01*
X142315Y461042D01*
X142420Y461087D01*
X142528Y461123D01*
X142646Y461184D01*
X142768Y461237D01*
X142864Y461298D01*
X142966Y461351D01*
X143039Y461410D01*
X143184Y461502D01*
X143426Y461718D01*
X143499Y461776D01*
X146671Y464948D01*
X146696Y464977D01*
X146724Y465003D01*
X146855Y465165D01*
X146990Y465324D01*
X147010Y465357D01*
X147034Y465387D01*
X147137Y465568D01*
X147245Y465747D01*
X147259Y465782D01*
X147278Y465815D01*
X147351Y466011D01*
X147428Y466205D01*
X147436Y466242D01*
X147450Y466278D01*
X147490Y466483D01*
X147535Y466687D01*
X147537Y466725D01*
X147544Y466762D01*
X147551Y466970D01*
X147563Y467179D01*
X147558Y467217D01*
X147560Y467255D01*
X147532Y467462D01*
X147510Y467670D01*
X147500Y467706D01*
X147495Y467744D01*
X147435Y467944D01*
X147380Y468145D01*
X147364Y468180D01*
X147353Y468217D01*
X147261Y468404D01*
X147174Y468594D01*
X147153Y468625D01*
X147136Y468660D01*
X147015Y468830D01*
X146899Y469003D01*
X146872Y469031D01*
X146850Y469062D01*
X146704Y469211D01*
X146561Y469363D01*
X146531Y469386D01*
X146504Y469413D01*
X146335Y469536D01*
X146169Y469663D01*
X146136Y469681D01*
X146105Y469703D01*
X145919Y469797D01*
X145735Y469896D01*
X145698Y469909D01*
X145664Y469926D01*
X145466Y469988D01*
X145268Y470056D01*
X145230Y470062D01*
X145194Y470074D01*
X145102Y470084D01*
X144782Y470139D01*
X144610Y470140D01*
X144516Y470150D01*
X139033Y470150D01*
X133600Y475583D01*
X133600Y483267D01*
X139033Y488700D01*
X146717Y488700D01*
X147578Y487838D01*
X147607Y487813D01*
X147633Y487785D01*
X147795Y487654D01*
X147954Y487519D01*
X147987Y487499D01*
X148017Y487475D01*
X148198Y487372D01*
X148377Y487264D01*
X148412Y487250D01*
X148445Y487231D01*
X148641Y487158D01*
X148835Y487081D01*
X148872Y487073D01*
X148908Y487059D01*
X149112Y487019D01*
X149316Y486974D01*
X149355Y486972D01*
X149392Y486965D01*
X149600Y486958D01*
X149809Y486947D01*
X149847Y486951D01*
X149885Y486949D01*
X150092Y486977D01*
X150300Y486999D01*
X150336Y487009D01*
X150374Y487014D01*
X150575Y487074D01*
X150775Y487129D01*
X150810Y487145D01*
X150847Y487156D01*
X151034Y487248D01*
X151224Y487335D01*
X151255Y487356D01*
X151290Y487373D01*
X151460Y487494D01*
X151633Y487611D01*
X151661Y487637D01*
X151692Y487659D01*
X151840Y487805D01*
X151993Y487948D01*
X152016Y487979D01*
X152043Y488005D01*
X152166Y488174D01*
X152293Y488340D01*
X152311Y488373D01*
X152333Y488404D01*
X152427Y488591D01*
X152526Y488774D01*
X152538Y488811D01*
X152556Y488845D01*
X152619Y489044D01*
X152686Y489241D01*
X152692Y489279D01*
X152704Y489315D01*
X152714Y489408D01*
X152769Y489728D01*
X152770Y489900D01*
X152780Y489993D01*
X152780Y494257D01*
X152777Y494295D01*
X152779Y494333D01*
X152757Y494540D01*
X152740Y494749D01*
X152731Y494786D01*
X152727Y494824D01*
X152672Y495025D01*
X152622Y495228D01*
X152607Y495263D01*
X152596Y495300D01*
X152509Y495490D01*
X152427Y495681D01*
X152407Y495713D01*
X152391Y495748D01*
X152274Y495921D01*
X152162Y496097D01*
X152137Y496125D01*
X152115Y496157D01*
X151972Y496309D01*
X151833Y496465D01*
X151804Y496489D01*
X151777Y496517D01*
X151612Y496644D01*
X151449Y496775D01*
X151416Y496794D01*
X151386Y496817D01*
X151202Y496916D01*
X151021Y497019D01*
X150985Y497032D01*
X150951Y497050D01*
X150754Y497118D01*
X150558Y497191D01*
X150521Y497198D01*
X150485Y497210D01*
X150278Y497245D01*
X150074Y497285D01*
X150036Y497286D01*
X149998Y497293D01*
X149789Y497294D01*
X149581Y497301D01*
X149543Y497296D01*
X149505Y497296D01*
X149298Y497263D01*
X149092Y497236D01*
X149055Y497225D01*
X149018Y497219D01*
X148819Y497154D01*
X148620Y497094D01*
X148585Y497077D01*
X148549Y497065D01*
X148364Y496968D01*
X148176Y496877D01*
X148145Y496855D01*
X148111Y496837D01*
X148039Y496779D01*
X147774Y496591D01*
X147652Y496470D01*
X147578Y496412D01*
X146717Y495550D01*
X139033Y495550D01*
X137129Y497455D01*
X137042Y497529D01*
X136962Y497610D01*
X136854Y497688D01*
X136753Y497774D01*
X136655Y497833D01*
X136563Y497900D01*
X136444Y497960D01*
X136330Y498029D01*
X136224Y498071D01*
X136122Y498123D01*
X135996Y498163D01*
X135872Y498212D01*
X135761Y498237D01*
X135652Y498271D01*
X135558Y498281D01*
X135391Y498319D01*
X135066Y498337D01*
X134974Y498347D01*
X96134Y498347D01*
X96080Y498343D01*
X96027Y498345D01*
X95835Y498323D01*
X95642Y498307D01*
X95590Y498295D01*
X95537Y498288D01*
X95351Y498235D01*
X95163Y498189D01*
X95114Y498168D01*
X95063Y498153D01*
X94888Y498071D01*
X94710Y497994D01*
X94665Y497965D01*
X94616Y497943D01*
X94457Y497833D01*
X94294Y497729D01*
X94254Y497694D01*
X94210Y497663D01*
X94070Y497529D01*
X93926Y497400D01*
X93892Y497359D01*
X93854Y497322D01*
X93737Y497167D01*
X93616Y497016D01*
X93590Y496970D01*
X93557Y496927D01*
X93468Y496756D01*
X93372Y496588D01*
X93353Y496538D01*
X93329Y496490D01*
X93268Y496307D01*
X93200Y496125D01*
X93190Y496073D01*
X93173Y496022D01*
X93143Y495831D01*
X93106Y495641D01*
X93104Y495588D01*
X93095Y495535D01*
X93096Y495341D01*
X93090Y495148D01*
X93097Y495095D01*
X93097Y495042D01*
X93129Y494850D01*
X93155Y494659D01*
X93170Y494608D01*
X93179Y494555D01*
X93215Y494459D01*
X93297Y494187D01*
X93383Y494010D01*
X93419Y493917D01*
X93614Y493533D01*
X94113Y491997D01*
X82550Y491997D01*
X70987Y491997D01*
X71486Y493533D01*
X71681Y493917D01*
X71702Y493966D01*
X71728Y494012D01*
X71795Y494194D01*
X71869Y494373D01*
X71881Y494425D01*
X71900Y494475D01*
X71937Y494665D01*
X71981Y494853D01*
X71984Y494907D01*
X71994Y494959D01*
X72000Y495152D01*
X72013Y495346D01*
X72008Y495399D01*
X72010Y495452D01*
X71985Y495644D01*
X71966Y495837D01*
X71952Y495888D01*
X71945Y495941D01*
X71889Y496127D01*
X71840Y496314D01*
X71818Y496362D01*
X71803Y496414D01*
X71718Y496587D01*
X71639Y496764D01*
X71609Y496809D01*
X71586Y496857D01*
X71474Y497014D01*
X71368Y497176D01*
X71331Y497216D01*
X71300Y497259D01*
X71165Y497396D01*
X71033Y497539D01*
X70991Y497572D01*
X70954Y497610D01*
X70797Y497724D01*
X70645Y497843D01*
X70598Y497869D01*
X70555Y497900D01*
X70382Y497988D01*
X70213Y498081D01*
X70162Y498099D01*
X70115Y498123D01*
X69930Y498181D01*
X69747Y498245D01*
X69695Y498255D01*
X69644Y498271D01*
X69542Y498282D01*
X69262Y498333D01*
X69066Y498336D01*
X68966Y498347D01*
X61781Y498347D01*
X61697Y498340D01*
X61613Y498343D01*
X61451Y498321D01*
X61289Y498307D01*
X61207Y498287D01*
X61124Y498276D01*
X60969Y498228D01*
X60810Y498189D01*
X60733Y498155D01*
X60653Y498131D01*
X60507Y498058D01*
X60357Y497994D01*
X60286Y497949D01*
X60211Y497912D01*
X60078Y497817D01*
X59941Y497729D01*
X59878Y497673D01*
X59810Y497624D01*
X59694Y497509D01*
X59573Y497400D01*
X59520Y497335D01*
X59461Y497276D01*
X59365Y497143D01*
X59263Y497016D01*
X59221Y496944D01*
X59172Y496876D01*
X59099Y496730D01*
X59019Y496588D01*
X58990Y496509D01*
X58952Y496434D01*
X58924Y496334D01*
X58847Y496125D01*
X58799Y495878D01*
X58791Y495850D01*
X58218Y494087D01*
X57401Y492484D01*
X56344Y491028D01*
X55072Y489756D01*
X53616Y488699D01*
X52013Y487882D01*
X50672Y487446D01*
X50672Y498475D01*
X50672Y509504D01*
X52013Y509068D01*
X53616Y508251D01*
X55072Y507194D01*
X56344Y505922D01*
X57401Y504466D01*
X57610Y504057D01*
X57622Y504037D01*
X57631Y504016D01*
X57751Y503828D01*
X57869Y503637D01*
X57884Y503620D01*
X57896Y503600D01*
X58045Y503434D01*
X58192Y503264D01*
X58209Y503250D01*
X58225Y503232D01*
X58398Y503092D01*
X58571Y502948D01*
X58591Y502937D01*
X58609Y502923D01*
X58802Y502812D01*
X58996Y502698D01*
X59017Y502690D01*
X59037Y502679D01*
X59247Y502601D01*
X59456Y502520D01*
X59478Y502515D01*
X59500Y502507D01*
X59719Y502464D01*
X59939Y502418D01*
X59962Y502417D01*
X59984Y502412D01*
X60208Y502405D01*
X60432Y502395D01*
X60454Y502398D01*
X60477Y502397D01*
X60699Y502426D01*
X60922Y502452D01*
X60943Y502458D01*
X60966Y502461D01*
X61181Y502526D01*
X61396Y502587D01*
X61417Y502597D01*
X61439Y502604D01*
X61640Y502702D01*
X61842Y502798D01*
X61861Y502811D01*
X61882Y502821D01*
X62064Y502950D01*
X62249Y503077D01*
X62265Y503093D01*
X62284Y503106D01*
X62443Y503264D01*
X62605Y503419D01*
X62619Y503437D01*
X62635Y503453D01*
X62767Y503634D01*
X62901Y503813D01*
X62912Y503833D01*
X62925Y503852D01*
X63026Y504051D01*
X63130Y504250D01*
X63137Y504272D01*
X63148Y504292D01*
X63215Y504506D01*
X63285Y504718D01*
X63289Y504741D01*
X63296Y504763D01*
X63304Y504835D01*
X63363Y505205D01*
X63363Y505355D01*
X63372Y505440D01*
X63372Y536575D01*
X63366Y536651D01*
X63368Y536727D01*
X63346Y536896D01*
X63332Y537067D01*
X63314Y537141D01*
X63304Y537216D01*
X63255Y537380D01*
X63214Y537546D01*
X63184Y537615D01*
X63162Y537689D01*
X63086Y537842D01*
X63019Y537999D01*
X62978Y538063D01*
X62945Y538132D01*
X62846Y538271D01*
X62754Y538415D01*
X62703Y538472D01*
X62659Y538534D01*
X62539Y538655D01*
X62425Y538783D01*
X62366Y538831D01*
X62312Y538885D01*
X62174Y538986D01*
X62041Y539093D01*
X61975Y539130D01*
X61914Y539175D01*
X61761Y539252D01*
X61613Y539337D01*
X61541Y539363D01*
X61473Y539398D01*
X61310Y539449D01*
X61150Y539508D01*
X61075Y539523D01*
X61003Y539546D01*
X60898Y539558D01*
X60666Y539603D01*
X60430Y539610D01*
X60325Y539622D01*
X48922Y539622D01*
X48809Y539613D01*
X48694Y539614D01*
X48563Y539593D01*
X48431Y539582D01*
X48320Y539555D01*
X48207Y539537D01*
X48081Y539496D01*
X47952Y539464D01*
X47847Y539419D01*
X47738Y539383D01*
X47620Y539321D01*
X47498Y539269D01*
X47402Y539208D01*
X47301Y539155D01*
X47227Y539096D01*
X47082Y539004D01*
X46840Y538788D01*
X46768Y538730D01*
X43261Y535223D01*
X35792Y532129D01*
X27708Y532129D01*
X20239Y535223D01*
X16732Y538730D01*
X16645Y538804D01*
X16565Y538885D01*
X16458Y538963D01*
X16356Y539049D01*
X16259Y539108D01*
X16166Y539175D01*
X16048Y539235D01*
X15934Y539304D01*
X15828Y539346D01*
X15726Y539398D01*
X15599Y539438D01*
X15476Y539487D01*
X15364Y539512D01*
X15255Y539546D01*
X15162Y539556D01*
X14994Y539594D01*
X14670Y539612D01*
X14578Y539622D01*
X6858Y539622D01*
X6782Y539616D01*
X6706Y539618D01*
X6537Y539596D01*
X6366Y539582D01*
X6292Y539564D01*
X6217Y539554D01*
X6053Y539505D01*
X5887Y539464D01*
X5818Y539434D01*
X5744Y539412D01*
X5591Y539336D01*
X5434Y539269D01*
X5370Y539228D01*
X5301Y539195D01*
X5162Y539096D01*
X5018Y539004D01*
X4961Y538953D01*
X4899Y538909D01*
X4778Y538789D01*
X4650Y538675D01*
X4602Y538616D01*
X4548Y538562D01*
X4447Y538424D01*
X4340Y538291D01*
X4303Y538225D01*
X4258Y538164D01*
X4181Y538011D01*
X4096Y537863D01*
X4070Y537791D01*
X4035Y537723D01*
X3984Y537560D01*
X3925Y537400D01*
X3910Y537325D01*
X3887Y537253D01*
X3875Y537148D01*
X3830Y536916D01*
X3823Y536680D01*
X3811Y536575D01*
X3811Y9017D01*
X3820Y8903D01*
X3819Y8789D01*
X3840Y8658D01*
X3851Y8525D01*
X3878Y8415D01*
X3896Y8302D01*
X3937Y8175D01*
X3969Y8046D01*
X4014Y7942D01*
X4050Y7833D01*
X4112Y7715D01*
X4164Y7593D01*
X4225Y7497D01*
X4278Y7395D01*
X4337Y7322D01*
X4429Y7177D01*
X4645Y6935D01*
X4703Y6862D01*
X6862Y4703D01*
X6949Y4629D01*
X7030Y4548D01*
X7137Y4470D01*
X7238Y4384D01*
X7336Y4325D01*
X7428Y4258D01*
X7547Y4198D01*
X7661Y4129D01*
X7767Y4087D01*
X7869Y4035D01*
X7996Y3995D01*
X8119Y3946D01*
X8230Y3921D01*
X8339Y3887D01*
X8433Y3877D01*
X8601Y3839D01*
X8925Y3821D01*
X9017Y3811D01*
X285242Y3811D01*
X285318Y3817D01*
G37*
G36*
X171132Y145990D02*
X171132Y145990D01*
X171170Y145990D01*
X171376Y146022D01*
X171583Y146050D01*
X171620Y146061D01*
X171657Y146067D01*
X171855Y146132D01*
X172055Y146192D01*
X172090Y146209D01*
X172126Y146221D01*
X172311Y146317D01*
X172499Y146409D01*
X172530Y146431D01*
X172564Y146449D01*
X172636Y146507D01*
X172901Y146695D01*
X173023Y146815D01*
X173097Y146874D01*
X173713Y147490D01*
X173787Y147577D01*
X173868Y147657D01*
X173946Y147765D01*
X174032Y147866D01*
X174091Y147964D01*
X174158Y148056D01*
X174218Y148175D01*
X174287Y148289D01*
X174329Y148395D01*
X174381Y148497D01*
X174421Y148623D01*
X174470Y148747D01*
X174495Y148858D01*
X174529Y148967D01*
X174539Y149061D01*
X174577Y149228D01*
X174595Y149552D01*
X174605Y149645D01*
X174605Y168883D01*
X178713Y172990D01*
X178787Y173077D01*
X178868Y173157D01*
X178946Y173265D01*
X179032Y173366D01*
X179091Y173464D01*
X179158Y173556D01*
X179218Y173675D01*
X179287Y173789D01*
X179329Y173895D01*
X179381Y173997D01*
X179421Y174123D01*
X179470Y174247D01*
X179495Y174358D01*
X179529Y174467D01*
X179539Y174561D01*
X179577Y174728D01*
X179595Y175053D01*
X179605Y175145D01*
X179605Y182305D01*
X179596Y182419D01*
X179597Y182533D01*
X179576Y182665D01*
X179565Y182797D01*
X179538Y182908D01*
X179520Y183021D01*
X179479Y183147D01*
X179447Y183276D01*
X179402Y183381D01*
X179366Y183489D01*
X179304Y183607D01*
X179252Y183729D01*
X179191Y183825D01*
X179138Y183927D01*
X179079Y184000D01*
X178987Y184145D01*
X178771Y184387D01*
X178713Y184460D01*
X158495Y204677D01*
X158495Y242857D01*
X158489Y242933D01*
X158491Y243009D01*
X158469Y243178D01*
X158455Y243349D01*
X158437Y243423D01*
X158427Y243498D01*
X158378Y243662D01*
X158337Y243828D01*
X158307Y243897D01*
X158285Y243971D01*
X158209Y244124D01*
X158142Y244281D01*
X158101Y244345D01*
X158068Y244414D01*
X157969Y244553D01*
X157877Y244697D01*
X157826Y244754D01*
X157782Y244816D01*
X157662Y244937D01*
X157548Y245065D01*
X157489Y245113D01*
X157435Y245167D01*
X157297Y245268D01*
X157164Y245375D01*
X157098Y245412D01*
X157037Y245457D01*
X156884Y245534D01*
X156736Y245619D01*
X156664Y245645D01*
X156596Y245680D01*
X156527Y245701D01*
X156527Y251695D01*
X156527Y265195D01*
X156527Y271108D01*
X156673Y271144D01*
X156733Y271170D01*
X156795Y271188D01*
X156960Y271267D01*
X157127Y271339D01*
X157181Y271374D01*
X157240Y271402D01*
X157389Y271506D01*
X157543Y271604D01*
X157591Y271647D01*
X157644Y271684D01*
X157775Y271811D01*
X157911Y271933D01*
X157951Y271983D01*
X157998Y272029D01*
X158106Y272175D01*
X158221Y272316D01*
X158253Y272373D01*
X158291Y272425D01*
X158375Y272587D01*
X158465Y272745D01*
X158487Y272806D01*
X158517Y272864D01*
X158573Y273037D01*
X158636Y273208D01*
X158649Y273272D01*
X158669Y273333D01*
X158681Y273438D01*
X158731Y273692D01*
X158738Y273908D01*
X158750Y274011D01*
X158861Y289182D01*
X158860Y289203D01*
X158861Y289224D01*
X158841Y289449D01*
X158825Y289674D01*
X158820Y289694D01*
X158818Y289715D01*
X158799Y289781D01*
X158710Y290154D01*
X158653Y290289D01*
X158629Y290370D01*
X157761Y292466D01*
X157761Y294274D01*
X158453Y295944D01*
X159732Y297223D01*
X161402Y297915D01*
X163210Y297915D01*
X164880Y297223D01*
X166159Y295944D01*
X166851Y294274D01*
X166851Y292466D01*
X166159Y290796D01*
X165333Y289970D01*
X165267Y289892D01*
X165193Y289820D01*
X165107Y289704D01*
X165014Y289594D01*
X164961Y289506D01*
X164899Y289423D01*
X164834Y289295D01*
X164759Y289172D01*
X164721Y289076D01*
X164674Y288984D01*
X164630Y288847D01*
X164576Y288714D01*
X164554Y288613D01*
X164522Y288515D01*
X164510Y288417D01*
X164469Y288232D01*
X164453Y287938D01*
X164441Y287838D01*
X164426Y285867D01*
X164430Y285818D01*
X164427Y285768D01*
X164448Y285572D01*
X164463Y285375D01*
X164474Y285327D01*
X164480Y285278D01*
X164532Y285087D01*
X164578Y284895D01*
X164597Y284850D01*
X164610Y284802D01*
X164693Y284622D01*
X164769Y284440D01*
X164795Y284399D01*
X164816Y284354D01*
X164926Y284190D01*
X165031Y284022D01*
X165064Y283985D01*
X165091Y283944D01*
X165226Y283801D01*
X165357Y283652D01*
X165395Y283621D01*
X165429Y283585D01*
X165586Y283465D01*
X165739Y283339D01*
X165781Y283315D01*
X165821Y283285D01*
X165995Y283191D01*
X166166Y283092D01*
X166212Y283075D01*
X166255Y283051D01*
X166442Y282987D01*
X166627Y282917D01*
X166675Y282907D01*
X166722Y282891D01*
X166917Y282858D01*
X167110Y282819D01*
X167160Y282817D01*
X167208Y282809D01*
X167406Y282808D01*
X167603Y282800D01*
X167652Y282806D01*
X167702Y282806D01*
X167897Y282836D01*
X168093Y282861D01*
X168140Y282875D01*
X168189Y282882D01*
X168377Y282944D01*
X168566Y283000D01*
X168611Y283021D01*
X168658Y283037D01*
X168833Y283128D01*
X169011Y283213D01*
X169051Y283242D01*
X169095Y283264D01*
X169174Y283327D01*
X169415Y283496D01*
X169551Y283628D01*
X169628Y283690D01*
X181176Y295237D01*
X181292Y295374D01*
X181415Y295507D01*
X181452Y295562D01*
X181495Y295613D01*
X181588Y295768D01*
X181688Y295918D01*
X181716Y295979D01*
X181750Y296036D01*
X181817Y296203D01*
X181891Y296368D01*
X181908Y296432D01*
X181933Y296494D01*
X181972Y296669D01*
X182019Y296844D01*
X182025Y296911D01*
X182040Y296975D01*
X182050Y297156D01*
X182068Y297335D01*
X182064Y297401D01*
X182067Y297468D01*
X182048Y297648D01*
X182037Y297828D01*
X182022Y297892D01*
X182015Y297958D01*
X181967Y298132D01*
X181927Y298308D01*
X181902Y298370D01*
X181885Y298434D01*
X181809Y298599D01*
X181741Y298765D01*
X181707Y298822D01*
X181679Y298883D01*
X181578Y299032D01*
X181484Y299186D01*
X181440Y299237D01*
X181403Y299292D01*
X181280Y299423D01*
X181162Y299560D01*
X181111Y299603D01*
X181066Y299651D01*
X180923Y299761D01*
X180784Y299877D01*
X180738Y299903D01*
X180674Y299952D01*
X180239Y300185D01*
X180208Y300196D01*
X180187Y300207D01*
X178401Y300947D01*
X177122Y302226D01*
X176430Y303896D01*
X176430Y305704D01*
X177122Y307374D01*
X177288Y307540D01*
X177362Y307627D01*
X177443Y307707D01*
X177521Y307815D01*
X177607Y307916D01*
X177666Y308014D01*
X177733Y308106D01*
X177793Y308224D01*
X177862Y308338D01*
X177904Y308445D01*
X177956Y308546D01*
X177996Y308673D01*
X178045Y308797D01*
X178070Y308908D01*
X178104Y309017D01*
X178114Y309110D01*
X178152Y309278D01*
X178170Y309602D01*
X178180Y309695D01*
X178180Y388508D01*
X186813Y397140D01*
X186887Y397227D01*
X186968Y397307D01*
X187046Y397415D01*
X187132Y397516D01*
X187191Y397614D01*
X187258Y397706D01*
X187318Y397825D01*
X187387Y397939D01*
X187429Y398045D01*
X187481Y398147D01*
X187521Y398273D01*
X187570Y398397D01*
X187595Y398508D01*
X187629Y398617D01*
X187639Y398711D01*
X187677Y398878D01*
X187695Y399203D01*
X187705Y399295D01*
X187705Y454780D01*
X187696Y454894D01*
X187697Y455008D01*
X187676Y455140D01*
X187665Y455272D01*
X187638Y455383D01*
X187620Y455496D01*
X187579Y455622D01*
X187547Y455751D01*
X187502Y455856D01*
X187466Y455964D01*
X187404Y456082D01*
X187352Y456204D01*
X187291Y456300D01*
X187238Y456402D01*
X187179Y456475D01*
X187087Y456620D01*
X187003Y456714D01*
X186969Y456763D01*
X186875Y456858D01*
X186871Y456862D01*
X186813Y456935D01*
X184530Y459217D01*
X184530Y462146D01*
X184527Y462184D01*
X184529Y462222D01*
X184507Y462430D01*
X184490Y462638D01*
X184481Y462675D01*
X184477Y462713D01*
X184422Y462914D01*
X184372Y463117D01*
X184357Y463152D01*
X184346Y463189D01*
X184259Y463379D01*
X184177Y463570D01*
X184157Y463602D01*
X184141Y463637D01*
X184024Y463810D01*
X183912Y463986D01*
X183887Y464015D01*
X183865Y464046D01*
X183722Y464198D01*
X183583Y464354D01*
X183554Y464378D01*
X183528Y464406D01*
X183362Y464533D01*
X183199Y464664D01*
X183166Y464683D01*
X183136Y464706D01*
X182952Y464805D01*
X182771Y464908D01*
X182735Y464921D01*
X182701Y464939D01*
X182504Y465007D01*
X182308Y465080D01*
X182271Y465087D01*
X182235Y465099D01*
X182028Y465134D01*
X181824Y465174D01*
X181786Y465176D01*
X181748Y465182D01*
X181539Y465183D01*
X181331Y465190D01*
X181293Y465185D01*
X181255Y465185D01*
X181048Y465152D01*
X180842Y465125D01*
X180805Y465114D01*
X180768Y465108D01*
X180569Y465043D01*
X180370Y464983D01*
X180335Y464966D01*
X180299Y464954D01*
X180114Y464858D01*
X179926Y464766D01*
X179895Y464744D01*
X179861Y464726D01*
X179789Y464668D01*
X179524Y464480D01*
X179402Y464359D01*
X179328Y464301D01*
X166258Y451230D01*
X132595Y451230D01*
X132481Y451221D01*
X132367Y451222D01*
X132235Y451201D01*
X132103Y451190D01*
X131992Y451163D01*
X131879Y451145D01*
X131753Y451104D01*
X131624Y451072D01*
X131519Y451027D01*
X131411Y450991D01*
X131293Y450929D01*
X131171Y450877D01*
X131075Y450816D01*
X130973Y450763D01*
X130900Y450704D01*
X130755Y450612D01*
X130513Y450396D01*
X130440Y450338D01*
X128401Y448299D01*
X128327Y448212D01*
X128246Y448132D01*
X128168Y448024D01*
X128082Y447923D01*
X128023Y447825D01*
X127956Y447733D01*
X127896Y447614D01*
X127827Y447500D01*
X127785Y447394D01*
X127733Y447292D01*
X127693Y447166D01*
X127644Y447042D01*
X127619Y446931D01*
X127585Y446822D01*
X127575Y446728D01*
X127537Y446561D01*
X127519Y446236D01*
X127509Y446144D01*
X127509Y362690D01*
X127523Y362510D01*
X127530Y362330D01*
X127543Y362265D01*
X127549Y362199D01*
X127592Y362024D01*
X127628Y361847D01*
X127651Y361785D01*
X127667Y361720D01*
X127739Y361554D01*
X127802Y361385D01*
X127836Y361328D01*
X127862Y361267D01*
X127959Y361114D01*
X128049Y360958D01*
X128091Y360906D01*
X128127Y360850D01*
X128247Y360716D01*
X128362Y360576D01*
X128411Y360532D01*
X128456Y360483D01*
X128596Y360369D01*
X128731Y360250D01*
X128788Y360214D01*
X128840Y360173D01*
X128996Y360084D01*
X129149Y359987D01*
X129210Y359962D01*
X129268Y359929D01*
X129438Y359866D01*
X129604Y359796D01*
X129668Y359780D01*
X129731Y359757D01*
X129908Y359722D01*
X130083Y359680D01*
X130150Y359675D01*
X130215Y359662D01*
X130395Y359657D01*
X130575Y359643D01*
X130642Y359649D01*
X130708Y359647D01*
X130887Y359671D01*
X131067Y359686D01*
X131117Y359701D01*
X131197Y359711D01*
X131669Y359854D01*
X131700Y359869D01*
X131722Y359875D01*
X132440Y360173D01*
X134260Y360173D01*
X135940Y359477D01*
X137227Y358190D01*
X137923Y356510D01*
X137923Y302703D01*
X137937Y302524D01*
X137944Y302343D01*
X137957Y302278D01*
X137963Y302212D01*
X138006Y302037D01*
X138042Y301859D01*
X138065Y301797D01*
X138081Y301733D01*
X138153Y301567D01*
X138216Y301398D01*
X138250Y301340D01*
X138276Y301279D01*
X138373Y301128D01*
X138463Y300971D01*
X138505Y300919D01*
X138541Y300863D01*
X138661Y300729D01*
X138776Y300589D01*
X138825Y300545D01*
X138870Y300496D01*
X139010Y300382D01*
X139146Y300263D01*
X139202Y300227D01*
X139254Y300186D01*
X139410Y300096D01*
X139563Y300000D01*
X139624Y299974D01*
X139682Y299942D01*
X139852Y299879D01*
X140018Y299809D01*
X140082Y299793D01*
X140145Y299770D01*
X140322Y299735D01*
X140498Y299693D01*
X140564Y299688D01*
X140629Y299675D01*
X140809Y299670D01*
X140990Y299656D01*
X141056Y299662D01*
X141122Y299660D01*
X141301Y299684D01*
X141481Y299699D01*
X141532Y299714D01*
X141611Y299724D01*
X141927Y299820D01*
X143779Y299820D01*
X145449Y299128D01*
X146728Y297849D01*
X147428Y296158D01*
X147429Y296155D01*
X147428Y296076D01*
X147449Y295945D01*
X147460Y295812D01*
X147487Y295702D01*
X147505Y295589D01*
X147546Y295462D01*
X147578Y295334D01*
X147623Y295229D01*
X147659Y295120D01*
X147721Y295002D01*
X147773Y294880D01*
X147834Y294784D01*
X147887Y294683D01*
X147946Y294609D01*
X148035Y294469D01*
X148529Y293276D01*
X148529Y274033D01*
X148535Y273957D01*
X148533Y273881D01*
X148555Y273712D01*
X148569Y273541D01*
X148587Y273467D01*
X148597Y273392D01*
X148646Y273228D01*
X148687Y273062D01*
X148717Y272993D01*
X148739Y272919D01*
X148815Y272766D01*
X148882Y272609D01*
X148923Y272545D01*
X148956Y272476D01*
X149055Y272337D01*
X149147Y272193D01*
X149198Y272136D01*
X149242Y272074D01*
X149362Y271953D01*
X149476Y271825D01*
X149535Y271777D01*
X149589Y271723D01*
X149727Y271622D01*
X149860Y271515D01*
X149926Y271478D01*
X149987Y271433D01*
X150140Y271356D01*
X150288Y271271D01*
X150360Y271245D01*
X150428Y271210D01*
X150433Y271209D01*
X150433Y265195D01*
X150433Y251695D01*
X150433Y245961D01*
X150141Y246040D01*
X149916Y246081D01*
X149693Y246124D01*
X149674Y246125D01*
X149655Y246128D01*
X149426Y246133D01*
X149200Y246140D01*
X149181Y246137D01*
X149162Y246137D01*
X148936Y246105D01*
X148711Y246075D01*
X148693Y246070D01*
X148674Y246067D01*
X148458Y245999D01*
X148238Y245933D01*
X148221Y245924D01*
X148203Y245919D01*
X148000Y245816D01*
X147795Y245716D01*
X147780Y245705D01*
X147763Y245696D01*
X147578Y245562D01*
X147393Y245430D01*
X147380Y245417D01*
X147364Y245406D01*
X147204Y245244D01*
X147042Y245084D01*
X147031Y245068D01*
X147018Y245055D01*
X146885Y244868D01*
X146752Y244685D01*
X146743Y244668D01*
X146732Y244652D01*
X146631Y244447D01*
X146529Y244244D01*
X146524Y244226D01*
X146515Y244209D01*
X146450Y243991D01*
X146381Y243774D01*
X146379Y243758D01*
X146373Y243737D01*
X146320Y243332D01*
X144911Y241924D01*
X144837Y241837D01*
X144756Y241757D01*
X144678Y241649D01*
X144592Y241548D01*
X144533Y241450D01*
X144466Y241358D01*
X144406Y241239D01*
X144337Y241125D01*
X144295Y241019D01*
X144243Y240917D01*
X144203Y240791D01*
X144154Y240667D01*
X144129Y240556D01*
X144095Y240447D01*
X144085Y240353D01*
X144047Y240186D01*
X144029Y239861D01*
X144019Y239769D01*
X144019Y174752D01*
X144025Y174676D01*
X144023Y174600D01*
X144045Y174431D01*
X144059Y174260D01*
X144077Y174186D01*
X144087Y174111D01*
X144136Y173947D01*
X144177Y173781D01*
X144207Y173712D01*
X144229Y173638D01*
X144305Y173485D01*
X144372Y173328D01*
X144413Y173264D01*
X144446Y173195D01*
X144545Y173056D01*
X144637Y172912D01*
X144688Y172855D01*
X144732Y172793D01*
X144852Y172672D01*
X144966Y172544D01*
X145025Y172496D01*
X145079Y172442D01*
X145217Y172341D01*
X145350Y172234D01*
X145416Y172197D01*
X145477Y172152D01*
X145630Y172075D01*
X145778Y171990D01*
X145850Y171964D01*
X145918Y171929D01*
X146081Y171878D01*
X146241Y171819D01*
X146316Y171804D01*
X146388Y171781D01*
X146493Y171769D01*
X146725Y171724D01*
X146961Y171717D01*
X147066Y171705D01*
X164131Y171705D01*
X165392Y171183D01*
X166357Y170218D01*
X166879Y168957D01*
X166879Y167593D01*
X166299Y166193D01*
X166264Y166084D01*
X166219Y165979D01*
X166188Y165850D01*
X166147Y165723D01*
X166130Y165610D01*
X166104Y165499D01*
X166094Y165367D01*
X166074Y165235D01*
X166075Y165121D01*
X166067Y165007D01*
X166078Y164875D01*
X166080Y164742D01*
X166100Y164629D01*
X166110Y164516D01*
X166136Y164425D01*
X166166Y164256D01*
X166273Y163950D01*
X166299Y163860D01*
X166879Y162460D01*
X166879Y161096D01*
X166747Y160779D01*
X166696Y160620D01*
X166637Y160465D01*
X166621Y160386D01*
X166596Y160309D01*
X166571Y160144D01*
X166538Y159981D01*
X166535Y159901D01*
X166522Y159821D01*
X166525Y159655D01*
X166518Y159489D01*
X166528Y159409D01*
X166529Y159328D01*
X166558Y159164D01*
X166578Y158999D01*
X166600Y158922D01*
X166614Y158842D01*
X166669Y158685D01*
X166716Y158525D01*
X166745Y158470D01*
X166777Y158376D01*
X166824Y158291D01*
X166716Y158282D01*
X166583Y158250D01*
X166449Y158226D01*
X166344Y158190D01*
X166237Y158164D01*
X166112Y158110D01*
X165982Y158065D01*
X165885Y158013D01*
X165784Y157969D01*
X165669Y157896D01*
X165548Y157831D01*
X165461Y157763D01*
X165368Y157704D01*
X165266Y157613D01*
X165158Y157530D01*
X165082Y157449D01*
X165000Y157375D01*
X164914Y157269D01*
X164821Y157169D01*
X164759Y157077D01*
X164690Y156992D01*
X164622Y156873D01*
X164546Y156759D01*
X164501Y156659D01*
X164446Y156563D01*
X164398Y156435D01*
X164342Y156310D01*
X164313Y156204D01*
X164274Y156100D01*
X164248Y155966D01*
X164212Y155834D01*
X164201Y155724D01*
X164180Y155616D01*
X164175Y155480D01*
X164161Y155344D01*
X164168Y155233D01*
X164164Y155123D01*
X164182Y154988D01*
X164190Y154851D01*
X164214Y154743D01*
X164229Y154634D01*
X164268Y154503D01*
X164298Y154370D01*
X164339Y154267D01*
X164371Y154162D01*
X164431Y154039D01*
X164482Y153912D01*
X164540Y153818D01*
X164588Y153719D01*
X164667Y153607D01*
X164738Y153490D01*
X164810Y153406D01*
X164874Y153316D01*
X164970Y153219D01*
X165059Y153115D01*
X165123Y153064D01*
X165220Y152965D01*
X165548Y152726D01*
X165593Y152691D01*
X165607Y152684D01*
X165619Y152675D01*
X165620Y152674D01*
X165825Y152571D01*
X166031Y152464D01*
X166046Y152459D01*
X166060Y152452D01*
X166281Y152383D01*
X166500Y152311D01*
X166516Y152309D01*
X166531Y152304D01*
X166588Y152297D01*
X166988Y152236D01*
X167127Y152237D01*
X167173Y152232D01*
X167174Y152119D01*
X167166Y152006D01*
X167178Y151873D01*
X167179Y151740D01*
X167199Y151628D01*
X167209Y151514D01*
X167235Y151424D01*
X167265Y151255D01*
X167372Y150948D01*
X167398Y150859D01*
X167724Y150072D01*
X167895Y149213D01*
X167895Y149029D01*
X167898Y148991D01*
X167896Y148953D01*
X167918Y148745D01*
X167935Y148537D01*
X167944Y148500D01*
X167948Y148462D01*
X168003Y148261D01*
X168053Y148058D01*
X168068Y148023D01*
X168079Y147986D01*
X168165Y147797D01*
X168248Y147605D01*
X168268Y147573D01*
X168284Y147538D01*
X168401Y147365D01*
X168513Y147189D01*
X168538Y147160D01*
X168560Y147129D01*
X168703Y146977D01*
X168842Y146821D01*
X168871Y146797D01*
X168898Y146769D01*
X169063Y146642D01*
X169226Y146511D01*
X169259Y146492D01*
X169289Y146469D01*
X169473Y146370D01*
X169654Y146267D01*
X169690Y146254D01*
X169724Y146236D01*
X169921Y146168D01*
X170117Y146095D01*
X170154Y146088D01*
X170190Y146076D01*
X170396Y146041D01*
X170601Y146001D01*
X170639Y145999D01*
X170677Y145993D01*
X170886Y145992D01*
X171094Y145985D01*
X171132Y145990D01*
G37*
%LPC*%
G36*
X45553Y284860D02*
X45553Y284860D01*
X41726Y286446D01*
X38796Y289376D01*
X37210Y293203D01*
X37210Y297347D01*
X38796Y301174D01*
X38858Y301236D01*
X38932Y301323D01*
X39013Y301404D01*
X39091Y301511D01*
X39177Y301612D01*
X39236Y301710D01*
X39303Y301802D01*
X39363Y301921D01*
X39432Y302035D01*
X39474Y302141D01*
X39526Y302243D01*
X39566Y302370D01*
X39615Y302493D01*
X39640Y302604D01*
X39674Y302713D01*
X39684Y302807D01*
X39722Y302975D01*
X39740Y303299D01*
X39750Y303391D01*
X39750Y430191D01*
X40949Y433086D01*
X52689Y444826D01*
X55584Y446025D01*
X73715Y446025D01*
X73829Y446034D01*
X73944Y446033D01*
X74075Y446054D01*
X74207Y446065D01*
X74318Y446092D01*
X74431Y446110D01*
X74557Y446151D01*
X74686Y446183D01*
X74791Y446228D01*
X74899Y446264D01*
X75017Y446325D01*
X75139Y446378D01*
X75236Y446439D01*
X75337Y446492D01*
X75411Y446551D01*
X75555Y446643D01*
X75798Y446859D01*
X75870Y446917D01*
X76363Y447410D01*
X80377Y449073D01*
X84723Y449073D01*
X88737Y447410D01*
X91810Y444337D01*
X93473Y440323D01*
X93473Y435977D01*
X91810Y431963D01*
X88737Y428890D01*
X88464Y428777D01*
X88317Y428702D01*
X88166Y428634D01*
X88098Y428589D01*
X88025Y428552D01*
X87892Y428454D01*
X87754Y428363D01*
X87694Y428307D01*
X87628Y428259D01*
X87513Y428141D01*
X87391Y428029D01*
X87341Y427964D01*
X87284Y427906D01*
X87189Y427770D01*
X87087Y427640D01*
X87047Y427568D01*
X87001Y427502D01*
X86929Y427353D01*
X86849Y427208D01*
X86822Y427131D01*
X86787Y427057D01*
X86740Y426899D01*
X86685Y426743D01*
X86670Y426662D01*
X86647Y426584D01*
X86626Y426420D01*
X86597Y426257D01*
X86596Y426175D01*
X86586Y426094D01*
X86592Y425929D01*
X86589Y425764D01*
X86601Y425683D01*
X86604Y425602D01*
X86637Y425440D01*
X86661Y425276D01*
X86686Y425198D01*
X86702Y425118D01*
X86760Y424963D01*
X86811Y424806D01*
X86848Y424733D01*
X86876Y424657D01*
X86959Y424513D01*
X87034Y424366D01*
X87082Y424300D01*
X87123Y424229D01*
X87228Y424101D01*
X87326Y423968D01*
X87384Y423911D01*
X87436Y423847D01*
X87559Y423738D01*
X87678Y423622D01*
X87731Y423587D01*
X87805Y423521D01*
X88223Y423259D01*
X88238Y423253D01*
X88247Y423246D01*
X88807Y422961D01*
X90328Y421856D01*
X91656Y420528D01*
X92761Y419007D01*
X93614Y417333D01*
X94113Y415797D01*
X82550Y415797D01*
X70987Y415797D01*
X71486Y417333D01*
X72339Y419007D01*
X73444Y420528D01*
X74772Y421856D01*
X76293Y422961D01*
X76853Y423247D01*
X76994Y423333D01*
X77139Y423412D01*
X77204Y423462D01*
X77273Y423505D01*
X77398Y423614D01*
X77529Y423715D01*
X77584Y423775D01*
X77646Y423829D01*
X77752Y423955D01*
X77864Y424077D01*
X77910Y424145D01*
X77962Y424208D01*
X78046Y424350D01*
X78137Y424488D01*
X78171Y424562D01*
X78212Y424633D01*
X78272Y424787D01*
X78340Y424938D01*
X78361Y425016D01*
X78391Y425093D01*
X78425Y425254D01*
X78468Y425414D01*
X78476Y425495D01*
X78493Y425575D01*
X78500Y425740D01*
X78517Y425905D01*
X78512Y425987D01*
X78515Y426068D01*
X78496Y426232D01*
X78486Y426397D01*
X78468Y426477D01*
X78458Y426558D01*
X78413Y426717D01*
X78376Y426878D01*
X78345Y426954D01*
X78323Y427033D01*
X78252Y427182D01*
X78190Y427335D01*
X78147Y427405D01*
X78113Y427479D01*
X78019Y427615D01*
X77933Y427756D01*
X77879Y427818D01*
X77833Y427885D01*
X77719Y428005D01*
X77611Y428130D01*
X77548Y428183D01*
X77492Y428242D01*
X77360Y428341D01*
X77233Y428447D01*
X77177Y428478D01*
X77097Y428538D01*
X76660Y428767D01*
X76646Y428772D01*
X76636Y428777D01*
X76363Y428890D01*
X75870Y429383D01*
X75783Y429457D01*
X75703Y429538D01*
X75596Y429616D01*
X75494Y429702D01*
X75396Y429761D01*
X75304Y429828D01*
X75186Y429888D01*
X75072Y429957D01*
X74966Y429999D01*
X74864Y430051D01*
X74737Y430091D01*
X74614Y430140D01*
X74502Y430165D01*
X74393Y430199D01*
X74300Y430209D01*
X74132Y430247D01*
X73808Y430265D01*
X73715Y430275D01*
X61674Y430275D01*
X61560Y430266D01*
X61446Y430267D01*
X61315Y430246D01*
X61182Y430235D01*
X61072Y430208D01*
X60959Y430190D01*
X60832Y430149D01*
X60704Y430117D01*
X60599Y430072D01*
X60490Y430036D01*
X60372Y429974D01*
X60250Y429922D01*
X60154Y429861D01*
X60053Y429808D01*
X59979Y429749D01*
X59834Y429657D01*
X59592Y429441D01*
X59519Y429383D01*
X56392Y426256D01*
X56318Y426169D01*
X56237Y426088D01*
X56159Y425981D01*
X56073Y425880D01*
X56014Y425782D01*
X55947Y425690D01*
X55887Y425571D01*
X55818Y425457D01*
X55776Y425351D01*
X55724Y425249D01*
X55684Y425122D01*
X55635Y424999D01*
X55610Y424888D01*
X55576Y424779D01*
X55566Y424685D01*
X55528Y424517D01*
X55510Y424193D01*
X55500Y424101D01*
X55500Y303391D01*
X55509Y303277D01*
X55508Y303163D01*
X55529Y303032D01*
X55540Y302899D01*
X55567Y302789D01*
X55585Y302676D01*
X55626Y302549D01*
X55658Y302421D01*
X55703Y302316D01*
X55739Y302207D01*
X55801Y302089D01*
X55853Y301967D01*
X55914Y301871D01*
X55967Y301770D01*
X56026Y301696D01*
X56118Y301551D01*
X56334Y301309D01*
X56392Y301236D01*
X56454Y301174D01*
X58040Y297347D01*
X58040Y293203D01*
X56454Y289376D01*
X53524Y286446D01*
X49697Y284860D01*
X45553Y284860D01*
G37*
%LPD*%
G36*
X137143Y45985D02*
X137143Y45985D01*
X137258Y45984D01*
X137389Y46005D01*
X137521Y46016D01*
X137632Y46043D01*
X137745Y46061D01*
X137871Y46102D01*
X138000Y46134D01*
X138105Y46179D01*
X138214Y46215D01*
X138331Y46276D01*
X138454Y46329D01*
X138550Y46390D01*
X138651Y46443D01*
X138725Y46502D01*
X138870Y46594D01*
X139111Y46810D01*
X139184Y46868D01*
X139564Y47248D01*
X139614Y47306D01*
X139669Y47358D01*
X139773Y47494D01*
X139884Y47624D01*
X139923Y47690D01*
X139970Y47750D01*
X140050Y47900D01*
X140138Y48047D01*
X140167Y48117D01*
X140203Y48185D01*
X140258Y48346D01*
X140322Y48505D01*
X140338Y48579D01*
X140363Y48651D01*
X140391Y48820D01*
X140428Y48986D01*
X140433Y49062D01*
X140445Y49138D01*
X140446Y49309D01*
X140456Y49479D01*
X140448Y49555D01*
X140448Y49631D01*
X140422Y49800D01*
X140404Y49969D01*
X140384Y50043D01*
X140372Y50118D01*
X140318Y50281D01*
X140273Y50445D01*
X140241Y50514D01*
X140218Y50587D01*
X140139Y50739D01*
X140067Y50894D01*
X140025Y50957D01*
X139990Y51025D01*
X139924Y51107D01*
X139792Y51303D01*
X139630Y51475D01*
X139564Y51558D01*
X139017Y52105D01*
X139017Y62701D01*
X140585Y64269D01*
X140659Y64356D01*
X140740Y64436D01*
X140818Y64543D01*
X140904Y64645D01*
X140963Y64742D01*
X141030Y64835D01*
X141090Y64953D01*
X141159Y65067D01*
X141201Y65173D01*
X141253Y65275D01*
X141293Y65402D01*
X141342Y65525D01*
X141367Y65636D01*
X141401Y65746D01*
X141411Y65839D01*
X141449Y66007D01*
X141467Y66331D01*
X141477Y66423D01*
X141477Y67585D01*
X142173Y69265D01*
X148050Y75142D01*
X148075Y75171D01*
X148104Y75197D01*
X148234Y75359D01*
X148370Y75518D01*
X148390Y75551D01*
X148414Y75581D01*
X148517Y75762D01*
X148625Y75941D01*
X148639Y75976D01*
X148658Y76009D01*
X148730Y76205D01*
X148808Y76399D01*
X148816Y76436D01*
X148829Y76472D01*
X148869Y76677D01*
X148914Y76881D01*
X148917Y76919D01*
X148924Y76956D01*
X148930Y77164D01*
X148942Y77373D01*
X148938Y77411D01*
X148939Y77449D01*
X148912Y77655D01*
X148890Y77864D01*
X148880Y77900D01*
X148875Y77938D01*
X148814Y78138D01*
X148759Y78339D01*
X148743Y78374D01*
X148732Y78411D01*
X148641Y78598D01*
X148553Y78788D01*
X148532Y78820D01*
X148515Y78854D01*
X148395Y79023D01*
X148278Y79197D01*
X148252Y79225D01*
X148230Y79256D01*
X148083Y79404D01*
X147940Y79557D01*
X147910Y79580D01*
X147883Y79607D01*
X147714Y79730D01*
X147549Y79857D01*
X147515Y79875D01*
X147484Y79897D01*
X147298Y79991D01*
X147114Y80090D01*
X147078Y80103D01*
X147044Y80120D01*
X146845Y80182D01*
X146647Y80250D01*
X146610Y80256D01*
X146573Y80268D01*
X146481Y80278D01*
X146371Y80297D01*
X144996Y80866D01*
X144031Y81831D01*
X143509Y83092D01*
X143509Y84456D01*
X144090Y85859D01*
X144126Y85968D01*
X144170Y86073D01*
X144201Y86202D01*
X144242Y86329D01*
X144259Y86442D01*
X144286Y86553D01*
X144295Y86685D01*
X144315Y86817D01*
X144314Y86931D01*
X144322Y87045D01*
X144311Y87177D01*
X144309Y87310D01*
X144289Y87423D01*
X144279Y87536D01*
X144253Y87626D01*
X144223Y87796D01*
X144116Y88102D01*
X144090Y88192D01*
X143509Y89595D01*
X143509Y90959D01*
X144089Y92359D01*
X144124Y92468D01*
X144169Y92573D01*
X144200Y92702D01*
X144241Y92829D01*
X144258Y92942D01*
X144284Y93053D01*
X144294Y93185D01*
X144314Y93317D01*
X144313Y93431D01*
X144321Y93545D01*
X144310Y93677D01*
X144308Y93810D01*
X144288Y93923D01*
X144278Y94036D01*
X144252Y94126D01*
X144222Y94296D01*
X144115Y94602D01*
X144089Y94692D01*
X143509Y96092D01*
X143509Y97456D01*
X143639Y97770D01*
X143690Y97928D01*
X143749Y98083D01*
X143766Y98163D01*
X143790Y98239D01*
X143815Y98404D01*
X143849Y98567D01*
X143852Y98647D01*
X143864Y98727D01*
X143862Y98893D01*
X143869Y99060D01*
X143859Y99140D01*
X143858Y99220D01*
X143829Y99384D01*
X143809Y99549D01*
X143786Y99627D01*
X143772Y99706D01*
X143717Y99863D01*
X143671Y100023D01*
X143642Y100079D01*
X143609Y100172D01*
X143581Y100224D01*
X155194Y100224D01*
X155270Y100230D01*
X155346Y100227D01*
X155515Y100250D01*
X155685Y100264D01*
X155759Y100282D01*
X155835Y100292D01*
X155999Y100341D01*
X156164Y100382D01*
X156234Y100412D01*
X156307Y100434D01*
X156461Y100509D01*
X156618Y100577D01*
X156682Y100618D01*
X156750Y100651D01*
X156890Y100750D01*
X157034Y100842D01*
X157090Y100893D01*
X157153Y100937D01*
X157274Y101057D01*
X157402Y101171D01*
X157449Y101230D01*
X157504Y101283D01*
X157604Y101422D01*
X157711Y101554D01*
X157749Y101621D01*
X157794Y101682D01*
X157871Y101835D01*
X157955Y101983D01*
X157982Y102055D01*
X158016Y102123D01*
X158068Y102285D01*
X158127Y102446D01*
X158142Y102520D01*
X158165Y102593D01*
X158176Y102698D01*
X158222Y102930D01*
X158229Y103166D01*
X158241Y103271D01*
X158235Y103347D01*
X158237Y103423D01*
X158215Y103592D01*
X158201Y103763D01*
X158183Y103837D01*
X158173Y103912D01*
X158123Y104076D01*
X158082Y104242D01*
X158052Y104312D01*
X158030Y104385D01*
X157955Y104538D01*
X157888Y104695D01*
X157847Y104759D01*
X157813Y104828D01*
X157714Y104967D01*
X157623Y105111D01*
X157572Y105168D01*
X157528Y105230D01*
X157408Y105352D01*
X157294Y105479D01*
X157235Y105527D01*
X157181Y105581D01*
X157043Y105682D01*
X156910Y105789D01*
X156844Y105827D01*
X156782Y105871D01*
X156630Y105948D01*
X156481Y106033D01*
X156410Y106059D01*
X156342Y106094D01*
X156179Y106145D01*
X156019Y106205D01*
X155944Y106219D01*
X155871Y106242D01*
X155767Y106254D01*
X155535Y106299D01*
X155299Y106307D01*
X155194Y106318D01*
X143583Y106318D01*
X143599Y106346D01*
X143655Y106503D01*
X143720Y106656D01*
X143739Y106735D01*
X143766Y106811D01*
X143797Y106974D01*
X143836Y107136D01*
X143842Y107216D01*
X143857Y107296D01*
X143860Y107462D01*
X143873Y107628D01*
X143866Y107708D01*
X143867Y107789D01*
X143844Y107954D01*
X143830Y108119D01*
X143812Y108179D01*
X143798Y108277D01*
X143651Y108748D01*
X143644Y108763D01*
X143641Y108774D01*
X143509Y109092D01*
X143509Y110456D01*
X144090Y111859D01*
X144125Y111968D01*
X144170Y112073D01*
X144201Y112202D01*
X144242Y112328D01*
X144259Y112441D01*
X144285Y112552D01*
X144295Y112685D01*
X144315Y112816D01*
X144314Y112931D01*
X144322Y113044D01*
X144311Y113177D01*
X144309Y113310D01*
X144289Y113422D01*
X144279Y113536D01*
X144253Y113626D01*
X144223Y113795D01*
X144116Y114102D01*
X144090Y114191D01*
X143509Y115594D01*
X143509Y116958D01*
X143640Y117274D01*
X143691Y117432D01*
X143750Y117587D01*
X143767Y117667D01*
X143791Y117743D01*
X143816Y117908D01*
X143849Y118071D01*
X143853Y118151D01*
X143865Y118231D01*
X143863Y118398D01*
X143869Y118564D01*
X143860Y118644D01*
X143859Y118724D01*
X143830Y118888D01*
X143809Y119053D01*
X143787Y119131D01*
X143773Y119210D01*
X143718Y119367D01*
X143671Y119527D01*
X143642Y119583D01*
X143610Y119676D01*
X143581Y119729D01*
X155194Y119729D01*
X155270Y119735D01*
X155346Y119732D01*
X155515Y119755D01*
X155685Y119769D01*
X155759Y119787D01*
X155835Y119797D01*
X155999Y119846D01*
X156164Y119887D01*
X156234Y119917D01*
X156307Y119939D01*
X156461Y120014D01*
X156618Y120082D01*
X156682Y120123D01*
X156750Y120156D01*
X156890Y120255D01*
X157034Y120347D01*
X157090Y120398D01*
X157153Y120442D01*
X157274Y120562D01*
X157402Y120676D01*
X157449Y120735D01*
X157504Y120788D01*
X157604Y120927D01*
X157711Y121059D01*
X157749Y121126D01*
X157794Y121187D01*
X157871Y121340D01*
X157955Y121488D01*
X157982Y121560D01*
X158016Y121628D01*
X158068Y121790D01*
X158127Y121951D01*
X158142Y122025D01*
X158165Y122098D01*
X158176Y122203D01*
X158222Y122435D01*
X158229Y122671D01*
X158241Y122776D01*
X158235Y122852D01*
X158237Y122928D01*
X158215Y123097D01*
X158201Y123268D01*
X158183Y123342D01*
X158173Y123417D01*
X158123Y123581D01*
X158082Y123747D01*
X158052Y123817D01*
X158030Y123890D01*
X157955Y124043D01*
X157888Y124200D01*
X157847Y124264D01*
X157813Y124333D01*
X157714Y124472D01*
X157623Y124616D01*
X157572Y124673D01*
X157528Y124735D01*
X157408Y124857D01*
X157294Y124984D01*
X157235Y125032D01*
X157181Y125086D01*
X157043Y125187D01*
X156910Y125294D01*
X156844Y125332D01*
X156782Y125376D01*
X156630Y125453D01*
X156481Y125538D01*
X156410Y125564D01*
X156342Y125599D01*
X156179Y125650D01*
X156019Y125710D01*
X155944Y125724D01*
X155871Y125747D01*
X155767Y125759D01*
X155535Y125804D01*
X155299Y125812D01*
X155194Y125823D01*
X142487Y125823D01*
X142477Y125846D01*
X142417Y126000D01*
X142375Y126071D01*
X142341Y126146D01*
X142281Y126231D01*
X142167Y126425D01*
X142007Y126616D01*
X141946Y126702D01*
X141416Y127294D01*
X141341Y127365D01*
X141300Y127416D01*
X140236Y128481D01*
X140227Y128495D01*
X140215Y128522D01*
X140166Y128590D01*
X139978Y128885D01*
X139872Y129004D01*
X139820Y129078D01*
X139249Y129715D01*
X139174Y129786D01*
X139133Y129837D01*
X138364Y130606D01*
X138425Y131692D01*
X138422Y131796D01*
X138429Y131861D01*
X138429Y153181D01*
X138426Y153219D01*
X138428Y153257D01*
X138406Y153465D01*
X138389Y153672D01*
X138380Y153709D01*
X138376Y153747D01*
X138321Y153949D01*
X138271Y154151D01*
X138256Y154186D01*
X138245Y154223D01*
X138158Y154413D01*
X138076Y154605D01*
X138056Y154637D01*
X138040Y154671D01*
X137923Y154844D01*
X137811Y155021D01*
X137786Y155049D01*
X137764Y155081D01*
X137621Y155233D01*
X137482Y155389D01*
X137453Y155413D01*
X137427Y155440D01*
X137260Y155568D01*
X137098Y155699D01*
X137066Y155717D01*
X137035Y155741D01*
X136851Y155840D01*
X136670Y155943D01*
X136634Y155956D01*
X136600Y155974D01*
X136403Y156042D01*
X136207Y156114D01*
X136170Y156121D01*
X136134Y156134D01*
X135927Y156169D01*
X135723Y156209D01*
X135685Y156210D01*
X135647Y156216D01*
X135438Y156218D01*
X135230Y156224D01*
X135192Y156219D01*
X135154Y156219D01*
X134947Y156187D01*
X134741Y156160D01*
X134704Y156149D01*
X134667Y156143D01*
X134468Y156078D01*
X134269Y156017D01*
X134234Y156000D01*
X134198Y155989D01*
X134013Y155892D01*
X133825Y155800D01*
X133794Y155778D01*
X133760Y155761D01*
X133688Y155703D01*
X133423Y155515D01*
X133301Y155394D01*
X133227Y155335D01*
X129290Y151398D01*
X129216Y151311D01*
X129135Y151231D01*
X129057Y151124D01*
X128971Y151022D01*
X128912Y150925D01*
X128845Y150832D01*
X128785Y150714D01*
X128716Y150600D01*
X128674Y150494D01*
X128622Y150392D01*
X128582Y150265D01*
X128533Y150142D01*
X128508Y150031D01*
X128474Y149921D01*
X128464Y149828D01*
X128426Y149660D01*
X128408Y149336D01*
X128398Y149244D01*
X128398Y53956D01*
X128407Y53843D01*
X128406Y53728D01*
X128427Y53597D01*
X128438Y53465D01*
X128465Y53354D01*
X128483Y53241D01*
X128524Y53115D01*
X128556Y52986D01*
X128601Y52881D01*
X128637Y52772D01*
X128699Y52654D01*
X128751Y52532D01*
X128812Y52436D01*
X128865Y52335D01*
X128924Y52261D01*
X129016Y52116D01*
X129232Y51874D01*
X129290Y51802D01*
X134224Y46868D01*
X134311Y46794D01*
X134391Y46713D01*
X134498Y46635D01*
X134600Y46549D01*
X134697Y46490D01*
X134790Y46423D01*
X134908Y46363D01*
X135022Y46294D01*
X135128Y46252D01*
X135230Y46200D01*
X135357Y46160D01*
X135480Y46111D01*
X135591Y46086D01*
X135701Y46052D01*
X135794Y46042D01*
X135962Y46004D01*
X136286Y45986D01*
X136378Y45976D01*
X137030Y45976D01*
X137143Y45985D01*
G37*
%LPC*%
G36*
X256308Y11429D02*
X256308Y11429D01*
X248839Y14523D01*
X243123Y20239D01*
X240029Y27708D01*
X240029Y28913D01*
X240018Y29046D01*
X240018Y29179D01*
X239999Y29291D01*
X239989Y29405D01*
X239957Y29534D01*
X239935Y29665D01*
X239898Y29773D01*
X239871Y29883D01*
X239818Y30006D01*
X239775Y30132D01*
X239721Y30232D01*
X239676Y30337D01*
X239605Y30449D01*
X239542Y30566D01*
X239472Y30657D01*
X239411Y30753D01*
X239322Y30852D01*
X239241Y30958D01*
X239158Y31036D01*
X239082Y31121D01*
X238979Y31204D01*
X238882Y31296D01*
X238787Y31359D01*
X238698Y31431D01*
X238583Y31496D01*
X238472Y31571D01*
X238369Y31618D01*
X238270Y31675D01*
X238145Y31721D01*
X238024Y31776D01*
X237914Y31807D01*
X237807Y31846D01*
X237676Y31872D01*
X237548Y31907D01*
X237435Y31919D01*
X237323Y31941D01*
X237190Y31945D01*
X237057Y31959D01*
X236944Y31953D01*
X236830Y31956D01*
X236698Y31939D01*
X236565Y31931D01*
X236454Y31907D01*
X236341Y31892D01*
X236213Y31853D01*
X236083Y31825D01*
X236006Y31791D01*
X235869Y31749D01*
X235643Y31639D01*
X234935Y31449D01*
X231647Y31449D01*
X231647Y39260D01*
X231647Y47071D01*
X234935Y47071D01*
X235581Y46898D01*
X236160Y46563D01*
X236633Y46090D01*
X236968Y45511D01*
X237141Y44865D01*
X237141Y44138D01*
X237152Y43996D01*
X237154Y43853D01*
X237172Y43750D01*
X237181Y43646D01*
X237215Y43508D01*
X237240Y43368D01*
X237274Y43269D01*
X237299Y43168D01*
X237356Y43037D01*
X237403Y42902D01*
X237453Y42810D01*
X237494Y42714D01*
X237570Y42594D01*
X237639Y42469D01*
X237703Y42386D01*
X237759Y42298D01*
X237854Y42192D01*
X237941Y42079D01*
X238018Y42008D01*
X238088Y41930D01*
X238199Y41841D01*
X238303Y41744D01*
X238390Y41686D01*
X238472Y41620D01*
X238595Y41550D01*
X238714Y41471D01*
X238810Y41428D01*
X238900Y41376D01*
X239034Y41327D01*
X239164Y41268D01*
X239265Y41241D01*
X239363Y41205D01*
X239503Y41177D01*
X239640Y41140D01*
X239745Y41130D01*
X239847Y41110D01*
X239989Y41106D01*
X240131Y41091D01*
X240236Y41098D01*
X240340Y41095D01*
X240481Y41113D01*
X240624Y41122D01*
X240726Y41145D01*
X240829Y41159D01*
X240966Y41200D01*
X241105Y41232D01*
X241202Y41271D01*
X241301Y41302D01*
X241429Y41364D01*
X241562Y41418D01*
X241651Y41473D01*
X241745Y41518D01*
X241861Y41601D01*
X241982Y41675D01*
X242062Y41743D01*
X242147Y41804D01*
X242248Y41904D01*
X242356Y41997D01*
X242424Y42077D01*
X242498Y42151D01*
X242582Y42266D01*
X242673Y42375D01*
X242711Y42444D01*
X242788Y42549D01*
X242984Y42937D01*
X243003Y42972D01*
X243123Y43261D01*
X248839Y48977D01*
X256308Y52071D01*
X264392Y52071D01*
X271861Y48977D01*
X277577Y43261D01*
X280671Y35792D01*
X280671Y27708D01*
X277577Y20239D01*
X271861Y14523D01*
X264392Y11429D01*
X256308Y11429D01*
G37*
%LPD*%
%LPC*%
G36*
X82550Y161797D02*
X82550Y161797D01*
X70987Y161797D01*
X71486Y163333D01*
X72339Y165007D01*
X73444Y166528D01*
X74772Y167856D01*
X76293Y168961D01*
X76853Y169247D01*
X76994Y169333D01*
X77139Y169412D01*
X77204Y169462D01*
X77273Y169505D01*
X77399Y169614D01*
X77529Y169715D01*
X77584Y169775D01*
X77646Y169828D01*
X77752Y169956D01*
X77864Y170077D01*
X77909Y170145D01*
X77962Y170208D01*
X78046Y170350D01*
X78137Y170488D01*
X78171Y170562D01*
X78212Y170633D01*
X78272Y170787D01*
X78340Y170938D01*
X78361Y171016D01*
X78391Y171093D01*
X78425Y171255D01*
X78468Y171414D01*
X78476Y171495D01*
X78493Y171575D01*
X78500Y171741D01*
X78517Y171905D01*
X78512Y171986D01*
X78515Y172068D01*
X78496Y172233D01*
X78486Y172397D01*
X78468Y172477D01*
X78458Y172558D01*
X78413Y172717D01*
X78376Y172878D01*
X78345Y172954D01*
X78323Y173032D01*
X78252Y173182D01*
X78190Y173335D01*
X78147Y173405D01*
X78113Y173479D01*
X78019Y173615D01*
X77933Y173756D01*
X77880Y173818D01*
X77833Y173885D01*
X77719Y174005D01*
X77611Y174130D01*
X77548Y174183D01*
X77492Y174241D01*
X77360Y174341D01*
X77233Y174447D01*
X77177Y174478D01*
X77097Y174538D01*
X76660Y174767D01*
X76646Y174772D01*
X76636Y174777D01*
X76363Y174890D01*
X73290Y177963D01*
X71627Y181977D01*
X71627Y186323D01*
X73290Y190337D01*
X76363Y193410D01*
X77871Y194035D01*
X77905Y194052D01*
X77941Y194065D01*
X78124Y194164D01*
X78310Y194260D01*
X78341Y194282D01*
X78374Y194301D01*
X78539Y194429D01*
X78707Y194553D01*
X78734Y194580D01*
X78764Y194603D01*
X78906Y194756D01*
X79052Y194906D01*
X79074Y194937D01*
X79100Y194965D01*
X79215Y195139D01*
X79335Y195310D01*
X79351Y195344D01*
X79372Y195376D01*
X79458Y195566D01*
X79549Y195754D01*
X79560Y195791D01*
X79575Y195826D01*
X79629Y196027D01*
X79688Y196228D01*
X79693Y196266D01*
X79703Y196302D01*
X79724Y196510D01*
X79750Y196717D01*
X79748Y196755D01*
X79752Y196793D01*
X79739Y197002D01*
X79731Y197210D01*
X79724Y197247D01*
X79721Y197286D01*
X79675Y197489D01*
X79633Y197694D01*
X79620Y197730D01*
X79611Y197767D01*
X79533Y197959D01*
X79459Y198155D01*
X79440Y198188D01*
X79425Y198223D01*
X79317Y198401D01*
X79212Y198582D01*
X79188Y198612D01*
X79168Y198644D01*
X79032Y198802D01*
X78900Y198964D01*
X78871Y198989D01*
X78846Y199018D01*
X78686Y199153D01*
X78530Y199291D01*
X78498Y199311D01*
X78468Y199335D01*
X78387Y199380D01*
X78112Y199553D01*
X77954Y199620D01*
X77871Y199665D01*
X76363Y200290D01*
X73290Y203363D01*
X71627Y207377D01*
X71627Y211723D01*
X73290Y215737D01*
X76363Y218810D01*
X77871Y219435D01*
X77905Y219452D01*
X77941Y219465D01*
X78124Y219564D01*
X78310Y219660D01*
X78341Y219682D01*
X78374Y219701D01*
X78539Y219829D01*
X78707Y219953D01*
X78734Y219980D01*
X78764Y220003D01*
X78906Y220156D01*
X79052Y220306D01*
X79074Y220337D01*
X79100Y220365D01*
X79215Y220539D01*
X79335Y220710D01*
X79351Y220744D01*
X79372Y220776D01*
X79458Y220966D01*
X79549Y221154D01*
X79560Y221191D01*
X79575Y221226D01*
X79629Y221427D01*
X79688Y221628D01*
X79693Y221666D01*
X79703Y221702D01*
X79724Y221910D01*
X79750Y222117D01*
X79748Y222155D01*
X79752Y222193D01*
X79739Y222402D01*
X79731Y222610D01*
X79724Y222647D01*
X79721Y222686D01*
X79675Y222889D01*
X79633Y223094D01*
X79620Y223130D01*
X79611Y223167D01*
X79533Y223359D01*
X79459Y223555D01*
X79440Y223588D01*
X79425Y223623D01*
X79317Y223801D01*
X79212Y223982D01*
X79188Y224012D01*
X79168Y224044D01*
X79032Y224202D01*
X78900Y224364D01*
X78871Y224389D01*
X78846Y224418D01*
X78686Y224553D01*
X78530Y224691D01*
X78498Y224711D01*
X78468Y224735D01*
X78387Y224780D01*
X78112Y224953D01*
X77954Y225020D01*
X77871Y225065D01*
X76363Y225690D01*
X73290Y228763D01*
X71627Y232777D01*
X71627Y237123D01*
X73290Y241137D01*
X76363Y244210D01*
X80377Y245873D01*
X84723Y245873D01*
X88737Y244210D01*
X91810Y241137D01*
X93473Y237123D01*
X93473Y232777D01*
X91810Y228763D01*
X88737Y225690D01*
X87229Y225065D01*
X87195Y225048D01*
X87159Y225035D01*
X86975Y224935D01*
X86790Y224840D01*
X86759Y224818D01*
X86725Y224799D01*
X86561Y224671D01*
X86393Y224547D01*
X86366Y224520D01*
X86336Y224497D01*
X86194Y224343D01*
X86048Y224194D01*
X86026Y224163D01*
X86000Y224135D01*
X85885Y223961D01*
X85765Y223790D01*
X85749Y223756D01*
X85728Y223724D01*
X85642Y223533D01*
X85551Y223345D01*
X85541Y223309D01*
X85525Y223274D01*
X85471Y223072D01*
X85412Y222872D01*
X85407Y222834D01*
X85397Y222798D01*
X85376Y222590D01*
X85350Y222383D01*
X85352Y222345D01*
X85348Y222307D01*
X85361Y222098D01*
X85369Y221890D01*
X85376Y221852D01*
X85379Y221814D01*
X85425Y221611D01*
X85467Y221406D01*
X85480Y221371D01*
X85489Y221333D01*
X85567Y221140D01*
X85641Y220945D01*
X85660Y220912D01*
X85675Y220876D01*
X85783Y220699D01*
X85888Y220518D01*
X85912Y220488D01*
X85932Y220456D01*
X86068Y220297D01*
X86200Y220136D01*
X86229Y220110D01*
X86254Y220082D01*
X86414Y219947D01*
X86570Y219809D01*
X86602Y219789D01*
X86632Y219765D01*
X86713Y219720D01*
X86988Y219547D01*
X87146Y219480D01*
X87229Y219435D01*
X88737Y218810D01*
X91810Y215737D01*
X93473Y211723D01*
X93473Y207377D01*
X91810Y203363D01*
X88737Y200290D01*
X87229Y199665D01*
X87195Y199648D01*
X87159Y199635D01*
X86975Y199535D01*
X86790Y199440D01*
X86759Y199418D01*
X86725Y199399D01*
X86561Y199271D01*
X86393Y199147D01*
X86366Y199120D01*
X86336Y199097D01*
X86194Y198943D01*
X86048Y198794D01*
X86026Y198763D01*
X86000Y198735D01*
X85885Y198561D01*
X85765Y198390D01*
X85749Y198356D01*
X85728Y198324D01*
X85642Y198133D01*
X85551Y197945D01*
X85541Y197909D01*
X85525Y197874D01*
X85471Y197672D01*
X85412Y197472D01*
X85407Y197434D01*
X85397Y197398D01*
X85376Y197190D01*
X85350Y196983D01*
X85352Y196945D01*
X85348Y196907D01*
X85361Y196698D01*
X85369Y196490D01*
X85376Y196452D01*
X85379Y196414D01*
X85425Y196211D01*
X85467Y196006D01*
X85480Y195971D01*
X85489Y195933D01*
X85567Y195740D01*
X85641Y195545D01*
X85660Y195512D01*
X85675Y195476D01*
X85783Y195299D01*
X85888Y195118D01*
X85912Y195088D01*
X85932Y195056D01*
X86068Y194897D01*
X86200Y194736D01*
X86229Y194710D01*
X86254Y194682D01*
X86414Y194547D01*
X86570Y194409D01*
X86602Y194389D01*
X86632Y194365D01*
X86713Y194320D01*
X86988Y194147D01*
X87146Y194080D01*
X87229Y194035D01*
X88737Y193410D01*
X91810Y190337D01*
X93473Y186323D01*
X93473Y181977D01*
X91810Y177963D01*
X88737Y174890D01*
X88464Y174777D01*
X88317Y174702D01*
X88166Y174634D01*
X88098Y174589D01*
X88025Y174552D01*
X87892Y174454D01*
X87754Y174363D01*
X87694Y174307D01*
X87628Y174259D01*
X87513Y174141D01*
X87391Y174029D01*
X87341Y173964D01*
X87284Y173906D01*
X87189Y173770D01*
X87087Y173640D01*
X87047Y173569D01*
X87001Y173502D01*
X86929Y173352D01*
X86849Y173208D01*
X86822Y173131D01*
X86787Y173057D01*
X86740Y172899D01*
X86685Y172743D01*
X86670Y172662D01*
X86647Y172584D01*
X86626Y172420D01*
X86597Y172257D01*
X86596Y172176D01*
X86586Y172094D01*
X86592Y171929D01*
X86589Y171764D01*
X86601Y171683D01*
X86604Y171601D01*
X86637Y171439D01*
X86661Y171276D01*
X86686Y171198D01*
X86702Y171118D01*
X86760Y170964D01*
X86811Y170806D01*
X86848Y170733D01*
X86876Y170656D01*
X86959Y170513D01*
X87034Y170366D01*
X87082Y170300D01*
X87123Y170229D01*
X87228Y170102D01*
X87326Y169968D01*
X87384Y169911D01*
X87436Y169847D01*
X87559Y169738D01*
X87678Y169622D01*
X87731Y169587D01*
X87806Y169521D01*
X88223Y169259D01*
X88237Y169253D01*
X88247Y169247D01*
X88807Y168961D01*
X90328Y167856D01*
X91656Y166528D01*
X92761Y165007D01*
X93614Y163333D01*
X94113Y161797D01*
X82550Y161797D01*
X82550Y161797D01*
G37*
%LPD*%
%LPC*%
G36*
X82550Y288797D02*
X82550Y288797D01*
X70987Y288797D01*
X71486Y290333D01*
X72339Y292007D01*
X73444Y293528D01*
X74772Y294856D01*
X76293Y295961D01*
X76853Y296247D01*
X76994Y296333D01*
X77139Y296412D01*
X77204Y296462D01*
X77273Y296505D01*
X77399Y296614D01*
X77529Y296715D01*
X77584Y296775D01*
X77646Y296828D01*
X77752Y296956D01*
X77864Y297077D01*
X77909Y297145D01*
X77962Y297208D01*
X78046Y297350D01*
X78137Y297488D01*
X78171Y297562D01*
X78212Y297633D01*
X78272Y297787D01*
X78340Y297938D01*
X78361Y298016D01*
X78391Y298093D01*
X78425Y298255D01*
X78468Y298414D01*
X78476Y298495D01*
X78493Y298575D01*
X78500Y298741D01*
X78517Y298905D01*
X78512Y298986D01*
X78515Y299068D01*
X78496Y299233D01*
X78486Y299397D01*
X78468Y299477D01*
X78458Y299558D01*
X78413Y299717D01*
X78376Y299878D01*
X78345Y299954D01*
X78323Y300032D01*
X78252Y300182D01*
X78190Y300335D01*
X78147Y300405D01*
X78113Y300479D01*
X78019Y300615D01*
X77933Y300756D01*
X77880Y300818D01*
X77833Y300885D01*
X77719Y301005D01*
X77611Y301130D01*
X77548Y301183D01*
X77492Y301241D01*
X77360Y301341D01*
X77233Y301447D01*
X77177Y301478D01*
X77097Y301538D01*
X76660Y301767D01*
X76646Y301772D01*
X76636Y301777D01*
X76363Y301890D01*
X73290Y304963D01*
X71627Y308977D01*
X71627Y313323D01*
X73290Y317337D01*
X76363Y320410D01*
X77871Y321035D01*
X77905Y321052D01*
X77941Y321065D01*
X78125Y321165D01*
X78310Y321260D01*
X78341Y321282D01*
X78375Y321301D01*
X78539Y321429D01*
X78707Y321553D01*
X78734Y321580D01*
X78764Y321603D01*
X78906Y321757D01*
X79052Y321906D01*
X79074Y321937D01*
X79100Y321965D01*
X79215Y322139D01*
X79335Y322310D01*
X79351Y322344D01*
X79372Y322376D01*
X79458Y322566D01*
X79549Y322755D01*
X79560Y322791D01*
X79575Y322826D01*
X79629Y323028D01*
X79688Y323228D01*
X79693Y323265D01*
X79703Y323302D01*
X79724Y323511D01*
X79750Y323717D01*
X79748Y323755D01*
X79752Y323793D01*
X79739Y324002D01*
X79731Y324210D01*
X79724Y324248D01*
X79721Y324286D01*
X79675Y324489D01*
X79633Y324694D01*
X79620Y324729D01*
X79611Y324767D01*
X79533Y324960D01*
X79459Y325155D01*
X79440Y325188D01*
X79425Y325224D01*
X79316Y325402D01*
X79212Y325582D01*
X79188Y325612D01*
X79168Y325644D01*
X79032Y325803D01*
X78900Y325964D01*
X78871Y325990D01*
X78846Y326018D01*
X78686Y326153D01*
X78530Y326291D01*
X78497Y326311D01*
X78468Y326335D01*
X78387Y326380D01*
X78112Y326553D01*
X77954Y326620D01*
X77871Y326665D01*
X76363Y327290D01*
X73290Y330363D01*
X71627Y334377D01*
X71627Y338723D01*
X73290Y342737D01*
X76363Y345810D01*
X77871Y346435D01*
X77905Y346452D01*
X77941Y346465D01*
X78125Y346565D01*
X78310Y346660D01*
X78341Y346682D01*
X78375Y346701D01*
X78539Y346829D01*
X78707Y346953D01*
X78734Y346980D01*
X78764Y347003D01*
X78906Y347157D01*
X79052Y347306D01*
X79074Y347337D01*
X79100Y347365D01*
X79215Y347539D01*
X79335Y347710D01*
X79351Y347744D01*
X79372Y347776D01*
X79458Y347966D01*
X79549Y348155D01*
X79560Y348191D01*
X79575Y348226D01*
X79629Y348428D01*
X79688Y348628D01*
X79693Y348665D01*
X79703Y348702D01*
X79724Y348911D01*
X79750Y349117D01*
X79748Y349155D01*
X79752Y349193D01*
X79739Y349402D01*
X79731Y349610D01*
X79724Y349648D01*
X79721Y349686D01*
X79675Y349889D01*
X79633Y350094D01*
X79620Y350129D01*
X79611Y350167D01*
X79533Y350360D01*
X79459Y350555D01*
X79440Y350588D01*
X79425Y350624D01*
X79316Y350802D01*
X79212Y350982D01*
X79188Y351012D01*
X79168Y351044D01*
X79032Y351203D01*
X78900Y351364D01*
X78871Y351390D01*
X78846Y351418D01*
X78686Y351553D01*
X78530Y351691D01*
X78497Y351711D01*
X78468Y351735D01*
X78387Y351780D01*
X78112Y351953D01*
X77954Y352020D01*
X77871Y352065D01*
X76363Y352690D01*
X73290Y355763D01*
X71627Y359777D01*
X71627Y364123D01*
X73290Y368137D01*
X76363Y371210D01*
X80377Y372873D01*
X84723Y372873D01*
X88737Y371210D01*
X91810Y368137D01*
X93473Y364123D01*
X93473Y359777D01*
X91810Y355763D01*
X88737Y352690D01*
X87229Y352065D01*
X87195Y352048D01*
X87159Y352035D01*
X86976Y351936D01*
X86790Y351840D01*
X86759Y351818D01*
X86725Y351799D01*
X86560Y351671D01*
X86393Y351547D01*
X86366Y351520D01*
X86336Y351497D01*
X86194Y351343D01*
X86048Y351194D01*
X86026Y351163D01*
X86000Y351135D01*
X85885Y350961D01*
X85765Y350790D01*
X85749Y350756D01*
X85728Y350724D01*
X85642Y350534D01*
X85551Y350346D01*
X85540Y350309D01*
X85525Y350274D01*
X85471Y350073D01*
X85412Y349872D01*
X85407Y349834D01*
X85397Y349798D01*
X85376Y349590D01*
X85350Y349383D01*
X85352Y349345D01*
X85348Y349307D01*
X85361Y349098D01*
X85369Y348890D01*
X85376Y348852D01*
X85379Y348814D01*
X85425Y348611D01*
X85467Y348406D01*
X85480Y348371D01*
X85489Y348333D01*
X85567Y348140D01*
X85641Y347945D01*
X85660Y347912D01*
X85675Y347877D01*
X85784Y347698D01*
X85888Y347518D01*
X85912Y347488D01*
X85932Y347456D01*
X86068Y347297D01*
X86200Y347136D01*
X86229Y347111D01*
X86254Y347082D01*
X86413Y346948D01*
X86570Y346809D01*
X86603Y346789D01*
X86632Y346765D01*
X86713Y346720D01*
X86988Y346547D01*
X87147Y346480D01*
X87229Y346435D01*
X88737Y345810D01*
X91810Y342737D01*
X93473Y338723D01*
X93473Y334377D01*
X91810Y330363D01*
X88737Y327290D01*
X87229Y326665D01*
X87195Y326648D01*
X87159Y326635D01*
X86976Y326536D01*
X86790Y326440D01*
X86759Y326418D01*
X86725Y326399D01*
X86560Y326271D01*
X86393Y326147D01*
X86366Y326120D01*
X86336Y326097D01*
X86194Y325943D01*
X86048Y325794D01*
X86026Y325763D01*
X86000Y325735D01*
X85885Y325561D01*
X85765Y325390D01*
X85749Y325356D01*
X85728Y325324D01*
X85642Y325134D01*
X85551Y324946D01*
X85540Y324909D01*
X85525Y324874D01*
X85471Y324673D01*
X85412Y324472D01*
X85407Y324434D01*
X85397Y324398D01*
X85376Y324190D01*
X85350Y323983D01*
X85352Y323945D01*
X85348Y323907D01*
X85361Y323698D01*
X85369Y323490D01*
X85376Y323452D01*
X85379Y323414D01*
X85425Y323211D01*
X85467Y323006D01*
X85480Y322971D01*
X85489Y322933D01*
X85567Y322740D01*
X85641Y322545D01*
X85660Y322512D01*
X85675Y322477D01*
X85784Y322298D01*
X85888Y322118D01*
X85912Y322088D01*
X85932Y322056D01*
X86068Y321897D01*
X86200Y321736D01*
X86229Y321711D01*
X86254Y321682D01*
X86413Y321548D01*
X86570Y321409D01*
X86603Y321389D01*
X86632Y321365D01*
X86713Y321320D01*
X86988Y321147D01*
X87147Y321080D01*
X87229Y321035D01*
X88737Y320410D01*
X91810Y317337D01*
X93473Y313323D01*
X93473Y308977D01*
X91810Y304963D01*
X88737Y301890D01*
X88464Y301777D01*
X88317Y301702D01*
X88166Y301634D01*
X88098Y301589D01*
X88025Y301552D01*
X87892Y301454D01*
X87754Y301363D01*
X87694Y301307D01*
X87628Y301259D01*
X87513Y301141D01*
X87391Y301029D01*
X87341Y300964D01*
X87284Y300906D01*
X87189Y300770D01*
X87087Y300640D01*
X87047Y300569D01*
X87001Y300502D01*
X86929Y300352D01*
X86849Y300208D01*
X86822Y300131D01*
X86787Y300057D01*
X86740Y299899D01*
X86685Y299743D01*
X86670Y299662D01*
X86647Y299584D01*
X86626Y299420D01*
X86597Y299257D01*
X86596Y299176D01*
X86586Y299094D01*
X86592Y298929D01*
X86589Y298764D01*
X86601Y298683D01*
X86604Y298601D01*
X86637Y298439D01*
X86661Y298276D01*
X86686Y298198D01*
X86702Y298118D01*
X86760Y297964D01*
X86811Y297806D01*
X86848Y297733D01*
X86876Y297656D01*
X86959Y297513D01*
X87034Y297366D01*
X87082Y297300D01*
X87123Y297229D01*
X87228Y297102D01*
X87326Y296968D01*
X87384Y296911D01*
X87436Y296847D01*
X87559Y296738D01*
X87678Y296622D01*
X87731Y296587D01*
X87806Y296521D01*
X88223Y296259D01*
X88237Y296253D01*
X88247Y296247D01*
X88807Y295961D01*
X90328Y294856D01*
X91656Y293528D01*
X92761Y292007D01*
X93614Y290333D01*
X94113Y288797D01*
X82550Y288797D01*
X82550Y288797D01*
G37*
%LPD*%
%LPC*%
G36*
X27708Y11429D02*
X27708Y11429D01*
X20239Y14523D01*
X14523Y20239D01*
X11429Y27708D01*
X11429Y35792D01*
X14523Y43261D01*
X20239Y48977D01*
X27708Y52071D01*
X35792Y52071D01*
X43261Y48977D01*
X48977Y43261D01*
X52071Y35792D01*
X52071Y27708D01*
X48977Y20239D01*
X43261Y14523D01*
X35792Y11429D01*
X27708Y11429D01*
G37*
%LPD*%
%LPC*%
G36*
X82550Y60197D02*
X82550Y60197D01*
X70987Y60197D01*
X71486Y61733D01*
X72339Y63407D01*
X73444Y64928D01*
X74772Y66256D01*
X76293Y67361D01*
X76853Y67647D01*
X76994Y67733D01*
X77139Y67812D01*
X77204Y67862D01*
X77273Y67905D01*
X77399Y68014D01*
X77529Y68115D01*
X77584Y68175D01*
X77646Y68228D01*
X77752Y68356D01*
X77864Y68477D01*
X77909Y68545D01*
X77962Y68608D01*
X78046Y68750D01*
X78137Y68888D01*
X78171Y68962D01*
X78212Y69033D01*
X78272Y69187D01*
X78340Y69338D01*
X78361Y69416D01*
X78391Y69493D01*
X78425Y69655D01*
X78468Y69814D01*
X78476Y69895D01*
X78493Y69975D01*
X78500Y70141D01*
X78517Y70305D01*
X78512Y70386D01*
X78515Y70468D01*
X78496Y70633D01*
X78486Y70797D01*
X78468Y70877D01*
X78458Y70958D01*
X78413Y71117D01*
X78376Y71278D01*
X78345Y71354D01*
X78323Y71432D01*
X78252Y71582D01*
X78190Y71735D01*
X78147Y71805D01*
X78113Y71879D01*
X78019Y72015D01*
X77933Y72156D01*
X77880Y72218D01*
X77833Y72285D01*
X77719Y72405D01*
X77611Y72530D01*
X77548Y72583D01*
X77492Y72641D01*
X77360Y72741D01*
X77233Y72847D01*
X77177Y72878D01*
X77097Y72938D01*
X76660Y73167D01*
X76646Y73172D01*
X76636Y73177D01*
X76363Y73290D01*
X73290Y76363D01*
X71627Y80377D01*
X71627Y84723D01*
X73290Y88737D01*
X76363Y91810D01*
X77871Y92435D01*
X77905Y92452D01*
X77941Y92465D01*
X78040Y92518D01*
X78077Y92534D01*
X78123Y92563D01*
X78125Y92565D01*
X78310Y92660D01*
X78341Y92682D01*
X78375Y92701D01*
X78539Y92829D01*
X78707Y92953D01*
X78734Y92980D01*
X78764Y93003D01*
X78906Y93157D01*
X79052Y93306D01*
X79074Y93337D01*
X79100Y93365D01*
X79215Y93539D01*
X79335Y93710D01*
X79351Y93744D01*
X79372Y93776D01*
X79458Y93966D01*
X79549Y94155D01*
X79560Y94191D01*
X79575Y94226D01*
X79629Y94428D01*
X79688Y94628D01*
X79693Y94665D01*
X79703Y94702D01*
X79724Y94911D01*
X79750Y95117D01*
X79748Y95155D01*
X79752Y95193D01*
X79739Y95402D01*
X79731Y95610D01*
X79724Y95648D01*
X79721Y95686D01*
X79675Y95889D01*
X79633Y96094D01*
X79620Y96129D01*
X79611Y96167D01*
X79533Y96360D01*
X79459Y96555D01*
X79440Y96588D01*
X79425Y96624D01*
X79316Y96802D01*
X79212Y96982D01*
X79188Y97012D01*
X79168Y97044D01*
X79032Y97203D01*
X78900Y97364D01*
X78871Y97390D01*
X78846Y97418D01*
X78686Y97553D01*
X78530Y97691D01*
X78497Y97711D01*
X78468Y97735D01*
X78387Y97780D01*
X78112Y97953D01*
X77954Y98020D01*
X77871Y98065D01*
X76363Y98690D01*
X73290Y101763D01*
X71627Y105777D01*
X71627Y110123D01*
X73290Y114137D01*
X76363Y117210D01*
X80377Y118873D01*
X84723Y118873D01*
X88737Y117210D01*
X91810Y114137D01*
X93473Y110123D01*
X93473Y105777D01*
X91810Y101763D01*
X88737Y98690D01*
X87229Y98065D01*
X87195Y98048D01*
X87159Y98035D01*
X86976Y97936D01*
X86790Y97840D01*
X86759Y97818D01*
X86725Y97799D01*
X86560Y97671D01*
X86393Y97547D01*
X86366Y97520D01*
X86336Y97497D01*
X86194Y97343D01*
X86048Y97194D01*
X86026Y97163D01*
X86000Y97135D01*
X85885Y96961D01*
X85765Y96790D01*
X85749Y96756D01*
X85728Y96724D01*
X85642Y96534D01*
X85551Y96346D01*
X85540Y96309D01*
X85525Y96274D01*
X85471Y96073D01*
X85412Y95872D01*
X85407Y95834D01*
X85397Y95798D01*
X85376Y95590D01*
X85350Y95383D01*
X85352Y95345D01*
X85348Y95307D01*
X85361Y95098D01*
X85369Y94890D01*
X85376Y94852D01*
X85379Y94814D01*
X85425Y94611D01*
X85467Y94406D01*
X85480Y94371D01*
X85489Y94333D01*
X85567Y94140D01*
X85641Y93945D01*
X85660Y93912D01*
X85675Y93877D01*
X85784Y93698D01*
X85888Y93518D01*
X85912Y93488D01*
X85932Y93456D01*
X86068Y93297D01*
X86200Y93136D01*
X86229Y93111D01*
X86254Y93082D01*
X86413Y92948D01*
X86570Y92809D01*
X86603Y92789D01*
X86632Y92765D01*
X86713Y92720D01*
X86856Y92630D01*
X86859Y92628D01*
X86861Y92627D01*
X86988Y92547D01*
X87147Y92480D01*
X87229Y92435D01*
X88737Y91810D01*
X91810Y88737D01*
X93473Y84723D01*
X93473Y80377D01*
X91810Y76363D01*
X88737Y73290D01*
X88464Y73177D01*
X88317Y73102D01*
X88166Y73034D01*
X88098Y72989D01*
X88025Y72952D01*
X87892Y72854D01*
X87754Y72763D01*
X87694Y72707D01*
X87628Y72659D01*
X87513Y72541D01*
X87391Y72429D01*
X87341Y72364D01*
X87284Y72306D01*
X87189Y72170D01*
X87087Y72040D01*
X87047Y71969D01*
X87001Y71902D01*
X86929Y71752D01*
X86849Y71608D01*
X86822Y71531D01*
X86787Y71457D01*
X86740Y71299D01*
X86685Y71143D01*
X86670Y71062D01*
X86647Y70984D01*
X86626Y70820D01*
X86597Y70657D01*
X86596Y70576D01*
X86586Y70494D01*
X86592Y70329D01*
X86589Y70164D01*
X86601Y70083D01*
X86604Y70001D01*
X86637Y69839D01*
X86661Y69676D01*
X86686Y69598D01*
X86702Y69518D01*
X86760Y69364D01*
X86811Y69206D01*
X86848Y69133D01*
X86876Y69056D01*
X86959Y68913D01*
X87034Y68766D01*
X87082Y68700D01*
X87123Y68629D01*
X87228Y68502D01*
X87326Y68368D01*
X87384Y68311D01*
X87436Y68247D01*
X87559Y68138D01*
X87678Y68022D01*
X87731Y67987D01*
X87806Y67921D01*
X88223Y67659D01*
X88237Y67653D01*
X88247Y67647D01*
X88807Y67361D01*
X90328Y66256D01*
X91656Y64928D01*
X92761Y63407D01*
X93614Y61733D01*
X94113Y60197D01*
X82550Y60197D01*
X82550Y60197D01*
G37*
%LPD*%
G36*
X180146Y232901D02*
X180146Y232901D01*
X180212Y232902D01*
X180390Y232933D01*
X180569Y232957D01*
X180633Y232976D01*
X180698Y232988D01*
X180868Y233047D01*
X181042Y233099D01*
X181101Y233129D01*
X181164Y233151D01*
X181323Y233237D01*
X181485Y233316D01*
X181539Y233355D01*
X181597Y233387D01*
X181740Y233497D01*
X181887Y233602D01*
X181934Y233648D01*
X181987Y233689D01*
X182110Y233822D01*
X182238Y233949D01*
X182277Y234002D01*
X182322Y234051D01*
X182422Y234201D01*
X182528Y234347D01*
X182558Y234407D01*
X182595Y234462D01*
X182669Y234627D01*
X182751Y234788D01*
X182771Y234851D01*
X182798Y234912D01*
X182845Y235086D01*
X182899Y235258D01*
X182905Y235311D01*
X182926Y235388D01*
X182951Y235637D01*
X183868Y236555D01*
X197508Y236555D01*
X197579Y236532D01*
X197703Y236483D01*
X197814Y236458D01*
X197923Y236424D01*
X198017Y236414D01*
X198184Y236376D01*
X198509Y236358D01*
X198601Y236348D01*
X207384Y236348D01*
X207422Y236351D01*
X207460Y236349D01*
X207668Y236371D01*
X207876Y236388D01*
X207913Y236397D01*
X207951Y236401D01*
X208152Y236456D01*
X208355Y236506D01*
X208390Y236521D01*
X208427Y236532D01*
X208616Y236619D01*
X208808Y236701D01*
X208840Y236721D01*
X208875Y236737D01*
X209048Y236854D01*
X209224Y236966D01*
X209253Y236991D01*
X209284Y237013D01*
X209436Y237156D01*
X209592Y237295D01*
X209616Y237324D01*
X209644Y237350D01*
X209771Y237517D01*
X209902Y237679D01*
X209921Y237711D01*
X209944Y237742D01*
X210043Y237926D01*
X210146Y238107D01*
X210159Y238143D01*
X210177Y238177D01*
X210245Y238374D01*
X210318Y238570D01*
X210325Y238607D01*
X210337Y238643D01*
X210372Y238850D01*
X210412Y239054D01*
X210414Y239092D01*
X210420Y239130D01*
X210421Y239339D01*
X210428Y239547D01*
X210423Y239585D01*
X210423Y239623D01*
X210390Y239830D01*
X210363Y240036D01*
X210352Y240073D01*
X210346Y240110D01*
X210281Y240309D01*
X210221Y240508D01*
X210204Y240543D01*
X210192Y240579D01*
X210096Y240764D01*
X210004Y240952D01*
X209982Y240983D01*
X209964Y241017D01*
X209906Y241089D01*
X209718Y241354D01*
X209598Y241476D01*
X209539Y241550D01*
X206693Y244395D01*
X206693Y245321D01*
X206684Y245435D01*
X206685Y245549D01*
X206664Y245681D01*
X206653Y245813D01*
X206626Y245924D01*
X206608Y246037D01*
X206567Y246163D01*
X206535Y246292D01*
X206490Y246397D01*
X206454Y246505D01*
X206393Y246623D01*
X206340Y246745D01*
X206279Y246842D01*
X206226Y246943D01*
X206167Y247016D01*
X206075Y247161D01*
X205859Y247403D01*
X205801Y247476D01*
X205463Y247813D01*
X205463Y256257D01*
X205449Y256437D01*
X205442Y256617D01*
X205429Y256682D01*
X205423Y256749D01*
X205380Y256924D01*
X205344Y257101D01*
X205321Y257163D01*
X205305Y257227D01*
X205233Y257393D01*
X205170Y257562D01*
X205136Y257620D01*
X205110Y257681D01*
X205013Y257833D01*
X204923Y257989D01*
X204881Y258041D01*
X204845Y258097D01*
X204725Y258232D01*
X204610Y258371D01*
X204561Y258415D01*
X204516Y258465D01*
X204376Y258578D01*
X204241Y258698D01*
X204184Y258733D01*
X204132Y258775D01*
X203976Y258864D01*
X203823Y258960D01*
X203762Y258986D01*
X203704Y259019D01*
X203534Y259081D01*
X203368Y259152D01*
X203304Y259167D01*
X203241Y259190D01*
X203064Y259225D01*
X202889Y259267D01*
X202822Y259272D01*
X202757Y259285D01*
X202577Y259291D01*
X202397Y259304D01*
X202330Y259298D01*
X202264Y259300D01*
X202085Y259277D01*
X201905Y259261D01*
X201855Y259246D01*
X201775Y259236D01*
X201303Y259093D01*
X201272Y259079D01*
X201250Y259072D01*
X200922Y258936D01*
X200728Y258837D01*
X200531Y258741D01*
X200508Y258724D01*
X200483Y258711D01*
X200307Y258582D01*
X200129Y258455D01*
X200109Y258435D01*
X200086Y258418D01*
X199933Y258262D01*
X199778Y258108D01*
X199761Y258085D01*
X199741Y258065D01*
X199616Y257886D01*
X199488Y257710D01*
X199475Y257684D01*
X199458Y257661D01*
X199363Y257464D01*
X199265Y257269D01*
X199257Y257242D01*
X199244Y257217D01*
X199183Y257007D01*
X199117Y256799D01*
X199114Y256775D01*
X199105Y256743D01*
X199044Y256254D01*
X199047Y256174D01*
X199041Y256121D01*
X199041Y255887D01*
X193547Y255887D01*
X193547Y260829D01*
X193572Y260839D01*
X193646Y260861D01*
X193799Y260937D01*
X193956Y261004D01*
X194020Y261045D01*
X194089Y261078D01*
X194228Y261177D01*
X194372Y261269D01*
X194429Y261320D01*
X194491Y261364D01*
X194612Y261484D01*
X194740Y261598D01*
X194788Y261657D01*
X194842Y261710D01*
X194943Y261849D01*
X195050Y261981D01*
X195087Y262048D01*
X195132Y262109D01*
X195209Y262262D01*
X195294Y262410D01*
X195320Y262482D01*
X195355Y262550D01*
X195406Y262713D01*
X195465Y262873D01*
X195480Y262947D01*
X195503Y263020D01*
X195515Y263125D01*
X195560Y263357D01*
X195567Y263593D01*
X195579Y263698D01*
X195579Y264785D01*
X195565Y264965D01*
X195558Y265146D01*
X195545Y265211D01*
X195539Y265277D01*
X195496Y265452D01*
X195460Y265629D01*
X195437Y265691D01*
X195421Y265756D01*
X195349Y265922D01*
X195286Y266090D01*
X195252Y266148D01*
X195226Y266209D01*
X195129Y266361D01*
X195039Y266518D01*
X194997Y266569D01*
X194961Y266625D01*
X194841Y266760D01*
X194726Y266900D01*
X194677Y266943D01*
X194632Y266993D01*
X194492Y267106D01*
X194357Y267226D01*
X194300Y267261D01*
X194248Y267303D01*
X194092Y267392D01*
X193939Y267488D01*
X193877Y267514D01*
X193820Y267547D01*
X193651Y267610D01*
X193484Y267680D01*
X193420Y267695D01*
X193357Y267719D01*
X193180Y267753D01*
X193005Y267796D01*
X192938Y267801D01*
X192873Y267813D01*
X192693Y267819D01*
X192513Y267832D01*
X192446Y267827D01*
X192380Y267829D01*
X192201Y267805D01*
X192021Y267789D01*
X191970Y267775D01*
X191891Y267764D01*
X191419Y267622D01*
X191407Y267616D01*
X189596Y267616D01*
X187926Y268308D01*
X186647Y269587D01*
X185955Y271257D01*
X185955Y271983D01*
X185949Y272055D01*
X185951Y272121D01*
X185939Y272219D01*
X185934Y272344D01*
X185921Y272409D01*
X185915Y272475D01*
X185893Y272565D01*
X185887Y272610D01*
X185866Y272681D01*
X185836Y272827D01*
X185813Y272889D01*
X185797Y272954D01*
X185752Y273058D01*
X185745Y273082D01*
X185723Y273127D01*
X185662Y273289D01*
X185628Y273346D01*
X185602Y273407D01*
X185531Y273519D01*
X185528Y273525D01*
X185519Y273537D01*
X185505Y273559D01*
X185415Y273716D01*
X185373Y273767D01*
X185337Y273823D01*
X185217Y273958D01*
X185102Y274098D01*
X185053Y274141D01*
X185008Y274191D01*
X184868Y274305D01*
X184732Y274424D01*
X184676Y274459D01*
X184624Y274501D01*
X184468Y274590D01*
X184315Y274686D01*
X184253Y274712D01*
X184196Y274745D01*
X184027Y274808D01*
X183860Y274878D01*
X183795Y274894D01*
X183733Y274917D01*
X183556Y274951D01*
X183380Y274994D01*
X183314Y274999D01*
X183249Y275011D01*
X183069Y275017D01*
X182889Y275030D01*
X182822Y275025D01*
X182756Y275027D01*
X182577Y275003D01*
X182397Y274987D01*
X182347Y274973D01*
X182267Y274962D01*
X181995Y274880D01*
X181902Y274857D01*
X181863Y274841D01*
X181795Y274820D01*
X181764Y274805D01*
X181742Y274798D01*
X181670Y274769D01*
X181567Y274738D01*
X181401Y274697D01*
X181332Y274667D01*
X181258Y274645D01*
X181105Y274569D01*
X180948Y274502D01*
X180884Y274461D01*
X180815Y274428D01*
X180676Y274329D01*
X180532Y274237D01*
X180475Y274186D01*
X180413Y274142D01*
X180292Y274022D01*
X180164Y273908D01*
X180116Y273849D01*
X180062Y273795D01*
X179961Y273657D01*
X179854Y273524D01*
X179817Y273458D01*
X179772Y273397D01*
X179695Y273244D01*
X179610Y273096D01*
X179584Y273024D01*
X179549Y272956D01*
X179498Y272793D01*
X179439Y272633D01*
X179424Y272558D01*
X179401Y272486D01*
X179389Y272381D01*
X179344Y272149D01*
X179337Y271913D01*
X179325Y271808D01*
X179325Y263325D01*
X179343Y263097D01*
X179359Y262871D01*
X179363Y262852D01*
X179365Y262833D01*
X179419Y262612D01*
X179472Y262390D01*
X179479Y262373D01*
X179483Y262354D01*
X179573Y262145D01*
X179660Y261934D01*
X179670Y261918D01*
X179678Y261901D01*
X179800Y261709D01*
X179920Y261515D01*
X179933Y261501D01*
X179943Y261485D01*
X180095Y261315D01*
X180244Y261143D01*
X180259Y261131D01*
X180272Y261117D01*
X180448Y260975D01*
X180624Y260829D01*
X180641Y260819D01*
X180656Y260807D01*
X180853Y260695D01*
X181050Y260579D01*
X181068Y260572D01*
X181084Y260563D01*
X181298Y260484D01*
X181510Y260402D01*
X181529Y260398D01*
X181547Y260391D01*
X181770Y260348D01*
X181993Y260301D01*
X182013Y260300D01*
X182031Y260297D01*
X182258Y260290D01*
X182486Y260280D01*
X182502Y260282D01*
X182524Y260281D01*
X183013Y260346D01*
X183102Y260373D01*
X183161Y260381D01*
X184166Y260651D01*
X187453Y260651D01*
X187453Y252840D01*
X187453Y245029D01*
X184165Y245029D01*
X183519Y245202D01*
X182940Y245537D01*
X182467Y246010D01*
X182132Y246589D01*
X181959Y247235D01*
X181959Y250025D01*
X181956Y250063D01*
X181958Y250101D01*
X181936Y250309D01*
X181919Y250517D01*
X181910Y250554D01*
X181906Y250592D01*
X181851Y250793D01*
X181801Y250996D01*
X181786Y251031D01*
X181775Y251068D01*
X181689Y251257D01*
X181606Y251449D01*
X181586Y251481D01*
X181570Y251516D01*
X181453Y251690D01*
X181341Y251865D01*
X181316Y251894D01*
X181294Y251925D01*
X181151Y252077D01*
X181012Y252233D01*
X180983Y252257D01*
X180956Y252285D01*
X180791Y252412D01*
X180628Y252543D01*
X180595Y252562D01*
X180565Y252585D01*
X180381Y252684D01*
X180200Y252787D01*
X180164Y252800D01*
X180130Y252818D01*
X179933Y252886D01*
X179737Y252959D01*
X179700Y252966D01*
X179664Y252978D01*
X179457Y253013D01*
X179253Y253053D01*
X179215Y253055D01*
X179177Y253061D01*
X178968Y253062D01*
X178760Y253069D01*
X178722Y253064D01*
X178684Y253064D01*
X178477Y253031D01*
X178271Y253004D01*
X178234Y252993D01*
X178197Y252987D01*
X177998Y252922D01*
X177799Y252862D01*
X177764Y252845D01*
X177728Y252833D01*
X177543Y252736D01*
X177355Y252645D01*
X177324Y252623D01*
X177290Y252605D01*
X177218Y252547D01*
X176953Y252359D01*
X176831Y252239D01*
X176757Y252180D01*
X175137Y250560D01*
X175063Y250473D01*
X174982Y250393D01*
X174904Y250285D01*
X174818Y250184D01*
X174759Y250086D01*
X174692Y249994D01*
X174632Y249875D01*
X174563Y249761D01*
X174521Y249655D01*
X174469Y249553D01*
X174429Y249427D01*
X174380Y249303D01*
X174355Y249192D01*
X174321Y249083D01*
X174311Y248989D01*
X174273Y248822D01*
X174255Y248497D01*
X174245Y248405D01*
X174245Y236192D01*
X174251Y236116D01*
X174249Y236040D01*
X174271Y235871D01*
X174285Y235700D01*
X174303Y235626D01*
X174313Y235551D01*
X174362Y235387D01*
X174403Y235221D01*
X174433Y235152D01*
X174455Y235078D01*
X174531Y234925D01*
X174598Y234768D01*
X174639Y234704D01*
X174672Y234635D01*
X174771Y234496D01*
X174863Y234352D01*
X174914Y234295D01*
X174958Y234233D01*
X175078Y234112D01*
X175192Y233984D01*
X175251Y233936D01*
X175305Y233882D01*
X175443Y233781D01*
X175576Y233674D01*
X175642Y233637D01*
X175703Y233592D01*
X175856Y233515D01*
X176004Y233430D01*
X176076Y233404D01*
X176144Y233369D01*
X176307Y233318D01*
X176467Y233259D01*
X176542Y233244D01*
X176614Y233221D01*
X176719Y233209D01*
X176951Y233164D01*
X177187Y233157D01*
X177292Y233145D01*
X178704Y233145D01*
X178762Y233121D01*
X178933Y233065D01*
X179103Y233003D01*
X179168Y232990D01*
X179231Y232969D01*
X179410Y232943D01*
X179587Y232908D01*
X179653Y232906D01*
X179719Y232896D01*
X179900Y232898D01*
X180080Y232893D01*
X180146Y232901D01*
G37*
G36*
X170392Y122671D02*
X170392Y122671D01*
X170573Y122670D01*
X170638Y122680D01*
X170705Y122683D01*
X170882Y122718D01*
X171060Y122746D01*
X171123Y122767D01*
X171188Y122780D01*
X171357Y122844D01*
X171529Y122901D01*
X171588Y122931D01*
X171650Y122955D01*
X171806Y123045D01*
X171966Y123128D01*
X172007Y123161D01*
X172077Y123202D01*
X172459Y123514D01*
X172481Y123539D01*
X172499Y123554D01*
X181182Y132236D01*
X181213Y132250D01*
X181382Y132313D01*
X181439Y132347D01*
X181500Y132373D01*
X181652Y132470D01*
X181809Y132560D01*
X181860Y132602D01*
X181916Y132638D01*
X182051Y132758D01*
X182191Y132873D01*
X182235Y132922D01*
X182284Y132967D01*
X182398Y133107D01*
X182517Y133242D01*
X182553Y133299D01*
X182594Y133351D01*
X182683Y133507D01*
X182779Y133660D01*
X182805Y133721D01*
X182838Y133779D01*
X182901Y133948D01*
X182971Y134115D01*
X182987Y134180D01*
X183010Y134242D01*
X183044Y134419D01*
X183087Y134594D01*
X183092Y134661D01*
X183104Y134726D01*
X183110Y134906D01*
X183124Y135086D01*
X183118Y135153D01*
X183120Y135219D01*
X183096Y135398D01*
X183081Y135578D01*
X183066Y135629D01*
X183055Y135708D01*
X182913Y136180D01*
X182898Y136211D01*
X182892Y136233D01*
X182855Y136321D01*
X182855Y138129D01*
X183547Y139799D01*
X184826Y141078D01*
X186496Y141770D01*
X186730Y141770D01*
X186844Y141779D01*
X186958Y141778D01*
X187090Y141799D01*
X187222Y141810D01*
X187333Y141837D01*
X187446Y141855D01*
X187572Y141896D01*
X187701Y141928D01*
X187806Y141973D01*
X187914Y142009D01*
X188032Y142071D01*
X188154Y142123D01*
X188250Y142184D01*
X188352Y142237D01*
X188425Y142296D01*
X188570Y142388D01*
X188812Y142604D01*
X188885Y142662D01*
X189538Y143315D01*
X189612Y143402D01*
X189693Y143482D01*
X189771Y143590D01*
X189857Y143691D01*
X189916Y143789D01*
X189983Y143881D01*
X190043Y144000D01*
X190112Y144114D01*
X190154Y144220D01*
X190206Y144322D01*
X190246Y144448D01*
X190295Y144572D01*
X190320Y144683D01*
X190354Y144792D01*
X190364Y144886D01*
X190402Y145053D01*
X190420Y145378D01*
X190430Y145470D01*
X190430Y169446D01*
X190427Y169484D01*
X190429Y169522D01*
X190407Y169730D01*
X190390Y169938D01*
X190381Y169975D01*
X190377Y170013D01*
X190322Y170214D01*
X190272Y170417D01*
X190257Y170452D01*
X190246Y170489D01*
X190159Y170678D01*
X190077Y170870D01*
X190057Y170902D01*
X190041Y170937D01*
X189924Y171110D01*
X189812Y171286D01*
X189787Y171315D01*
X189765Y171346D01*
X189622Y171498D01*
X189483Y171654D01*
X189454Y171678D01*
X189428Y171706D01*
X189261Y171833D01*
X189099Y171964D01*
X189067Y171983D01*
X189036Y172006D01*
X188852Y172105D01*
X188671Y172208D01*
X188635Y172221D01*
X188601Y172239D01*
X188404Y172307D01*
X188208Y172380D01*
X188171Y172387D01*
X188135Y172399D01*
X187928Y172434D01*
X187724Y172474D01*
X187686Y172476D01*
X187648Y172482D01*
X187439Y172483D01*
X187231Y172490D01*
X187193Y172485D01*
X187155Y172485D01*
X186948Y172452D01*
X186742Y172425D01*
X186705Y172414D01*
X186668Y172408D01*
X186469Y172343D01*
X186270Y172283D01*
X186235Y172266D01*
X186199Y172254D01*
X186014Y172158D01*
X185826Y172066D01*
X185795Y172044D01*
X185761Y172026D01*
X185689Y171968D01*
X185424Y171780D01*
X185302Y171660D01*
X185228Y171601D01*
X181087Y167460D01*
X181066Y167435D01*
X181044Y167415D01*
X180995Y167355D01*
X180932Y167293D01*
X180854Y167185D01*
X180768Y167084D01*
X180743Y167042D01*
X180734Y167031D01*
X180706Y166982D01*
X180642Y166894D01*
X180582Y166775D01*
X180513Y166661D01*
X180471Y166555D01*
X180419Y166453D01*
X180379Y166327D01*
X180330Y166203D01*
X180305Y166092D01*
X180271Y165983D01*
X180261Y165889D01*
X180223Y165722D01*
X180205Y165397D01*
X180195Y165305D01*
X180195Y146067D01*
X177665Y143538D01*
X167501Y133374D01*
X167359Y133207D01*
X167215Y133043D01*
X167200Y133019D01*
X167181Y132998D01*
X167068Y132810D01*
X166953Y132626D01*
X166942Y132600D01*
X166927Y132575D01*
X166846Y132372D01*
X166761Y132171D01*
X166754Y132143D01*
X166744Y132117D01*
X166696Y131904D01*
X166645Y131691D01*
X166643Y131663D01*
X166637Y131635D01*
X166625Y131417D01*
X166608Y131199D01*
X166611Y131171D01*
X166609Y131143D01*
X166632Y130926D01*
X166652Y130708D01*
X166658Y130685D01*
X166662Y130652D01*
X166792Y130177D01*
X166826Y130103D01*
X166840Y130053D01*
X166879Y129960D01*
X166879Y128596D01*
X166748Y128279D01*
X166697Y128121D01*
X166637Y127965D01*
X166621Y127886D01*
X166596Y127810D01*
X166572Y127645D01*
X166538Y127482D01*
X166535Y127402D01*
X166523Y127322D01*
X166525Y127155D01*
X166518Y126989D01*
X166528Y126909D01*
X166529Y126829D01*
X166558Y126665D01*
X166578Y126499D01*
X166601Y126422D01*
X166615Y126343D01*
X166670Y126185D01*
X166716Y126026D01*
X166745Y125970D01*
X166777Y125877D01*
X167013Y125444D01*
X167024Y125430D01*
X167029Y125420D01*
X167389Y124882D01*
X167529Y124542D01*
X167612Y124382D01*
X167687Y124218D01*
X167724Y124162D01*
X167754Y124103D01*
X167862Y123958D01*
X167962Y123808D01*
X168008Y123760D01*
X168047Y123706D01*
X168177Y123580D01*
X168300Y123449D01*
X168353Y123408D01*
X168401Y123362D01*
X168548Y123258D01*
X168692Y123149D01*
X168750Y123117D01*
X168805Y123079D01*
X168967Y123001D01*
X169126Y122915D01*
X169189Y122894D01*
X169249Y122865D01*
X169422Y122814D01*
X169593Y122755D01*
X169659Y122744D01*
X169722Y122725D01*
X169901Y122703D01*
X170079Y122673D01*
X170146Y122672D01*
X170212Y122664D01*
X170392Y122671D01*
G37*
G36*
X162794Y456829D02*
X162794Y456829D01*
X162908Y456828D01*
X163040Y456849D01*
X163172Y456860D01*
X163283Y456887D01*
X163396Y456905D01*
X163522Y456946D01*
X163651Y456978D01*
X163756Y457023D01*
X163864Y457059D01*
X163982Y457121D01*
X164104Y457173D01*
X164200Y457234D01*
X164302Y457287D01*
X164375Y457346D01*
X164520Y457438D01*
X164762Y457654D01*
X164835Y457712D01*
X171055Y463932D01*
X171080Y463961D01*
X171108Y463987D01*
X171239Y464149D01*
X171374Y464308D01*
X171394Y464341D01*
X171418Y464371D01*
X171521Y464552D01*
X171629Y464731D01*
X171643Y464766D01*
X171662Y464799D01*
X171735Y464995D01*
X171812Y465189D01*
X171820Y465226D01*
X171834Y465262D01*
X171874Y465467D01*
X171919Y465671D01*
X171921Y465709D01*
X171928Y465746D01*
X171935Y465954D01*
X171947Y466163D01*
X171942Y466201D01*
X171944Y466239D01*
X171916Y466446D01*
X171894Y466654D01*
X171884Y466690D01*
X171879Y466728D01*
X171819Y466928D01*
X171764Y467129D01*
X171748Y467164D01*
X171737Y467201D01*
X171645Y467388D01*
X171558Y467578D01*
X171537Y467610D01*
X171520Y467644D01*
X171399Y467813D01*
X171322Y467928D01*
X171322Y479425D01*
X171316Y479501D01*
X171319Y479577D01*
X171296Y479746D01*
X171282Y479916D01*
X171264Y479990D01*
X171254Y480066D01*
X171205Y480230D01*
X171164Y480395D01*
X171134Y480465D01*
X171112Y480538D01*
X171037Y480692D01*
X170969Y480849D01*
X170928Y480913D01*
X170895Y480981D01*
X170796Y481121D01*
X170704Y481265D01*
X170653Y481321D01*
X170609Y481384D01*
X170489Y481505D01*
X170375Y481633D01*
X170316Y481680D01*
X170263Y481735D01*
X170124Y481835D01*
X169992Y481942D01*
X169925Y481980D01*
X169864Y482025D01*
X169711Y482102D01*
X169563Y482186D01*
X169491Y482213D01*
X169423Y482247D01*
X169261Y482299D01*
X169100Y482358D01*
X169026Y482373D01*
X168953Y482396D01*
X168848Y482407D01*
X168616Y482453D01*
X168380Y482460D01*
X168275Y482472D01*
X168199Y482466D01*
X168123Y482468D01*
X167953Y482446D01*
X167783Y482432D01*
X167709Y482414D01*
X167634Y482404D01*
X167470Y482354D01*
X167304Y482313D01*
X167234Y482283D01*
X167161Y482261D01*
X167008Y482186D01*
X166851Y482119D01*
X166787Y482078D01*
X166718Y482044D01*
X166579Y481945D01*
X166435Y481854D01*
X166378Y481803D01*
X166316Y481759D01*
X166194Y481639D01*
X166067Y481525D01*
X166019Y481466D01*
X165965Y481412D01*
X165864Y481274D01*
X165757Y481141D01*
X165719Y481075D01*
X165674Y481013D01*
X165597Y480861D01*
X165513Y480712D01*
X165486Y480641D01*
X165452Y480573D01*
X165401Y480410D01*
X165341Y480250D01*
X165327Y480175D01*
X165304Y480102D01*
X165292Y479998D01*
X165247Y479766D01*
X165239Y479530D01*
X165228Y479425D01*
X165228Y469134D01*
X164012Y469134D01*
X163542Y469605D01*
X163484Y469654D01*
X163432Y469710D01*
X163296Y469814D01*
X163166Y469924D01*
X163101Y469964D01*
X163040Y470010D01*
X162890Y470091D01*
X162743Y470179D01*
X162673Y470207D01*
X162605Y470243D01*
X162444Y470299D01*
X162285Y470362D01*
X162211Y470379D01*
X162139Y470403D01*
X161970Y470432D01*
X161804Y470469D01*
X161727Y470473D01*
X161652Y470486D01*
X161482Y470487D01*
X161311Y470497D01*
X161235Y470488D01*
X161159Y470489D01*
X160990Y470462D01*
X160820Y470444D01*
X160747Y470424D01*
X160672Y470412D01*
X160509Y470359D01*
X160345Y470314D01*
X160276Y470282D01*
X160203Y470258D01*
X160051Y470179D01*
X159896Y470108D01*
X159833Y470065D01*
X159766Y470030D01*
X159683Y469965D01*
X159487Y469833D01*
X159315Y469671D01*
X159232Y469605D01*
X155840Y466213D01*
X151649Y462022D01*
X151624Y461993D01*
X151596Y461967D01*
X151465Y461805D01*
X151330Y461646D01*
X151310Y461613D01*
X151286Y461583D01*
X151183Y461402D01*
X151075Y461223D01*
X151061Y461188D01*
X151042Y461155D01*
X150969Y460959D01*
X150892Y460765D01*
X150884Y460728D01*
X150870Y460692D01*
X150830Y460487D01*
X150785Y460283D01*
X150783Y460245D01*
X150776Y460208D01*
X150769Y460000D01*
X150757Y459791D01*
X150762Y459753D01*
X150760Y459715D01*
X150788Y459508D01*
X150810Y459300D01*
X150820Y459264D01*
X150825Y459226D01*
X150885Y459026D01*
X150940Y458825D01*
X150956Y458790D01*
X150967Y458753D01*
X151059Y458566D01*
X151146Y458376D01*
X151167Y458345D01*
X151184Y458310D01*
X151305Y458140D01*
X151421Y457967D01*
X151448Y457939D01*
X151470Y457908D01*
X151616Y457760D01*
X151759Y457607D01*
X151790Y457584D01*
X151816Y457557D01*
X151985Y457434D01*
X152151Y457307D01*
X152184Y457289D01*
X152215Y457267D01*
X152401Y457173D01*
X152585Y457074D01*
X152622Y457061D01*
X152656Y457044D01*
X152854Y456982D01*
X153052Y456914D01*
X153090Y456908D01*
X153126Y456896D01*
X153218Y456886D01*
X153538Y456831D01*
X153710Y456830D01*
X153804Y456820D01*
X162680Y456820D01*
X162794Y456829D01*
G37*
G36*
X155270Y145734D02*
X155270Y145734D01*
X155346Y145732D01*
X155515Y145754D01*
X155686Y145768D01*
X155760Y145786D01*
X155835Y145796D01*
X155999Y145846D01*
X156165Y145887D01*
X156235Y145917D01*
X156308Y145939D01*
X156461Y146014D01*
X156618Y146081D01*
X156682Y146122D01*
X156751Y146156D01*
X156890Y146255D01*
X157034Y146346D01*
X157091Y146397D01*
X157153Y146441D01*
X157275Y146561D01*
X157402Y146675D01*
X157450Y146734D01*
X157504Y146788D01*
X157605Y146926D01*
X157712Y147059D01*
X157750Y147125D01*
X157794Y147187D01*
X157871Y147339D01*
X157956Y147488D01*
X157982Y147559D01*
X158017Y147627D01*
X158068Y147790D01*
X158128Y147950D01*
X158142Y148025D01*
X158165Y148098D01*
X158177Y148202D01*
X158222Y148434D01*
X158230Y148670D01*
X158241Y148775D01*
X158241Y155275D01*
X158235Y155351D01*
X158238Y155427D01*
X158215Y155596D01*
X158201Y155766D01*
X158183Y155840D01*
X158173Y155916D01*
X158124Y156080D01*
X158083Y156245D01*
X158053Y156315D01*
X158031Y156388D01*
X157956Y156542D01*
X157888Y156699D01*
X157847Y156763D01*
X157814Y156831D01*
X157715Y156971D01*
X157623Y157115D01*
X157572Y157171D01*
X157528Y157234D01*
X157408Y157355D01*
X157294Y157483D01*
X157235Y157530D01*
X157182Y157585D01*
X157043Y157685D01*
X156911Y157792D01*
X156844Y157830D01*
X156783Y157875D01*
X156630Y157952D01*
X156482Y158036D01*
X156410Y158063D01*
X156342Y158097D01*
X156180Y158149D01*
X156019Y158208D01*
X155945Y158223D01*
X155872Y158246D01*
X155767Y158257D01*
X155535Y158303D01*
X155299Y158310D01*
X155194Y158322D01*
X155118Y158316D01*
X155042Y158318D01*
X154872Y158296D01*
X154702Y158282D01*
X154628Y158264D01*
X154553Y158254D01*
X154389Y158204D01*
X154223Y158163D01*
X154153Y158133D01*
X154080Y158111D01*
X153927Y158036D01*
X153770Y157969D01*
X153706Y157928D01*
X153637Y157894D01*
X153498Y157795D01*
X153354Y157704D01*
X153297Y157653D01*
X153235Y157609D01*
X153113Y157489D01*
X152986Y157375D01*
X152938Y157316D01*
X152884Y157262D01*
X152783Y157124D01*
X152676Y156991D01*
X152638Y156925D01*
X152593Y156863D01*
X152517Y156711D01*
X152432Y156562D01*
X152405Y156491D01*
X152371Y156423D01*
X152320Y156260D01*
X152260Y156100D01*
X152246Y156025D01*
X152223Y155952D01*
X152211Y155848D01*
X152166Y155616D01*
X152158Y155380D01*
X152147Y155275D01*
X152147Y148775D01*
X152153Y148699D01*
X152150Y148623D01*
X152173Y148454D01*
X152187Y148284D01*
X152205Y148210D01*
X152215Y148134D01*
X152264Y147970D01*
X152305Y147805D01*
X152335Y147735D01*
X152357Y147662D01*
X152432Y147508D01*
X152500Y147351D01*
X152541Y147287D01*
X152574Y147219D01*
X152673Y147079D01*
X152765Y146935D01*
X152816Y146879D01*
X152860Y146816D01*
X152980Y146695D01*
X153094Y146567D01*
X153153Y146520D01*
X153206Y146465D01*
X153345Y146365D01*
X153477Y146258D01*
X153544Y146220D01*
X153605Y146175D01*
X153758Y146098D01*
X153906Y146014D01*
X153978Y145987D01*
X154046Y145953D01*
X154208Y145901D01*
X154369Y145842D01*
X154443Y145827D01*
X154516Y145804D01*
X154621Y145793D01*
X154853Y145747D01*
X155089Y145740D01*
X155194Y145728D01*
X155270Y145734D01*
G37*
%LPC*%
G36*
X85597Y485903D02*
X85597Y485903D01*
X94113Y485903D01*
X93614Y484367D01*
X92761Y482693D01*
X91656Y481172D01*
X90328Y479844D01*
X88807Y478739D01*
X87133Y477886D01*
X85597Y477387D01*
X85597Y485903D01*
G37*
%LPD*%
%LPC*%
G36*
X85597Y282703D02*
X85597Y282703D01*
X94113Y282703D01*
X93614Y281167D01*
X92761Y279493D01*
X91656Y277972D01*
X90328Y276644D01*
X88807Y275539D01*
X87133Y274686D01*
X85597Y274187D01*
X85597Y282703D01*
G37*
%LPD*%
%LPC*%
G36*
X85597Y409703D02*
X85597Y409703D01*
X94113Y409703D01*
X93614Y408167D01*
X92761Y406493D01*
X91656Y404972D01*
X90328Y403644D01*
X88807Y402539D01*
X87133Y401686D01*
X85597Y401187D01*
X85597Y409703D01*
G37*
%LPD*%
%LPC*%
G36*
X85597Y155703D02*
X85597Y155703D01*
X94113Y155703D01*
X93614Y154167D01*
X92761Y152493D01*
X91656Y150972D01*
X90328Y149644D01*
X88807Y148539D01*
X87133Y147686D01*
X85597Y147187D01*
X85597Y155703D01*
G37*
%LPD*%
%LPC*%
G36*
X85597Y54103D02*
X85597Y54103D01*
X94113Y54103D01*
X93614Y52567D01*
X92761Y50893D01*
X91656Y49372D01*
X90328Y48044D01*
X88807Y46939D01*
X87133Y46086D01*
X85597Y45587D01*
X85597Y54103D01*
G37*
%LPD*%
%LPC*%
G36*
X77967Y477886D02*
X77967Y477886D01*
X76293Y478739D01*
X74772Y479844D01*
X73444Y481172D01*
X72339Y482693D01*
X71486Y484367D01*
X70987Y485903D01*
X79503Y485903D01*
X79503Y477387D01*
X77967Y477886D01*
G37*
%LPD*%
%LPC*%
G36*
X77967Y274686D02*
X77967Y274686D01*
X76293Y275539D01*
X74772Y276644D01*
X73444Y277972D01*
X72339Y279493D01*
X71486Y281167D01*
X70987Y282703D01*
X79503Y282703D01*
X79503Y274187D01*
X77967Y274686D01*
G37*
%LPD*%
%LPC*%
G36*
X77967Y46086D02*
X77967Y46086D01*
X76293Y46939D01*
X74772Y48044D01*
X73444Y49372D01*
X72339Y50893D01*
X71486Y52567D01*
X70987Y54103D01*
X79503Y54103D01*
X79503Y45587D01*
X77967Y46086D01*
G37*
%LPD*%
%LPC*%
G36*
X77967Y401686D02*
X77967Y401686D01*
X76293Y402539D01*
X74772Y403644D01*
X73444Y404972D01*
X72339Y406493D01*
X71486Y408167D01*
X70987Y409703D01*
X79503Y409703D01*
X79503Y401187D01*
X77967Y401686D01*
G37*
%LPD*%
%LPC*%
G36*
X77967Y147686D02*
X77967Y147686D01*
X76293Y148539D01*
X74772Y149644D01*
X73444Y150972D01*
X72339Y152493D01*
X71486Y154167D01*
X70987Y155703D01*
X79503Y155703D01*
X79503Y147187D01*
X77967Y147686D01*
G37*
%LPD*%
%LPC*%
G36*
X253872Y425322D02*
X253872Y425322D01*
X253872Y433304D01*
X255213Y432868D01*
X256816Y432051D01*
X258272Y430994D01*
X259544Y429722D01*
X260601Y428266D01*
X261418Y426663D01*
X261854Y425322D01*
X253872Y425322D01*
G37*
%LPD*%
%LPC*%
G36*
X239796Y425322D02*
X239796Y425322D01*
X240232Y426663D01*
X241049Y428266D01*
X242106Y429722D01*
X243378Y430994D01*
X244834Y432051D01*
X246437Y432868D01*
X247778Y433304D01*
X247778Y425322D01*
X239796Y425322D01*
G37*
%LPD*%
%LPC*%
G36*
X36596Y501522D02*
X36596Y501522D01*
X37032Y502863D01*
X37849Y504466D01*
X38906Y505922D01*
X40178Y507194D01*
X41634Y508251D01*
X43237Y509068D01*
X44578Y509504D01*
X44578Y501522D01*
X36596Y501522D01*
G37*
%LPD*%
%LPC*%
G36*
X43237Y487882D02*
X43237Y487882D01*
X41634Y488699D01*
X40178Y489756D01*
X38906Y491028D01*
X37849Y492484D01*
X37032Y494087D01*
X36596Y495428D01*
X44578Y495428D01*
X44578Y487446D01*
X43237Y487882D01*
G37*
%LPD*%
%LPC*%
G36*
X198737Y41782D02*
X198737Y41782D01*
X198737Y47276D01*
X201295Y47276D01*
X201941Y47103D01*
X202520Y46768D01*
X202993Y46295D01*
X203328Y45716D01*
X203501Y45070D01*
X203501Y41782D01*
X198737Y41782D01*
G37*
%LPD*%
%LPC*%
G36*
X220059Y42307D02*
X220059Y42307D01*
X220059Y44865D01*
X220232Y45511D01*
X220567Y46090D01*
X221040Y46563D01*
X221619Y46898D01*
X222265Y47071D01*
X225553Y47071D01*
X225553Y42307D01*
X220059Y42307D01*
G37*
%LPD*%
%LPC*%
G36*
X187879Y41782D02*
X187879Y41782D01*
X187879Y45070D01*
X188052Y45716D01*
X188387Y46295D01*
X188860Y46768D01*
X189439Y47103D01*
X190085Y47276D01*
X192643Y47276D01*
X192643Y41782D01*
X187879Y41782D01*
G37*
%LPD*%
%LPC*%
G36*
X193547Y245029D02*
X193547Y245029D01*
X193547Y249793D01*
X199041Y249793D01*
X199041Y247235D01*
X198868Y246589D01*
X198533Y246010D01*
X198060Y245537D01*
X197481Y245202D01*
X196835Y245029D01*
X193547Y245029D01*
G37*
%LPD*%
%LPC*%
G36*
X198737Y30194D02*
X198737Y30194D01*
X198737Y35688D01*
X203501Y35688D01*
X203501Y32400D01*
X203328Y31754D01*
X202993Y31175D01*
X202520Y30702D01*
X201941Y30367D01*
X201295Y30194D01*
X198737Y30194D01*
G37*
%LPD*%
%LPC*%
G36*
X222265Y31449D02*
X222265Y31449D01*
X221619Y31622D01*
X221040Y31957D01*
X220567Y32430D01*
X220232Y33009D01*
X220059Y33655D01*
X220059Y36213D01*
X225553Y36213D01*
X225553Y31449D01*
X222265Y31449D01*
G37*
%LPD*%
%LPC*%
G36*
X190085Y30194D02*
X190085Y30194D01*
X189439Y30367D01*
X188860Y30702D01*
X188387Y31175D01*
X188052Y31754D01*
X187879Y32400D01*
X187879Y35688D01*
X192643Y35688D01*
X192643Y30194D01*
X190085Y30194D01*
G37*
%LPD*%
D10*
X230615Y190500D03*
X207535Y190500D03*
D11*
X209488Y265195D03*
X217488Y265195D03*
X225488Y265195D03*
X233488Y265195D03*
X233488Y251695D03*
X225488Y251695D03*
X217488Y251695D03*
X209488Y251695D03*
X169480Y251695D03*
X161480Y251695D03*
X153480Y251695D03*
X145480Y251695D03*
X145480Y265195D03*
X153480Y265195D03*
X161480Y265195D03*
X169480Y265195D03*
D12*
X142875Y530225D03*
X168275Y530225D03*
X142875Y504825D03*
X168275Y504825D03*
X142875Y479425D03*
X168275Y479425D03*
D13*
X218059Y168275D02*
X234569Y168275D01*
X234569Y161773D02*
X218059Y161773D01*
X218059Y155275D02*
X234569Y155275D01*
X234569Y148775D02*
X218059Y148775D01*
X218059Y142273D02*
X234569Y142273D01*
X234569Y135776D02*
X218059Y135776D01*
X218059Y129278D02*
X234569Y129278D01*
X234569Y122776D02*
X218059Y122776D01*
X218059Y116276D02*
X234569Y116276D01*
X234569Y109774D02*
X218059Y109774D01*
X218059Y103271D02*
X234569Y103271D01*
X234569Y96774D02*
X218059Y96774D01*
X218059Y90277D02*
X234569Y90277D01*
X234569Y83774D02*
X218059Y83774D01*
X163449Y83774D02*
X146939Y83774D01*
X146939Y90277D02*
X163449Y90277D01*
X163449Y96774D02*
X146939Y96774D01*
X146939Y103271D02*
X163449Y103271D01*
X163449Y109774D02*
X146939Y109774D01*
X146939Y116276D02*
X163449Y116276D01*
X163449Y122776D02*
X146939Y122776D01*
X146939Y129278D02*
X163449Y129278D01*
X163449Y135776D02*
X146939Y135776D01*
X146939Y142273D02*
X163449Y142273D01*
X163449Y148775D02*
X146939Y148775D01*
X146939Y155275D02*
X163449Y155275D01*
X163449Y161778D02*
X146939Y161778D01*
X146939Y168275D02*
X163449Y168275D01*
D14*
X150400Y46011D02*
X150400Y36795D01*
X140684Y36795D01*
X140684Y46011D01*
X150400Y46011D01*
X150400Y37066D02*
X140684Y37066D01*
X140684Y37337D02*
X150400Y37337D01*
X150400Y37608D02*
X140684Y37608D01*
X140684Y37879D02*
X150400Y37879D01*
X150400Y38150D02*
X140684Y38150D01*
X140684Y38421D02*
X150400Y38421D01*
X150400Y38692D02*
X140684Y38692D01*
X140684Y38963D02*
X150400Y38963D01*
X150400Y39234D02*
X140684Y39234D01*
X140684Y39505D02*
X150400Y39505D01*
X150400Y39776D02*
X140684Y39776D01*
X140684Y40047D02*
X150400Y40047D01*
X150400Y40318D02*
X140684Y40318D01*
X140684Y40589D02*
X150400Y40589D01*
X150400Y40860D02*
X140684Y40860D01*
X140684Y41131D02*
X150400Y41131D01*
X150400Y41402D02*
X140684Y41402D01*
X140684Y41673D02*
X150400Y41673D01*
X150400Y41944D02*
X140684Y41944D01*
X140684Y42215D02*
X150400Y42215D01*
X150400Y42486D02*
X140684Y42486D01*
X140684Y42757D02*
X150400Y42757D01*
X150400Y43028D02*
X140684Y43028D01*
X140684Y43299D02*
X150400Y43299D01*
X150400Y43570D02*
X140684Y43570D01*
X140684Y43841D02*
X150400Y43841D01*
X150400Y44112D02*
X140684Y44112D01*
X140684Y44383D02*
X150400Y44383D01*
X150400Y44654D02*
X140684Y44654D01*
X140684Y44925D02*
X150400Y44925D01*
X150400Y45196D02*
X140684Y45196D01*
X140684Y45467D02*
X150400Y45467D01*
X150400Y45738D02*
X140684Y45738D01*
X140684Y46009D02*
X150400Y46009D01*
X150400Y52795D02*
X150400Y62011D01*
X150400Y52795D02*
X140684Y52795D01*
X140684Y62011D01*
X150400Y62011D01*
X150400Y53066D02*
X140684Y53066D01*
X140684Y53337D02*
X150400Y53337D01*
X150400Y53608D02*
X140684Y53608D01*
X140684Y53879D02*
X150400Y53879D01*
X150400Y54150D02*
X140684Y54150D01*
X140684Y54421D02*
X150400Y54421D01*
X150400Y54692D02*
X140684Y54692D01*
X140684Y54963D02*
X150400Y54963D01*
X150400Y55234D02*
X140684Y55234D01*
X140684Y55505D02*
X150400Y55505D01*
X150400Y55776D02*
X140684Y55776D01*
X140684Y56047D02*
X150400Y56047D01*
X150400Y56318D02*
X140684Y56318D01*
X140684Y56589D02*
X150400Y56589D01*
X150400Y56860D02*
X140684Y56860D01*
X140684Y57131D02*
X150400Y57131D01*
X150400Y57402D02*
X140684Y57402D01*
X140684Y57673D02*
X150400Y57673D01*
X150400Y57944D02*
X140684Y57944D01*
X140684Y58215D02*
X150400Y58215D01*
X150400Y58486D02*
X140684Y58486D01*
X140684Y58757D02*
X150400Y58757D01*
X150400Y59028D02*
X140684Y59028D01*
X140684Y59299D02*
X150400Y59299D01*
X150400Y59570D02*
X140684Y59570D01*
X140684Y59841D02*
X150400Y59841D01*
X150400Y60112D02*
X140684Y60112D01*
X140684Y60383D02*
X150400Y60383D01*
X150400Y60654D02*
X140684Y60654D01*
X140684Y60925D02*
X150400Y60925D01*
X150400Y61196D02*
X140684Y61196D01*
X140684Y61467D02*
X150400Y61467D01*
X150400Y61738D02*
X140684Y61738D01*
X140684Y62009D02*
X150400Y62009D01*
D15*
X190500Y229760D03*
X190500Y252840D03*
X228600Y62340D03*
X228600Y39260D03*
D10*
X172610Y38735D03*
X195690Y38735D03*
D16*
X82550Y361950D03*
X82550Y336550D03*
X82550Y311150D03*
X82550Y285750D03*
D17*
X250825Y422275D03*
X250825Y371475D03*
X47625Y498475D03*
X47625Y295275D03*
D16*
X82550Y158750D03*
X82550Y184150D03*
X82550Y209550D03*
X82550Y234950D03*
X82550Y412750D03*
X82550Y438150D03*
X82550Y488950D03*
X82550Y514350D03*
X82550Y107950D03*
X82550Y82550D03*
X82550Y57150D03*
D18*
X87600Y558800D03*
X115600Y558800D03*
D19*
X47625Y428625D02*
X47625Y295275D01*
X47625Y428625D02*
X57150Y438150D01*
X82550Y438150D01*
D20*
X218821Y410972D03*
X181737Y408940D03*
X155575Y307975D03*
X284480Y347345D03*
X210947Y42799D03*
X152575Y176050D03*
X174400Y177225D03*
X111125Y152400D03*
X185225Y163725D03*
X185900Y59525D03*
X255016Y178435D03*
X121666Y473710D03*
X212725Y330200D03*
X100584Y300355D03*
X100584Y328930D03*
X100584Y268605D03*
X155575Y447675D03*
X189738Y240665D03*
X139700Y73025D03*
X251841Y105410D03*
X108966Y67310D03*
X105791Y445135D03*
D21*
X155494Y155575D02*
X155194Y155275D01*
X155494Y155575D02*
X168275Y155575D01*
X171450Y158750D01*
X171450Y174275D01*
X174400Y177225D01*
D20*
X253746Y274447D03*
X253746Y347472D03*
X149225Y231775D03*
X136525Y104775D03*
X228600Y292100D03*
X273050Y463550D03*
X282575Y463550D03*
X279400Y457200D03*
X146050Y400050D03*
X244475Y276225D03*
D21*
X242170Y251695D02*
X233488Y251695D01*
X242170Y251695D02*
X243840Y253365D01*
X243840Y275590D01*
X244475Y276225D01*
X233488Y251695D02*
X225488Y251695D01*
D22*
X225610Y149225D02*
X205470Y149225D01*
D20*
X207400Y138225D03*
D21*
X169174Y116276D02*
X155194Y116276D01*
X198400Y129225D02*
X207400Y138225D01*
D22*
X203470Y148225D02*
X205470Y149225D01*
D23*
X203470Y148225D02*
X203470Y142155D01*
X207400Y138225D01*
D21*
X198400Y129225D02*
X182123Y129225D01*
X169174Y116276D01*
D20*
X231775Y231775D03*
D23*
X196850Y215900D02*
X196850Y180975D01*
X203470Y174355D01*
X190500Y229760D02*
X192515Y231775D01*
X231775Y231775D01*
X196850Y215900D02*
X190500Y222250D01*
X190500Y229760D01*
D20*
X177800Y228600D03*
D22*
X189340Y228600D02*
X190500Y229760D01*
X189340Y228600D02*
X177800Y228600D01*
D21*
X226060Y148775D02*
X226314Y148775D01*
X226060Y148775D02*
X225610Y149225D01*
D23*
X203470Y148225D02*
X203470Y174355D01*
D20*
X196850Y457200D03*
D13*
X196850Y469900D01*
X190500Y476250D01*
X190500Y527050D01*
X187325Y530225D01*
X168275Y530225D01*
D20*
X203200Y222250D03*
X231775Y222250D03*
D22*
X203200Y222250D01*
D20*
X228600Y279400D03*
D21*
X233488Y274512D02*
X233488Y265195D01*
X233488Y274512D02*
X228600Y279400D01*
D20*
X231775Y206375D03*
D21*
X231775Y196850D02*
X230615Y190500D01*
X231775Y196850D02*
X231775Y206375D01*
D22*
X228600Y454025D02*
X225425Y457200D01*
D20*
X225425Y457200D03*
D22*
X228600Y454025D02*
X228600Y323850D01*
X238125Y314325D01*
X236883Y313083D01*
X236883Y311150D01*
D20*
X236883Y311150D03*
X190500Y272161D03*
D21*
X214376Y272161D02*
X217488Y269049D01*
X217488Y265195D01*
X214376Y272161D02*
X190500Y272161D01*
X117652Y162102D02*
X117475Y161925D01*
X117652Y162102D02*
X117475Y162278D01*
D20*
X117475Y161925D03*
D21*
X117475Y162278D02*
X117475Y453422D01*
X122142Y458089D01*
X143764Y458089D02*
X155575Y469900D01*
X143764Y458089D02*
X122142Y458089D01*
X155575Y469900D02*
X155575Y527050D01*
X152400Y530225D01*
X142875Y530225D01*
D20*
X180975Y279400D03*
D21*
X171450Y251695D02*
X169480Y251695D01*
X171450Y251695D02*
X172320Y251695D01*
X176530Y255905D01*
X176530Y274574D01*
X181166Y279210D01*
X171450Y251695D02*
X171450Y209425D01*
X189400Y177579D02*
X193225Y173207D01*
X193225Y143050D01*
X187400Y137225D01*
D20*
X187400Y137225D03*
D21*
X189400Y177579D02*
X189400Y191475D01*
X171450Y209425D01*
D20*
X180975Y304800D03*
D21*
X180975Y387350D01*
X191008Y397383D01*
X180975Y279400D02*
X181166Y279210D01*
D20*
X187325Y469900D03*
D21*
X187325Y460375D01*
X190500Y457200D01*
X190500Y397891D01*
X191008Y397383D01*
X171069Y96774D02*
X155194Y96774D01*
X171069Y96774D02*
X172720Y98425D01*
X172720Y111125D01*
X185420Y123825D01*
X203200Y123825D01*
X205740Y121285D01*
X205740Y78740D01*
X228600Y76200D02*
X228600Y62340D01*
X208280Y76200D02*
X205740Y78740D01*
X208280Y76200D02*
X228600Y76200D01*
X209488Y265195D02*
X201794Y265195D01*
X200124Y263525D01*
D20*
X200124Y263525D03*
D23*
X145542Y41403D02*
X133222Y41403D01*
D24*
X148210Y38735D02*
X172610Y38735D01*
X148210Y38735D02*
X145542Y41403D01*
D20*
X133350Y355600D03*
D23*
X133350Y161925D01*
X123825Y152400D01*
X123825Y50800D01*
X133222Y41403D01*
D21*
X216052Y161773D02*
X226314Y161773D01*
X216052Y161773D02*
X213360Y164465D01*
D22*
X212725Y165100D01*
X212725Y176896D01*
X207010Y182611D01*
X207010Y187325D01*
D21*
X207535Y187850D02*
X207535Y190500D01*
X207535Y187850D02*
X207010Y187325D01*
X216662Y238379D02*
X235712Y238379D01*
X242062Y232029D01*
X242062Y171577D01*
X238760Y168275D01*
X226314Y168275D01*
X209488Y245553D02*
X209488Y251695D01*
X209488Y245553D02*
X216662Y238379D01*
X226314Y142273D02*
X242984Y142273D01*
X246634Y145923D01*
X246634Y235331D01*
X238252Y243713D01*
X220472Y243713D01*
X217488Y246697D02*
X217488Y251695D01*
X217488Y246697D02*
X220472Y243713D01*
D20*
X174625Y66675D03*
D22*
X174625Y76200D01*
X167051Y83774D01*
D21*
X155194Y83774D01*
D22*
X181257Y79093D02*
X181257Y74031D01*
D20*
X181257Y74031D03*
D22*
X181257Y79093D02*
X170073Y90277D01*
X155194Y90277D01*
D21*
X225488Y269177D02*
X215900Y278765D01*
X225488Y269177D02*
X225488Y265195D01*
X215900Y278765D02*
X215900Y288925D01*
X209550Y295275D01*
X200025Y295275D01*
D20*
X200025Y295275D03*
D21*
X161480Y251695D02*
X161290Y251505D01*
D22*
X155194Y135776D02*
X155207Y135763D01*
D21*
X165938Y135763D01*
X161290Y205835D02*
X161290Y251505D01*
X161290Y205835D02*
X182400Y184725D01*
X177400Y147225D02*
X165938Y135763D01*
X182400Y172725D02*
X182400Y184725D01*
X182400Y172725D02*
X177400Y167725D01*
X177400Y147225D01*
X143391Y129278D02*
X141224Y131699D01*
X143391Y129278D02*
X155194Y129278D01*
X141224Y131699D02*
X141224Y242235D01*
X141270Y242235D01*
X143510Y244475D01*
X143510Y250995D01*
X145480Y251695D01*
D20*
X222250Y301625D03*
D21*
X170180Y280289D02*
X170180Y273685D01*
X169480Y272985D02*
X169480Y265195D01*
X169480Y272985D02*
X170180Y273685D01*
X170180Y280289D02*
X191516Y301625D01*
X222250Y301625D01*
D20*
X142875Y295275D03*
D22*
X145480Y292670D02*
X145480Y265195D01*
X145480Y292670D02*
X142875Y295275D01*
D20*
X161925Y76200D03*
D24*
X146050Y57911D02*
X145542Y57403D01*
D23*
X146050Y57911D02*
X146050Y66675D01*
X155575Y76200D01*
X161925Y76200D01*
D20*
X162306Y293370D03*
D21*
X161679Y292286D02*
X161480Y265195D01*
X161679Y292286D02*
X162306Y293370D01*
X124714Y169164D02*
X123825Y168275D01*
D20*
X123825Y168275D03*
D21*
X124714Y169164D02*
X124714Y448564D01*
X130175Y454025D01*
X165100Y454025D01*
X180975Y469900D01*
X180975Y501650D01*
X177800Y504825D01*
X168275Y504825D01*
D23*
X209550Y558800D02*
X115600Y558800D01*
X209550Y558800D02*
X209550Y546100D01*
D20*
X209550Y546100D03*
D23*
X82550Y558800D02*
X82550Y514350D01*
X82550Y558800D02*
X87600Y558800D01*
M02*
