G04 EAGLE Gerber RS-274X export*
G75*
%MOMM*%
%FSLAX34Y34*%
%LPD*%
%INSilkscreen Bottom*%
%IPPOS*%
%AMOC8*
5,1,8,0,0,1.08239X$1,22.5*%
G01*
%ADD10C,0.101600*%
%ADD11C,0.076200*%
%ADD12C,0.152400*%
%ADD13C,0.203200*%
%ADD14C,0.127000*%


D10*
X120142Y266771D02*
X116896Y269367D01*
X116896Y257683D01*
X113651Y257683D02*
X120142Y257683D01*
X108712Y260929D02*
X108710Y261042D01*
X108704Y261155D01*
X108694Y261268D01*
X108680Y261381D01*
X108663Y261493D01*
X108641Y261604D01*
X108616Y261714D01*
X108586Y261824D01*
X108553Y261932D01*
X108516Y262039D01*
X108476Y262145D01*
X108431Y262249D01*
X108383Y262352D01*
X108332Y262453D01*
X108277Y262552D01*
X108219Y262649D01*
X108157Y262744D01*
X108092Y262837D01*
X108024Y262927D01*
X107953Y263015D01*
X107878Y263101D01*
X107801Y263184D01*
X107721Y263264D01*
X107638Y263341D01*
X107552Y263416D01*
X107464Y263487D01*
X107374Y263555D01*
X107281Y263620D01*
X107186Y263682D01*
X107089Y263740D01*
X106990Y263795D01*
X106889Y263846D01*
X106786Y263894D01*
X106682Y263939D01*
X106576Y263979D01*
X106469Y264016D01*
X106361Y264049D01*
X106251Y264079D01*
X106141Y264104D01*
X106030Y264126D01*
X105918Y264143D01*
X105805Y264157D01*
X105692Y264167D01*
X105579Y264173D01*
X105466Y264175D01*
X105353Y264173D01*
X105240Y264167D01*
X105127Y264157D01*
X105014Y264143D01*
X104902Y264126D01*
X104791Y264104D01*
X104681Y264079D01*
X104571Y264049D01*
X104463Y264016D01*
X104356Y263979D01*
X104250Y263939D01*
X104146Y263894D01*
X104043Y263846D01*
X103942Y263795D01*
X103843Y263740D01*
X103746Y263682D01*
X103651Y263620D01*
X103558Y263555D01*
X103468Y263487D01*
X103380Y263416D01*
X103294Y263341D01*
X103211Y263264D01*
X103131Y263184D01*
X103054Y263101D01*
X102979Y263015D01*
X102908Y262927D01*
X102840Y262837D01*
X102775Y262744D01*
X102713Y262649D01*
X102655Y262552D01*
X102600Y262453D01*
X102549Y262352D01*
X102501Y262249D01*
X102456Y262145D01*
X102416Y262039D01*
X102379Y261932D01*
X102346Y261824D01*
X102316Y261714D01*
X102291Y261604D01*
X102269Y261493D01*
X102252Y261381D01*
X102238Y261268D01*
X102228Y261155D01*
X102222Y261042D01*
X102220Y260929D01*
X102222Y260816D01*
X102228Y260703D01*
X102238Y260590D01*
X102252Y260477D01*
X102269Y260365D01*
X102291Y260254D01*
X102316Y260144D01*
X102346Y260034D01*
X102379Y259926D01*
X102416Y259819D01*
X102456Y259713D01*
X102501Y259609D01*
X102549Y259506D01*
X102600Y259405D01*
X102655Y259306D01*
X102713Y259209D01*
X102775Y259114D01*
X102840Y259021D01*
X102908Y258931D01*
X102979Y258843D01*
X103054Y258757D01*
X103131Y258674D01*
X103211Y258594D01*
X103294Y258517D01*
X103380Y258442D01*
X103468Y258371D01*
X103558Y258303D01*
X103651Y258238D01*
X103746Y258176D01*
X103843Y258118D01*
X103942Y258063D01*
X104043Y258012D01*
X104146Y257964D01*
X104250Y257919D01*
X104356Y257879D01*
X104463Y257842D01*
X104571Y257809D01*
X104681Y257779D01*
X104791Y257754D01*
X104902Y257732D01*
X105014Y257715D01*
X105127Y257701D01*
X105240Y257691D01*
X105353Y257685D01*
X105466Y257683D01*
X105579Y257685D01*
X105692Y257691D01*
X105805Y257701D01*
X105918Y257715D01*
X106030Y257732D01*
X106141Y257754D01*
X106251Y257779D01*
X106361Y257809D01*
X106469Y257842D01*
X106576Y257879D01*
X106682Y257919D01*
X106786Y257964D01*
X106889Y258012D01*
X106990Y258063D01*
X107089Y258118D01*
X107186Y258176D01*
X107281Y258238D01*
X107374Y258303D01*
X107464Y258371D01*
X107552Y258442D01*
X107638Y258517D01*
X107721Y258594D01*
X107801Y258674D01*
X107878Y258757D01*
X107953Y258843D01*
X108024Y258931D01*
X108092Y259021D01*
X108157Y259114D01*
X108219Y259209D01*
X108277Y259306D01*
X108332Y259405D01*
X108383Y259506D01*
X108431Y259609D01*
X108476Y259713D01*
X108516Y259819D01*
X108553Y259926D01*
X108586Y260034D01*
X108616Y260144D01*
X108641Y260254D01*
X108663Y260365D01*
X108680Y260477D01*
X108694Y260590D01*
X108704Y260703D01*
X108710Y260816D01*
X108712Y260929D01*
X108062Y266771D02*
X108060Y266872D01*
X108054Y266972D01*
X108044Y267072D01*
X108031Y267172D01*
X108013Y267271D01*
X107992Y267370D01*
X107967Y267467D01*
X107938Y267564D01*
X107905Y267659D01*
X107869Y267753D01*
X107829Y267845D01*
X107786Y267936D01*
X107739Y268025D01*
X107689Y268112D01*
X107635Y268198D01*
X107578Y268281D01*
X107518Y268361D01*
X107455Y268440D01*
X107388Y268516D01*
X107319Y268589D01*
X107247Y268659D01*
X107173Y268727D01*
X107096Y268792D01*
X107016Y268853D01*
X106934Y268912D01*
X106850Y268967D01*
X106764Y269019D01*
X106676Y269068D01*
X106586Y269113D01*
X106494Y269155D01*
X106401Y269193D01*
X106306Y269227D01*
X106211Y269258D01*
X106114Y269285D01*
X106016Y269308D01*
X105917Y269328D01*
X105817Y269343D01*
X105717Y269355D01*
X105617Y269363D01*
X105516Y269367D01*
X105416Y269367D01*
X105315Y269363D01*
X105215Y269355D01*
X105115Y269343D01*
X105015Y269328D01*
X104916Y269308D01*
X104818Y269285D01*
X104721Y269258D01*
X104626Y269227D01*
X104531Y269193D01*
X104438Y269155D01*
X104346Y269113D01*
X104256Y269068D01*
X104168Y269019D01*
X104082Y268967D01*
X103998Y268912D01*
X103916Y268853D01*
X103836Y268792D01*
X103759Y268727D01*
X103685Y268659D01*
X103613Y268589D01*
X103544Y268516D01*
X103477Y268440D01*
X103414Y268361D01*
X103354Y268281D01*
X103297Y268198D01*
X103243Y268112D01*
X103193Y268025D01*
X103146Y267936D01*
X103103Y267845D01*
X103063Y267753D01*
X103027Y267659D01*
X102994Y267564D01*
X102965Y267467D01*
X102940Y267370D01*
X102919Y267271D01*
X102901Y267172D01*
X102888Y267072D01*
X102878Y266972D01*
X102872Y266872D01*
X102870Y266771D01*
X102872Y266670D01*
X102878Y266570D01*
X102888Y266470D01*
X102901Y266370D01*
X102919Y266271D01*
X102940Y266172D01*
X102965Y266075D01*
X102994Y265978D01*
X103027Y265883D01*
X103063Y265789D01*
X103103Y265697D01*
X103146Y265606D01*
X103193Y265517D01*
X103243Y265430D01*
X103297Y265344D01*
X103354Y265261D01*
X103414Y265181D01*
X103477Y265102D01*
X103544Y265026D01*
X103613Y264953D01*
X103685Y264883D01*
X103759Y264815D01*
X103836Y264750D01*
X103916Y264689D01*
X103998Y264630D01*
X104082Y264575D01*
X104168Y264523D01*
X104256Y264474D01*
X104346Y264429D01*
X104438Y264387D01*
X104531Y264349D01*
X104626Y264315D01*
X104721Y264284D01*
X104818Y264257D01*
X104916Y264234D01*
X105015Y264214D01*
X105115Y264199D01*
X105215Y264187D01*
X105315Y264179D01*
X105416Y264175D01*
X105516Y264175D01*
X105617Y264179D01*
X105717Y264187D01*
X105817Y264199D01*
X105917Y264214D01*
X106016Y264234D01*
X106114Y264257D01*
X106211Y264284D01*
X106306Y264315D01*
X106401Y264349D01*
X106494Y264387D01*
X106586Y264429D01*
X106676Y264474D01*
X106764Y264523D01*
X106850Y264575D01*
X106934Y264630D01*
X107016Y264689D01*
X107096Y264750D01*
X107173Y264815D01*
X107247Y264883D01*
X107319Y264953D01*
X107388Y265026D01*
X107455Y265102D01*
X107518Y265181D01*
X107578Y265261D01*
X107635Y265344D01*
X107689Y265430D01*
X107739Y265517D01*
X107786Y265606D01*
X107829Y265697D01*
X107869Y265789D01*
X107905Y265883D01*
X107938Y265978D01*
X107967Y266075D01*
X107992Y266172D01*
X108013Y266271D01*
X108031Y266370D01*
X108044Y266470D01*
X108054Y266570D01*
X108060Y266670D01*
X108062Y266771D01*
X97169Y262227D02*
X89380Y262227D01*
X84328Y268069D02*
X84328Y269367D01*
X77837Y269367D01*
X81083Y257683D01*
X69328Y269367D02*
X69221Y269365D01*
X69115Y269359D01*
X69009Y269349D01*
X68903Y269336D01*
X68797Y269318D01*
X68693Y269297D01*
X68589Y269272D01*
X68486Y269243D01*
X68385Y269211D01*
X68285Y269174D01*
X68186Y269134D01*
X68088Y269091D01*
X67992Y269044D01*
X67898Y268993D01*
X67806Y268939D01*
X67716Y268882D01*
X67628Y268822D01*
X67543Y268758D01*
X67460Y268691D01*
X67379Y268621D01*
X67301Y268549D01*
X67225Y268473D01*
X67153Y268395D01*
X67083Y268314D01*
X67016Y268231D01*
X66952Y268146D01*
X66892Y268058D01*
X66835Y267968D01*
X66781Y267876D01*
X66730Y267782D01*
X66683Y267686D01*
X66640Y267588D01*
X66600Y267489D01*
X66563Y267389D01*
X66531Y267288D01*
X66502Y267185D01*
X66477Y267081D01*
X66456Y266977D01*
X66438Y266871D01*
X66425Y266765D01*
X66415Y266659D01*
X66409Y266553D01*
X66407Y266446D01*
X69328Y269367D02*
X69449Y269365D01*
X69570Y269359D01*
X69690Y269349D01*
X69811Y269336D01*
X69930Y269318D01*
X70050Y269297D01*
X70168Y269272D01*
X70285Y269243D01*
X70402Y269210D01*
X70517Y269174D01*
X70631Y269133D01*
X70744Y269090D01*
X70856Y269042D01*
X70965Y268991D01*
X71073Y268936D01*
X71180Y268878D01*
X71284Y268817D01*
X71386Y268752D01*
X71486Y268684D01*
X71584Y268613D01*
X71680Y268539D01*
X71773Y268462D01*
X71863Y268381D01*
X71951Y268298D01*
X72036Y268212D01*
X72119Y268123D01*
X72198Y268032D01*
X72275Y267938D01*
X72348Y267842D01*
X72418Y267744D01*
X72485Y267643D01*
X72549Y267540D01*
X72610Y267435D01*
X72667Y267328D01*
X72720Y267220D01*
X72770Y267110D01*
X72816Y266998D01*
X72859Y266885D01*
X72898Y266770D01*
X67381Y264174D02*
X67302Y264252D01*
X67226Y264332D01*
X67153Y264415D01*
X67083Y264501D01*
X67016Y264588D01*
X66952Y264679D01*
X66892Y264771D01*
X66834Y264865D01*
X66780Y264962D01*
X66730Y265060D01*
X66683Y265160D01*
X66639Y265261D01*
X66599Y265364D01*
X66563Y265469D01*
X66531Y265574D01*
X66502Y265681D01*
X66477Y265788D01*
X66455Y265897D01*
X66438Y266006D01*
X66424Y266115D01*
X66415Y266225D01*
X66409Y266336D01*
X66407Y266446D01*
X67381Y264174D02*
X72898Y257683D01*
X66407Y257683D01*
X58223Y257683D02*
X62117Y269367D01*
X54328Y269367D02*
X58223Y257683D01*
X50532Y256385D02*
X45339Y270665D01*
X40894Y266771D02*
X37649Y269367D01*
X37649Y257683D01*
X40894Y257683D02*
X34403Y257683D01*
X22973Y266446D02*
X22975Y266553D01*
X22981Y266659D01*
X22991Y266765D01*
X23004Y266871D01*
X23022Y266977D01*
X23043Y267081D01*
X23068Y267185D01*
X23097Y267288D01*
X23129Y267389D01*
X23166Y267489D01*
X23206Y267588D01*
X23249Y267686D01*
X23296Y267782D01*
X23347Y267876D01*
X23401Y267968D01*
X23458Y268058D01*
X23518Y268146D01*
X23582Y268231D01*
X23649Y268314D01*
X23719Y268395D01*
X23791Y268473D01*
X23867Y268549D01*
X23945Y268621D01*
X24026Y268691D01*
X24109Y268758D01*
X24194Y268822D01*
X24282Y268882D01*
X24372Y268939D01*
X24464Y268993D01*
X24558Y269044D01*
X24654Y269091D01*
X24752Y269134D01*
X24851Y269174D01*
X24951Y269211D01*
X25052Y269243D01*
X25155Y269272D01*
X25259Y269297D01*
X25363Y269318D01*
X25469Y269336D01*
X25575Y269349D01*
X25681Y269359D01*
X25787Y269365D01*
X25894Y269367D01*
X26015Y269365D01*
X26136Y269359D01*
X26256Y269349D01*
X26377Y269336D01*
X26496Y269318D01*
X26616Y269297D01*
X26734Y269272D01*
X26851Y269243D01*
X26968Y269210D01*
X27083Y269174D01*
X27197Y269133D01*
X27310Y269090D01*
X27422Y269042D01*
X27531Y268991D01*
X27639Y268936D01*
X27746Y268878D01*
X27850Y268817D01*
X27952Y268752D01*
X28052Y268684D01*
X28150Y268613D01*
X28246Y268539D01*
X28339Y268462D01*
X28429Y268381D01*
X28517Y268298D01*
X28602Y268212D01*
X28685Y268123D01*
X28764Y268032D01*
X28841Y267938D01*
X28914Y267842D01*
X28984Y267744D01*
X29051Y267643D01*
X29115Y267540D01*
X29176Y267435D01*
X29233Y267328D01*
X29286Y267220D01*
X29336Y267110D01*
X29382Y266998D01*
X29425Y266885D01*
X29464Y266770D01*
X23948Y264174D02*
X23869Y264252D01*
X23793Y264332D01*
X23720Y264415D01*
X23650Y264501D01*
X23583Y264588D01*
X23519Y264679D01*
X23459Y264771D01*
X23401Y264865D01*
X23347Y264962D01*
X23297Y265060D01*
X23250Y265160D01*
X23206Y265261D01*
X23166Y265364D01*
X23130Y265469D01*
X23098Y265574D01*
X23069Y265681D01*
X23044Y265788D01*
X23022Y265897D01*
X23005Y266006D01*
X22991Y266115D01*
X22982Y266225D01*
X22976Y266336D01*
X22974Y266446D01*
X23947Y264174D02*
X29464Y257683D01*
X22973Y257683D01*
X14789Y257683D02*
X18683Y269367D01*
X10894Y269367D02*
X14789Y257683D01*
X130824Y244983D02*
X136017Y244983D01*
X136017Y256667D01*
X130824Y256667D01*
X132122Y251474D02*
X136017Y251474D01*
X123951Y244983D02*
X121355Y244983D01*
X123951Y244983D02*
X124050Y244985D01*
X124150Y244991D01*
X124249Y245000D01*
X124347Y245013D01*
X124445Y245030D01*
X124543Y245051D01*
X124639Y245076D01*
X124734Y245104D01*
X124828Y245136D01*
X124921Y245171D01*
X125013Y245210D01*
X125103Y245253D01*
X125191Y245298D01*
X125278Y245348D01*
X125362Y245400D01*
X125445Y245456D01*
X125525Y245514D01*
X125603Y245576D01*
X125678Y245641D01*
X125751Y245709D01*
X125821Y245779D01*
X125889Y245852D01*
X125954Y245927D01*
X126016Y246005D01*
X126074Y246085D01*
X126130Y246168D01*
X126182Y246252D01*
X126232Y246339D01*
X126277Y246427D01*
X126320Y246517D01*
X126359Y246609D01*
X126394Y246702D01*
X126426Y246796D01*
X126454Y246891D01*
X126479Y246987D01*
X126500Y247085D01*
X126517Y247183D01*
X126530Y247281D01*
X126539Y247380D01*
X126545Y247480D01*
X126547Y247579D01*
X126548Y247579D02*
X126548Y254071D01*
X126547Y254071D02*
X126545Y254170D01*
X126539Y254270D01*
X126530Y254369D01*
X126517Y254467D01*
X126500Y254565D01*
X126479Y254663D01*
X126454Y254759D01*
X126426Y254854D01*
X126394Y254948D01*
X126359Y255041D01*
X126320Y255133D01*
X126277Y255223D01*
X126232Y255311D01*
X126182Y255398D01*
X126130Y255482D01*
X126074Y255565D01*
X126016Y255645D01*
X125954Y255723D01*
X125889Y255798D01*
X125821Y255871D01*
X125751Y255941D01*
X125678Y256009D01*
X125603Y256074D01*
X125525Y256136D01*
X125445Y256194D01*
X125362Y256250D01*
X125278Y256302D01*
X125191Y256352D01*
X125103Y256397D01*
X125013Y256440D01*
X124921Y256479D01*
X124828Y256514D01*
X124734Y256546D01*
X124639Y256574D01*
X124543Y256599D01*
X124445Y256620D01*
X124347Y256637D01*
X124249Y256650D01*
X124150Y256659D01*
X124050Y256665D01*
X123951Y256667D01*
X121355Y256667D01*
X114393Y256667D02*
X116990Y247579D01*
X110499Y247579D01*
X112446Y250176D02*
X112446Y244983D01*
X102046Y244983D02*
X101947Y244985D01*
X101847Y244991D01*
X101748Y245000D01*
X101650Y245013D01*
X101552Y245030D01*
X101454Y245051D01*
X101358Y245076D01*
X101263Y245104D01*
X101169Y245136D01*
X101076Y245171D01*
X100984Y245210D01*
X100894Y245253D01*
X100806Y245298D01*
X100719Y245348D01*
X100635Y245400D01*
X100552Y245456D01*
X100472Y245514D01*
X100394Y245576D01*
X100319Y245641D01*
X100246Y245709D01*
X100176Y245779D01*
X100108Y245852D01*
X100043Y245927D01*
X99981Y246005D01*
X99923Y246085D01*
X99867Y246168D01*
X99815Y246252D01*
X99765Y246339D01*
X99720Y246427D01*
X99677Y246517D01*
X99638Y246609D01*
X99603Y246702D01*
X99571Y246796D01*
X99543Y246891D01*
X99518Y246987D01*
X99497Y247085D01*
X99480Y247183D01*
X99467Y247281D01*
X99458Y247380D01*
X99452Y247480D01*
X99450Y247579D01*
X102046Y244983D02*
X102190Y244985D01*
X102335Y244991D01*
X102479Y245000D01*
X102622Y245013D01*
X102766Y245030D01*
X102909Y245051D01*
X103051Y245076D01*
X103192Y245104D01*
X103333Y245136D01*
X103473Y245172D01*
X103612Y245211D01*
X103750Y245254D01*
X103886Y245301D01*
X104022Y245351D01*
X104156Y245405D01*
X104288Y245462D01*
X104419Y245523D01*
X104548Y245587D01*
X104676Y245655D01*
X104802Y245726D01*
X104926Y245800D01*
X105047Y245877D01*
X105167Y245958D01*
X105285Y246041D01*
X105400Y246128D01*
X105513Y246218D01*
X105624Y246311D01*
X105732Y246406D01*
X105838Y246505D01*
X105941Y246606D01*
X105616Y254071D02*
X105614Y254170D01*
X105608Y254270D01*
X105599Y254369D01*
X105586Y254467D01*
X105569Y254565D01*
X105548Y254663D01*
X105523Y254759D01*
X105495Y254854D01*
X105463Y254948D01*
X105428Y255041D01*
X105389Y255133D01*
X105346Y255223D01*
X105301Y255311D01*
X105251Y255398D01*
X105199Y255482D01*
X105143Y255565D01*
X105085Y255645D01*
X105023Y255723D01*
X104958Y255798D01*
X104890Y255871D01*
X104820Y255941D01*
X104747Y256009D01*
X104672Y256074D01*
X104594Y256136D01*
X104514Y256194D01*
X104431Y256250D01*
X104347Y256302D01*
X104260Y256352D01*
X104172Y256397D01*
X104082Y256440D01*
X103990Y256479D01*
X103897Y256514D01*
X103803Y256546D01*
X103708Y256574D01*
X103612Y256599D01*
X103514Y256620D01*
X103416Y256637D01*
X103318Y256650D01*
X103219Y256659D01*
X103119Y256665D01*
X103020Y256667D01*
X102884Y256665D01*
X102748Y256659D01*
X102612Y256650D01*
X102476Y256637D01*
X102341Y256619D01*
X102207Y256599D01*
X102073Y256574D01*
X101939Y256546D01*
X101807Y256513D01*
X101676Y256478D01*
X101545Y256438D01*
X101416Y256395D01*
X101288Y256349D01*
X101162Y256298D01*
X101036Y256245D01*
X100913Y256187D01*
X100791Y256127D01*
X100671Y256063D01*
X100552Y255995D01*
X100436Y255925D01*
X100322Y255851D01*
X100209Y255774D01*
X100099Y255693D01*
X104318Y251799D02*
X104404Y251852D01*
X104488Y251909D01*
X104570Y251968D01*
X104650Y252031D01*
X104727Y252097D01*
X104802Y252165D01*
X104874Y252237D01*
X104943Y252311D01*
X105009Y252388D01*
X105072Y252467D01*
X105132Y252549D01*
X105189Y252633D01*
X105243Y252719D01*
X105293Y252807D01*
X105340Y252897D01*
X105384Y252988D01*
X105423Y253082D01*
X105460Y253176D01*
X105492Y253272D01*
X105521Y253370D01*
X105546Y253468D01*
X105567Y253567D01*
X105585Y253667D01*
X105598Y253767D01*
X105608Y253868D01*
X105614Y253970D01*
X105616Y254071D01*
X100748Y249851D02*
X100662Y249798D01*
X100578Y249741D01*
X100496Y249682D01*
X100416Y249619D01*
X100339Y249553D01*
X100264Y249485D01*
X100192Y249413D01*
X100123Y249339D01*
X100057Y249262D01*
X99994Y249183D01*
X99934Y249101D01*
X99877Y249017D01*
X99823Y248931D01*
X99773Y248843D01*
X99726Y248753D01*
X99682Y248662D01*
X99643Y248568D01*
X99606Y248474D01*
X99574Y248378D01*
X99545Y248280D01*
X99520Y248182D01*
X99499Y248083D01*
X99481Y247983D01*
X99468Y247883D01*
X99458Y247782D01*
X99452Y247680D01*
X99450Y247579D01*
X100748Y249851D02*
X104318Y251799D01*
X94341Y251474D02*
X91096Y251474D01*
X91096Y251475D02*
X90983Y251473D01*
X90870Y251467D01*
X90757Y251457D01*
X90644Y251443D01*
X90532Y251426D01*
X90421Y251404D01*
X90311Y251379D01*
X90201Y251349D01*
X90093Y251316D01*
X89986Y251279D01*
X89880Y251239D01*
X89776Y251194D01*
X89673Y251146D01*
X89572Y251095D01*
X89473Y251040D01*
X89376Y250982D01*
X89281Y250920D01*
X89188Y250855D01*
X89098Y250787D01*
X89010Y250716D01*
X88924Y250641D01*
X88841Y250564D01*
X88761Y250484D01*
X88684Y250401D01*
X88609Y250315D01*
X88538Y250227D01*
X88470Y250137D01*
X88405Y250044D01*
X88343Y249949D01*
X88285Y249852D01*
X88230Y249753D01*
X88179Y249652D01*
X88131Y249549D01*
X88086Y249445D01*
X88046Y249339D01*
X88009Y249232D01*
X87976Y249124D01*
X87946Y249014D01*
X87921Y248904D01*
X87899Y248793D01*
X87882Y248681D01*
X87868Y248568D01*
X87858Y248455D01*
X87852Y248342D01*
X87850Y248229D01*
X87852Y248116D01*
X87858Y248003D01*
X87868Y247890D01*
X87882Y247777D01*
X87899Y247665D01*
X87921Y247554D01*
X87946Y247444D01*
X87976Y247334D01*
X88009Y247226D01*
X88046Y247119D01*
X88086Y247013D01*
X88131Y246909D01*
X88179Y246806D01*
X88230Y246705D01*
X88285Y246606D01*
X88343Y246509D01*
X88405Y246414D01*
X88470Y246321D01*
X88538Y246231D01*
X88609Y246143D01*
X88684Y246057D01*
X88761Y245974D01*
X88841Y245894D01*
X88924Y245817D01*
X89010Y245742D01*
X89098Y245671D01*
X89188Y245603D01*
X89281Y245538D01*
X89376Y245476D01*
X89473Y245418D01*
X89572Y245363D01*
X89673Y245312D01*
X89776Y245264D01*
X89880Y245219D01*
X89986Y245179D01*
X90093Y245142D01*
X90201Y245109D01*
X90311Y245079D01*
X90421Y245054D01*
X90532Y245032D01*
X90644Y245015D01*
X90757Y245001D01*
X90870Y244991D01*
X90983Y244985D01*
X91096Y244983D01*
X94341Y244983D01*
X94341Y256667D01*
X91096Y256667D01*
X90995Y256665D01*
X90895Y256659D01*
X90795Y256649D01*
X90695Y256636D01*
X90596Y256618D01*
X90497Y256597D01*
X90400Y256572D01*
X90303Y256543D01*
X90208Y256510D01*
X90114Y256474D01*
X90022Y256434D01*
X89931Y256391D01*
X89842Y256344D01*
X89755Y256294D01*
X89669Y256240D01*
X89586Y256183D01*
X89506Y256123D01*
X89427Y256060D01*
X89351Y255993D01*
X89278Y255924D01*
X89208Y255852D01*
X89140Y255778D01*
X89075Y255701D01*
X89014Y255621D01*
X88955Y255539D01*
X88900Y255455D01*
X88848Y255369D01*
X88799Y255281D01*
X88754Y255191D01*
X88712Y255099D01*
X88674Y255006D01*
X88640Y254911D01*
X88609Y254816D01*
X88582Y254719D01*
X88559Y254621D01*
X88539Y254522D01*
X88524Y254422D01*
X88512Y254322D01*
X88504Y254222D01*
X88500Y254121D01*
X88500Y254021D01*
X88504Y253920D01*
X88512Y253820D01*
X88524Y253720D01*
X88539Y253620D01*
X88559Y253521D01*
X88582Y253423D01*
X88609Y253326D01*
X88640Y253231D01*
X88674Y253136D01*
X88712Y253043D01*
X88754Y252951D01*
X88799Y252861D01*
X88848Y252773D01*
X88900Y252687D01*
X88955Y252603D01*
X89014Y252521D01*
X89075Y252441D01*
X89140Y252364D01*
X89208Y252290D01*
X89278Y252218D01*
X89351Y252149D01*
X89427Y252082D01*
X89506Y252019D01*
X89586Y251959D01*
X89669Y251902D01*
X89755Y251848D01*
X89842Y251798D01*
X89931Y251751D01*
X90022Y251708D01*
X90114Y251668D01*
X90208Y251632D01*
X90303Y251599D01*
X90400Y251570D01*
X90497Y251545D01*
X90596Y251524D01*
X90695Y251506D01*
X90795Y251493D01*
X90895Y251483D01*
X90995Y251477D01*
X91096Y251475D01*
X83885Y256667D02*
X81289Y244983D01*
X78692Y252772D01*
X76096Y244983D01*
X73499Y256667D01*
X68871Y249527D02*
X61081Y249527D01*
X56030Y247579D02*
X53433Y256667D01*
X56030Y247579D02*
X49539Y247579D01*
X51486Y250176D02*
X51486Y244983D01*
X44600Y248229D02*
X44598Y248342D01*
X44592Y248455D01*
X44582Y248568D01*
X44568Y248681D01*
X44551Y248793D01*
X44529Y248904D01*
X44504Y249014D01*
X44474Y249124D01*
X44441Y249232D01*
X44404Y249339D01*
X44364Y249445D01*
X44319Y249549D01*
X44271Y249652D01*
X44220Y249753D01*
X44165Y249852D01*
X44107Y249949D01*
X44045Y250044D01*
X43980Y250137D01*
X43912Y250227D01*
X43841Y250315D01*
X43766Y250401D01*
X43689Y250484D01*
X43609Y250564D01*
X43526Y250641D01*
X43440Y250716D01*
X43352Y250787D01*
X43262Y250855D01*
X43169Y250920D01*
X43074Y250982D01*
X42977Y251040D01*
X42878Y251095D01*
X42777Y251146D01*
X42674Y251194D01*
X42570Y251239D01*
X42464Y251279D01*
X42357Y251316D01*
X42249Y251349D01*
X42139Y251379D01*
X42029Y251404D01*
X41918Y251426D01*
X41806Y251443D01*
X41693Y251457D01*
X41580Y251467D01*
X41467Y251473D01*
X41354Y251475D01*
X41241Y251473D01*
X41128Y251467D01*
X41015Y251457D01*
X40902Y251443D01*
X40790Y251426D01*
X40679Y251404D01*
X40569Y251379D01*
X40459Y251349D01*
X40351Y251316D01*
X40244Y251279D01*
X40138Y251239D01*
X40034Y251194D01*
X39931Y251146D01*
X39830Y251095D01*
X39731Y251040D01*
X39634Y250982D01*
X39539Y250920D01*
X39446Y250855D01*
X39356Y250787D01*
X39268Y250716D01*
X39182Y250641D01*
X39099Y250564D01*
X39019Y250484D01*
X38942Y250401D01*
X38867Y250315D01*
X38796Y250227D01*
X38728Y250137D01*
X38663Y250044D01*
X38601Y249949D01*
X38543Y249852D01*
X38488Y249753D01*
X38437Y249652D01*
X38389Y249549D01*
X38344Y249445D01*
X38304Y249339D01*
X38267Y249232D01*
X38234Y249124D01*
X38204Y249014D01*
X38179Y248904D01*
X38157Y248793D01*
X38140Y248681D01*
X38126Y248568D01*
X38116Y248455D01*
X38110Y248342D01*
X38108Y248229D01*
X38110Y248116D01*
X38116Y248003D01*
X38126Y247890D01*
X38140Y247777D01*
X38157Y247665D01*
X38179Y247554D01*
X38204Y247444D01*
X38234Y247334D01*
X38267Y247226D01*
X38304Y247119D01*
X38344Y247013D01*
X38389Y246909D01*
X38437Y246806D01*
X38488Y246705D01*
X38543Y246606D01*
X38601Y246509D01*
X38663Y246414D01*
X38728Y246321D01*
X38796Y246231D01*
X38867Y246143D01*
X38942Y246057D01*
X39019Y245974D01*
X39099Y245894D01*
X39182Y245817D01*
X39268Y245742D01*
X39356Y245671D01*
X39446Y245603D01*
X39539Y245538D01*
X39634Y245476D01*
X39731Y245418D01*
X39830Y245363D01*
X39931Y245312D01*
X40034Y245264D01*
X40138Y245219D01*
X40244Y245179D01*
X40351Y245142D01*
X40459Y245109D01*
X40569Y245079D01*
X40679Y245054D01*
X40790Y245032D01*
X40902Y245015D01*
X41015Y245001D01*
X41128Y244991D01*
X41241Y244985D01*
X41354Y244983D01*
X41467Y244985D01*
X41580Y244991D01*
X41693Y245001D01*
X41806Y245015D01*
X41918Y245032D01*
X42029Y245054D01*
X42139Y245079D01*
X42249Y245109D01*
X42357Y245142D01*
X42464Y245179D01*
X42570Y245219D01*
X42674Y245264D01*
X42777Y245312D01*
X42878Y245363D01*
X42977Y245418D01*
X43074Y245476D01*
X43169Y245538D01*
X43262Y245603D01*
X43352Y245671D01*
X43440Y245742D01*
X43526Y245817D01*
X43609Y245894D01*
X43689Y245974D01*
X43766Y246057D01*
X43841Y246143D01*
X43912Y246231D01*
X43980Y246321D01*
X44045Y246414D01*
X44107Y246509D01*
X44165Y246606D01*
X44220Y246705D01*
X44271Y246806D01*
X44319Y246909D01*
X44364Y247013D01*
X44404Y247119D01*
X44441Y247226D01*
X44474Y247334D01*
X44504Y247444D01*
X44529Y247554D01*
X44551Y247665D01*
X44568Y247777D01*
X44582Y247890D01*
X44592Y248003D01*
X44598Y248116D01*
X44600Y248229D01*
X43950Y254071D02*
X43948Y254172D01*
X43942Y254272D01*
X43932Y254372D01*
X43919Y254472D01*
X43901Y254571D01*
X43880Y254670D01*
X43855Y254767D01*
X43826Y254864D01*
X43793Y254959D01*
X43757Y255053D01*
X43717Y255145D01*
X43674Y255236D01*
X43627Y255325D01*
X43577Y255412D01*
X43523Y255498D01*
X43466Y255581D01*
X43406Y255661D01*
X43343Y255740D01*
X43276Y255816D01*
X43207Y255889D01*
X43135Y255959D01*
X43061Y256027D01*
X42984Y256092D01*
X42904Y256153D01*
X42822Y256212D01*
X42738Y256267D01*
X42652Y256319D01*
X42564Y256368D01*
X42474Y256413D01*
X42382Y256455D01*
X42289Y256493D01*
X42194Y256527D01*
X42099Y256558D01*
X42002Y256585D01*
X41904Y256608D01*
X41805Y256628D01*
X41705Y256643D01*
X41605Y256655D01*
X41505Y256663D01*
X41404Y256667D01*
X41304Y256667D01*
X41203Y256663D01*
X41103Y256655D01*
X41003Y256643D01*
X40903Y256628D01*
X40804Y256608D01*
X40706Y256585D01*
X40609Y256558D01*
X40514Y256527D01*
X40419Y256493D01*
X40326Y256455D01*
X40234Y256413D01*
X40144Y256368D01*
X40056Y256319D01*
X39970Y256267D01*
X39886Y256212D01*
X39804Y256153D01*
X39724Y256092D01*
X39647Y256027D01*
X39573Y255959D01*
X39501Y255889D01*
X39432Y255816D01*
X39365Y255740D01*
X39302Y255661D01*
X39242Y255581D01*
X39185Y255498D01*
X39131Y255412D01*
X39081Y255325D01*
X39034Y255236D01*
X38991Y255145D01*
X38951Y255053D01*
X38915Y254959D01*
X38882Y254864D01*
X38853Y254767D01*
X38828Y254670D01*
X38807Y254571D01*
X38789Y254472D01*
X38776Y254372D01*
X38766Y254272D01*
X38760Y254172D01*
X38758Y254071D01*
X38760Y253970D01*
X38766Y253870D01*
X38776Y253770D01*
X38789Y253670D01*
X38807Y253571D01*
X38828Y253472D01*
X38853Y253375D01*
X38882Y253278D01*
X38915Y253183D01*
X38951Y253089D01*
X38991Y252997D01*
X39034Y252906D01*
X39081Y252817D01*
X39131Y252730D01*
X39185Y252644D01*
X39242Y252561D01*
X39302Y252481D01*
X39365Y252402D01*
X39432Y252326D01*
X39501Y252253D01*
X39573Y252183D01*
X39647Y252115D01*
X39724Y252050D01*
X39804Y251989D01*
X39886Y251930D01*
X39970Y251875D01*
X40056Y251823D01*
X40144Y251774D01*
X40234Y251729D01*
X40326Y251687D01*
X40419Y251649D01*
X40514Y251615D01*
X40609Y251584D01*
X40706Y251557D01*
X40804Y251534D01*
X40903Y251514D01*
X41003Y251499D01*
X41103Y251487D01*
X41203Y251479D01*
X41304Y251475D01*
X41404Y251475D01*
X41505Y251479D01*
X41605Y251487D01*
X41705Y251499D01*
X41805Y251514D01*
X41904Y251534D01*
X42002Y251557D01*
X42099Y251584D01*
X42194Y251615D01*
X42289Y251649D01*
X42382Y251687D01*
X42474Y251729D01*
X42564Y251774D01*
X42652Y251823D01*
X42738Y251875D01*
X42822Y251930D01*
X42904Y251989D01*
X42984Y252050D01*
X43061Y252115D01*
X43135Y252183D01*
X43207Y252253D01*
X43276Y252326D01*
X43343Y252402D01*
X43406Y252481D01*
X43466Y252561D01*
X43523Y252644D01*
X43577Y252730D01*
X43627Y252817D01*
X43674Y252906D01*
X43717Y252997D01*
X43757Y253089D01*
X43793Y253183D01*
X43826Y253278D01*
X43855Y253375D01*
X43880Y253472D01*
X43901Y253571D01*
X43919Y253670D01*
X43932Y253770D01*
X43942Y253870D01*
X43948Y253970D01*
X43950Y254071D01*
X29656Y244983D02*
X29557Y244985D01*
X29457Y244991D01*
X29358Y245000D01*
X29260Y245013D01*
X29162Y245030D01*
X29064Y245051D01*
X28968Y245076D01*
X28873Y245104D01*
X28779Y245136D01*
X28686Y245171D01*
X28594Y245210D01*
X28504Y245253D01*
X28416Y245298D01*
X28329Y245348D01*
X28245Y245400D01*
X28162Y245456D01*
X28082Y245514D01*
X28004Y245576D01*
X27929Y245641D01*
X27856Y245709D01*
X27786Y245779D01*
X27718Y245852D01*
X27653Y245927D01*
X27591Y246005D01*
X27533Y246085D01*
X27477Y246168D01*
X27425Y246252D01*
X27375Y246339D01*
X27330Y246427D01*
X27287Y246517D01*
X27248Y246609D01*
X27213Y246702D01*
X27181Y246796D01*
X27153Y246891D01*
X27128Y246987D01*
X27107Y247085D01*
X27090Y247183D01*
X27077Y247281D01*
X27068Y247380D01*
X27062Y247480D01*
X27060Y247579D01*
X29656Y244983D02*
X29800Y244985D01*
X29945Y244991D01*
X30089Y245000D01*
X30232Y245013D01*
X30376Y245030D01*
X30519Y245051D01*
X30661Y245076D01*
X30802Y245104D01*
X30943Y245136D01*
X31083Y245172D01*
X31222Y245211D01*
X31360Y245254D01*
X31496Y245301D01*
X31632Y245351D01*
X31766Y245405D01*
X31898Y245462D01*
X32029Y245523D01*
X32158Y245587D01*
X32286Y245655D01*
X32412Y245726D01*
X32536Y245800D01*
X32657Y245877D01*
X32777Y245958D01*
X32895Y246041D01*
X33010Y246128D01*
X33123Y246218D01*
X33234Y246311D01*
X33342Y246406D01*
X33448Y246505D01*
X33551Y246606D01*
X33226Y254071D02*
X33224Y254170D01*
X33218Y254270D01*
X33209Y254369D01*
X33196Y254467D01*
X33179Y254565D01*
X33158Y254663D01*
X33133Y254759D01*
X33105Y254854D01*
X33073Y254948D01*
X33038Y255041D01*
X32999Y255133D01*
X32956Y255223D01*
X32911Y255311D01*
X32861Y255398D01*
X32809Y255482D01*
X32753Y255565D01*
X32695Y255645D01*
X32633Y255723D01*
X32568Y255798D01*
X32500Y255871D01*
X32430Y255941D01*
X32357Y256009D01*
X32282Y256074D01*
X32204Y256136D01*
X32124Y256194D01*
X32041Y256250D01*
X31957Y256302D01*
X31870Y256352D01*
X31782Y256397D01*
X31692Y256440D01*
X31600Y256479D01*
X31507Y256514D01*
X31413Y256546D01*
X31318Y256574D01*
X31222Y256599D01*
X31124Y256620D01*
X31026Y256637D01*
X30928Y256650D01*
X30829Y256659D01*
X30729Y256665D01*
X30630Y256667D01*
X30494Y256665D01*
X30358Y256659D01*
X30222Y256650D01*
X30086Y256637D01*
X29951Y256619D01*
X29817Y256599D01*
X29683Y256574D01*
X29549Y256546D01*
X29417Y256513D01*
X29286Y256478D01*
X29155Y256438D01*
X29026Y256395D01*
X28898Y256349D01*
X28772Y256298D01*
X28646Y256245D01*
X28523Y256187D01*
X28401Y256127D01*
X28281Y256063D01*
X28162Y255995D01*
X28046Y255925D01*
X27932Y255851D01*
X27819Y255774D01*
X27709Y255693D01*
X31928Y251799D02*
X32014Y251852D01*
X32098Y251909D01*
X32180Y251968D01*
X32260Y252031D01*
X32337Y252097D01*
X32412Y252165D01*
X32484Y252237D01*
X32553Y252311D01*
X32619Y252388D01*
X32682Y252467D01*
X32742Y252549D01*
X32799Y252633D01*
X32853Y252719D01*
X32903Y252807D01*
X32950Y252897D01*
X32994Y252988D01*
X33033Y253082D01*
X33070Y253176D01*
X33102Y253272D01*
X33131Y253370D01*
X33156Y253468D01*
X33177Y253567D01*
X33195Y253667D01*
X33208Y253767D01*
X33218Y253868D01*
X33224Y253970D01*
X33226Y254071D01*
X28358Y249851D02*
X28272Y249798D01*
X28188Y249741D01*
X28106Y249682D01*
X28026Y249619D01*
X27949Y249553D01*
X27874Y249485D01*
X27802Y249413D01*
X27733Y249339D01*
X27667Y249262D01*
X27604Y249183D01*
X27544Y249101D01*
X27487Y249017D01*
X27433Y248931D01*
X27383Y248843D01*
X27336Y248753D01*
X27292Y248662D01*
X27253Y248568D01*
X27216Y248474D01*
X27184Y248378D01*
X27155Y248280D01*
X27130Y248182D01*
X27109Y248083D01*
X27091Y247983D01*
X27078Y247883D01*
X27068Y247782D01*
X27062Y247680D01*
X27060Y247579D01*
X28358Y249851D02*
X31928Y251799D01*
X22502Y254071D02*
X19256Y256667D01*
X19256Y244983D01*
X16011Y244983D02*
X22502Y244983D01*
X7502Y256667D02*
X7395Y256665D01*
X7289Y256659D01*
X7183Y256649D01*
X7077Y256636D01*
X6971Y256618D01*
X6867Y256597D01*
X6763Y256572D01*
X6660Y256543D01*
X6559Y256511D01*
X6459Y256474D01*
X6360Y256434D01*
X6262Y256391D01*
X6166Y256344D01*
X6072Y256293D01*
X5980Y256239D01*
X5890Y256182D01*
X5802Y256122D01*
X5717Y256058D01*
X5634Y255991D01*
X5553Y255921D01*
X5475Y255849D01*
X5399Y255773D01*
X5327Y255695D01*
X5257Y255614D01*
X5190Y255531D01*
X5126Y255446D01*
X5066Y255358D01*
X5009Y255268D01*
X4955Y255176D01*
X4904Y255082D01*
X4857Y254986D01*
X4814Y254888D01*
X4774Y254789D01*
X4737Y254689D01*
X4705Y254588D01*
X4676Y254485D01*
X4651Y254381D01*
X4630Y254277D01*
X4612Y254171D01*
X4599Y254065D01*
X4589Y253959D01*
X4583Y253853D01*
X4581Y253746D01*
X7502Y256667D02*
X7623Y256665D01*
X7744Y256659D01*
X7864Y256649D01*
X7985Y256636D01*
X8104Y256618D01*
X8224Y256597D01*
X8342Y256572D01*
X8459Y256543D01*
X8576Y256510D01*
X8691Y256474D01*
X8805Y256433D01*
X8918Y256390D01*
X9030Y256342D01*
X9139Y256291D01*
X9247Y256236D01*
X9354Y256178D01*
X9458Y256117D01*
X9560Y256052D01*
X9660Y255984D01*
X9758Y255913D01*
X9854Y255839D01*
X9947Y255762D01*
X10037Y255681D01*
X10125Y255598D01*
X10210Y255512D01*
X10293Y255423D01*
X10372Y255332D01*
X10449Y255238D01*
X10522Y255142D01*
X10592Y255044D01*
X10659Y254943D01*
X10723Y254840D01*
X10784Y254735D01*
X10841Y254628D01*
X10894Y254520D01*
X10944Y254410D01*
X10990Y254298D01*
X11033Y254185D01*
X11072Y254070D01*
X5555Y251474D02*
X5476Y251552D01*
X5400Y251632D01*
X5327Y251715D01*
X5257Y251801D01*
X5190Y251888D01*
X5126Y251979D01*
X5066Y252071D01*
X5008Y252165D01*
X4954Y252262D01*
X4904Y252360D01*
X4857Y252460D01*
X4813Y252561D01*
X4773Y252664D01*
X4737Y252769D01*
X4705Y252874D01*
X4676Y252981D01*
X4651Y253088D01*
X4629Y253197D01*
X4612Y253306D01*
X4598Y253415D01*
X4589Y253525D01*
X4583Y253636D01*
X4581Y253746D01*
X5554Y251474D02*
X11072Y244983D01*
X4581Y244983D01*
D11*
X128016Y8178D02*
X136144Y8178D01*
X131628Y10887D01*
X136144Y13596D01*
X128016Y13596D01*
X128016Y17713D02*
X136144Y17713D01*
X136144Y21326D01*
X132532Y21326D02*
X132532Y17713D01*
X136144Y24648D02*
X128016Y24648D01*
X136144Y24648D02*
X136144Y28260D01*
X132532Y28260D02*
X132532Y24648D01*
X128016Y33741D02*
X128018Y33824D01*
X128024Y33908D01*
X128033Y33991D01*
X128047Y34073D01*
X128064Y34155D01*
X128085Y34235D01*
X128110Y34315D01*
X128138Y34393D01*
X128170Y34471D01*
X128205Y34546D01*
X128244Y34620D01*
X128287Y34692D01*
X128332Y34762D01*
X128381Y34829D01*
X128433Y34895D01*
X128487Y34958D01*
X128545Y35018D01*
X128605Y35076D01*
X128668Y35130D01*
X128734Y35182D01*
X128801Y35231D01*
X128871Y35276D01*
X128943Y35319D01*
X129017Y35358D01*
X129093Y35393D01*
X129170Y35425D01*
X129248Y35453D01*
X129328Y35478D01*
X129409Y35499D01*
X129490Y35516D01*
X129572Y35530D01*
X129655Y35539D01*
X129739Y35545D01*
X129822Y35547D01*
X128016Y33741D02*
X128018Y33621D01*
X128024Y33500D01*
X128033Y33380D01*
X128046Y33260D01*
X128063Y33141D01*
X128084Y33022D01*
X128109Y32904D01*
X128137Y32787D01*
X128169Y32671D01*
X128205Y32556D01*
X128244Y32442D01*
X128287Y32329D01*
X128333Y32218D01*
X128383Y32109D01*
X128436Y32000D01*
X128493Y31894D01*
X128553Y31790D01*
X128616Y31687D01*
X128683Y31587D01*
X128752Y31488D01*
X128825Y31392D01*
X128900Y31298D01*
X128979Y31207D01*
X129061Y31118D01*
X129145Y31032D01*
X134338Y31258D02*
X134421Y31260D01*
X134505Y31266D01*
X134588Y31275D01*
X134670Y31289D01*
X134751Y31306D01*
X134832Y31327D01*
X134912Y31352D01*
X134990Y31380D01*
X135067Y31412D01*
X135143Y31447D01*
X135217Y31486D01*
X135289Y31529D01*
X135359Y31574D01*
X135426Y31623D01*
X135492Y31675D01*
X135555Y31729D01*
X135615Y31787D01*
X135673Y31847D01*
X135727Y31910D01*
X135779Y31976D01*
X135828Y32043D01*
X135873Y32113D01*
X135916Y32185D01*
X135955Y32259D01*
X135990Y32335D01*
X136022Y32412D01*
X136050Y32490D01*
X136075Y32570D01*
X136096Y32651D01*
X136113Y32732D01*
X136127Y32814D01*
X136136Y32897D01*
X136142Y32981D01*
X136144Y33064D01*
X136142Y33179D01*
X136136Y33293D01*
X136127Y33408D01*
X136113Y33521D01*
X136096Y33635D01*
X136074Y33748D01*
X136049Y33859D01*
X136020Y33971D01*
X135988Y34081D01*
X135952Y34189D01*
X135912Y34297D01*
X135868Y34403D01*
X135821Y34508D01*
X135770Y34610D01*
X135716Y34712D01*
X135659Y34811D01*
X135598Y34908D01*
X135534Y35003D01*
X135467Y35096D01*
X132758Y32161D02*
X132802Y32091D01*
X132848Y32022D01*
X132898Y31956D01*
X132951Y31892D01*
X133006Y31831D01*
X133065Y31772D01*
X133126Y31716D01*
X133189Y31663D01*
X133255Y31612D01*
X133322Y31565D01*
X133392Y31521D01*
X133464Y31480D01*
X133538Y31442D01*
X133613Y31407D01*
X133690Y31376D01*
X133768Y31349D01*
X133847Y31325D01*
X133928Y31305D01*
X134009Y31288D01*
X134090Y31275D01*
X134173Y31265D01*
X134255Y31260D01*
X134338Y31258D01*
X131402Y34644D02*
X131358Y34714D01*
X131312Y34783D01*
X131262Y34849D01*
X131209Y34913D01*
X131154Y34974D01*
X131095Y35033D01*
X131034Y35089D01*
X130971Y35142D01*
X130905Y35193D01*
X130838Y35240D01*
X130768Y35284D01*
X130696Y35325D01*
X130622Y35363D01*
X130547Y35398D01*
X130470Y35429D01*
X130392Y35456D01*
X130313Y35480D01*
X130232Y35500D01*
X130151Y35517D01*
X130070Y35530D01*
X129987Y35540D01*
X129905Y35545D01*
X129822Y35547D01*
X131403Y34644D02*
X132757Y32161D01*
X136144Y39115D02*
X128016Y39115D01*
X131628Y41824D02*
X136144Y39115D01*
X131628Y41824D02*
X136144Y44533D01*
X128016Y44533D01*
X128016Y48650D02*
X136144Y48650D01*
X136144Y52263D01*
X132532Y52263D02*
X132532Y48650D01*
X132080Y55302D02*
X132240Y55304D01*
X132400Y55310D01*
X132559Y55319D01*
X132719Y55333D01*
X132878Y55350D01*
X133036Y55371D01*
X133194Y55395D01*
X133351Y55424D01*
X133508Y55456D01*
X133664Y55492D01*
X133819Y55532D01*
X133973Y55575D01*
X134126Y55622D01*
X134277Y55673D01*
X134428Y55727D01*
X134577Y55785D01*
X134724Y55846D01*
X134870Y55911D01*
X135015Y55979D01*
X135015Y55978D02*
X135090Y56006D01*
X135163Y56037D01*
X135235Y56072D01*
X135305Y56110D01*
X135373Y56151D01*
X135439Y56196D01*
X135503Y56243D01*
X135565Y56294D01*
X135624Y56347D01*
X135680Y56404D01*
X135734Y56463D01*
X135785Y56524D01*
X135833Y56588D01*
X135878Y56654D01*
X135919Y56722D01*
X135957Y56792D01*
X135992Y56863D01*
X136024Y56937D01*
X136052Y57011D01*
X136076Y57087D01*
X136097Y57164D01*
X136114Y57242D01*
X136127Y57321D01*
X136136Y57400D01*
X136142Y57479D01*
X136144Y57559D01*
X136142Y57639D01*
X136136Y57718D01*
X136127Y57797D01*
X136114Y57876D01*
X136097Y57954D01*
X136076Y58031D01*
X136052Y58107D01*
X136024Y58181D01*
X135992Y58255D01*
X135957Y58326D01*
X135919Y58396D01*
X135878Y58464D01*
X135833Y58530D01*
X135785Y58594D01*
X135734Y58655D01*
X135680Y58714D01*
X135624Y58771D01*
X135565Y58824D01*
X135503Y58875D01*
X135439Y58922D01*
X135373Y58967D01*
X135305Y59008D01*
X135235Y59046D01*
X135163Y59081D01*
X135090Y59112D01*
X135015Y59140D01*
X134870Y59208D01*
X134724Y59273D01*
X134577Y59334D01*
X134428Y59392D01*
X134277Y59446D01*
X134126Y59497D01*
X133973Y59544D01*
X133819Y59587D01*
X133664Y59627D01*
X133508Y59663D01*
X133351Y59695D01*
X133194Y59724D01*
X133036Y59748D01*
X132878Y59769D01*
X132719Y59786D01*
X132559Y59800D01*
X132400Y59809D01*
X132240Y59815D01*
X132080Y59817D01*
X132080Y55302D02*
X131920Y55304D01*
X131760Y55310D01*
X131601Y55319D01*
X131441Y55333D01*
X131282Y55350D01*
X131124Y55371D01*
X130966Y55395D01*
X130809Y55424D01*
X130652Y55456D01*
X130496Y55492D01*
X130341Y55532D01*
X130187Y55575D01*
X130035Y55622D01*
X129883Y55673D01*
X129732Y55727D01*
X129583Y55785D01*
X129436Y55846D01*
X129290Y55911D01*
X129145Y55979D01*
X129145Y55978D02*
X129070Y56006D01*
X128997Y56037D01*
X128925Y56072D01*
X128855Y56110D01*
X128787Y56151D01*
X128721Y56196D01*
X128657Y56243D01*
X128595Y56294D01*
X128536Y56347D01*
X128480Y56404D01*
X128426Y56463D01*
X128375Y56524D01*
X128327Y56588D01*
X128282Y56654D01*
X128241Y56722D01*
X128203Y56792D01*
X128168Y56863D01*
X128136Y56937D01*
X128108Y57011D01*
X128084Y57087D01*
X128063Y57164D01*
X128046Y57242D01*
X128033Y57321D01*
X128024Y57400D01*
X128018Y57479D01*
X128016Y57559D01*
X129145Y59140D02*
X129290Y59208D01*
X129436Y59273D01*
X129583Y59334D01*
X129732Y59392D01*
X129883Y59446D01*
X130035Y59497D01*
X130187Y59544D01*
X130341Y59587D01*
X130496Y59627D01*
X130652Y59663D01*
X130809Y59695D01*
X130966Y59724D01*
X131124Y59748D01*
X131282Y59769D01*
X131441Y59786D01*
X131601Y59800D01*
X131760Y59809D01*
X131920Y59815D01*
X132080Y59817D01*
X129145Y59140D02*
X129070Y59112D01*
X128997Y59081D01*
X128925Y59046D01*
X128855Y59008D01*
X128787Y58967D01*
X128721Y58922D01*
X128657Y58875D01*
X128595Y58824D01*
X128536Y58771D01*
X128480Y58714D01*
X128426Y58655D01*
X128375Y58594D01*
X128327Y58530D01*
X128282Y58464D01*
X128241Y58396D01*
X128203Y58326D01*
X128168Y58255D01*
X128136Y58181D01*
X128108Y58107D01*
X128084Y58031D01*
X128063Y57954D01*
X128046Y57876D01*
X128033Y57797D01*
X128024Y57718D01*
X128018Y57639D01*
X128016Y57559D01*
X129822Y55753D02*
X134338Y59366D01*
X128016Y63303D02*
X128016Y66012D01*
X128018Y66095D01*
X128024Y66179D01*
X128033Y66262D01*
X128047Y66344D01*
X128064Y66425D01*
X128085Y66506D01*
X128110Y66586D01*
X128138Y66664D01*
X128170Y66741D01*
X128205Y66817D01*
X128244Y66891D01*
X128287Y66963D01*
X128332Y67033D01*
X128381Y67100D01*
X128433Y67166D01*
X128487Y67229D01*
X128545Y67289D01*
X128605Y67347D01*
X128668Y67401D01*
X128734Y67453D01*
X128801Y67502D01*
X128871Y67548D01*
X128943Y67590D01*
X129017Y67629D01*
X129093Y67664D01*
X129170Y67696D01*
X129248Y67724D01*
X129328Y67749D01*
X129409Y67770D01*
X129490Y67787D01*
X129573Y67801D01*
X129655Y67810D01*
X129739Y67816D01*
X129822Y67818D01*
X130725Y67818D01*
X130808Y67816D01*
X130892Y67810D01*
X130975Y67801D01*
X131057Y67787D01*
X131138Y67770D01*
X131219Y67749D01*
X131299Y67724D01*
X131377Y67696D01*
X131454Y67664D01*
X131530Y67629D01*
X131604Y67590D01*
X131676Y67547D01*
X131746Y67502D01*
X131813Y67453D01*
X131879Y67401D01*
X131942Y67347D01*
X132002Y67289D01*
X132060Y67229D01*
X132114Y67166D01*
X132166Y67100D01*
X132215Y67033D01*
X132260Y66963D01*
X132303Y66891D01*
X132342Y66817D01*
X132377Y66741D01*
X132409Y66664D01*
X132437Y66586D01*
X132462Y66506D01*
X132483Y66425D01*
X132500Y66344D01*
X132514Y66262D01*
X132523Y66179D01*
X132529Y66095D01*
X132531Y66012D01*
X132532Y66012D02*
X132532Y63303D01*
X136144Y63303D01*
X136144Y67818D01*
X135015Y71981D02*
X134870Y71913D01*
X134724Y71848D01*
X134577Y71787D01*
X134428Y71729D01*
X134277Y71675D01*
X134126Y71624D01*
X133973Y71577D01*
X133819Y71534D01*
X133664Y71494D01*
X133508Y71458D01*
X133351Y71426D01*
X133194Y71397D01*
X133036Y71373D01*
X132878Y71352D01*
X132719Y71335D01*
X132559Y71321D01*
X132400Y71312D01*
X132240Y71306D01*
X132080Y71304D01*
X135015Y71980D02*
X135090Y72008D01*
X135163Y72039D01*
X135235Y72074D01*
X135305Y72112D01*
X135373Y72153D01*
X135439Y72198D01*
X135503Y72245D01*
X135565Y72296D01*
X135624Y72349D01*
X135680Y72406D01*
X135734Y72465D01*
X135785Y72526D01*
X135833Y72590D01*
X135878Y72656D01*
X135919Y72724D01*
X135957Y72794D01*
X135992Y72865D01*
X136024Y72939D01*
X136052Y73013D01*
X136076Y73089D01*
X136097Y73166D01*
X136114Y73244D01*
X136127Y73323D01*
X136136Y73402D01*
X136142Y73481D01*
X136144Y73561D01*
X136142Y73641D01*
X136136Y73720D01*
X136127Y73799D01*
X136114Y73878D01*
X136097Y73956D01*
X136076Y74033D01*
X136052Y74109D01*
X136024Y74183D01*
X135992Y74257D01*
X135957Y74328D01*
X135919Y74398D01*
X135878Y74466D01*
X135833Y74532D01*
X135785Y74596D01*
X135734Y74657D01*
X135680Y74716D01*
X135624Y74773D01*
X135565Y74826D01*
X135503Y74877D01*
X135439Y74924D01*
X135373Y74969D01*
X135305Y75010D01*
X135235Y75048D01*
X135163Y75083D01*
X135090Y75114D01*
X135015Y75142D01*
X134870Y75210D01*
X134724Y75275D01*
X134577Y75336D01*
X134428Y75394D01*
X134277Y75448D01*
X134126Y75499D01*
X133973Y75546D01*
X133819Y75589D01*
X133664Y75629D01*
X133508Y75665D01*
X133351Y75697D01*
X133194Y75726D01*
X133036Y75750D01*
X132878Y75771D01*
X132719Y75788D01*
X132559Y75802D01*
X132400Y75811D01*
X132240Y75817D01*
X132080Y75819D01*
X132080Y71304D02*
X131920Y71306D01*
X131760Y71312D01*
X131601Y71321D01*
X131441Y71335D01*
X131282Y71352D01*
X131124Y71373D01*
X130966Y71397D01*
X130809Y71426D01*
X130652Y71458D01*
X130496Y71494D01*
X130341Y71534D01*
X130187Y71577D01*
X130035Y71624D01*
X129883Y71675D01*
X129732Y71729D01*
X129583Y71787D01*
X129436Y71848D01*
X129290Y71913D01*
X129145Y71981D01*
X129145Y71980D02*
X129070Y72008D01*
X128997Y72039D01*
X128925Y72074D01*
X128855Y72112D01*
X128787Y72153D01*
X128721Y72198D01*
X128657Y72245D01*
X128595Y72296D01*
X128536Y72349D01*
X128480Y72406D01*
X128426Y72465D01*
X128375Y72526D01*
X128327Y72590D01*
X128282Y72656D01*
X128241Y72724D01*
X128203Y72794D01*
X128168Y72865D01*
X128136Y72939D01*
X128108Y73013D01*
X128084Y73089D01*
X128063Y73166D01*
X128046Y73244D01*
X128033Y73323D01*
X128024Y73402D01*
X128018Y73481D01*
X128016Y73561D01*
X129145Y75142D02*
X129290Y75210D01*
X129436Y75275D01*
X129583Y75336D01*
X129732Y75394D01*
X129883Y75448D01*
X130035Y75499D01*
X130187Y75546D01*
X130341Y75589D01*
X130496Y75629D01*
X130652Y75665D01*
X130809Y75697D01*
X130966Y75726D01*
X131124Y75750D01*
X131282Y75771D01*
X131441Y75788D01*
X131601Y75802D01*
X131760Y75811D01*
X131920Y75817D01*
X132080Y75819D01*
X129145Y75142D02*
X129070Y75114D01*
X128997Y75083D01*
X128925Y75048D01*
X128855Y75010D01*
X128787Y74969D01*
X128721Y74924D01*
X128657Y74877D01*
X128595Y74826D01*
X128536Y74773D01*
X128480Y74716D01*
X128426Y74657D01*
X128375Y74596D01*
X128327Y74532D01*
X128282Y74466D01*
X128241Y74398D01*
X128203Y74328D01*
X128168Y74257D01*
X128136Y74183D01*
X128108Y74109D01*
X128084Y74033D01*
X128063Y73956D01*
X128046Y73878D01*
X128033Y73799D01*
X128024Y73720D01*
X128018Y73641D01*
X128016Y73561D01*
X129822Y71755D02*
X134338Y75367D01*
D12*
X221040Y200152D02*
X222508Y200152D01*
X222582Y200154D01*
X222657Y200160D01*
X222730Y200169D01*
X222804Y200182D01*
X222876Y200199D01*
X222947Y200219D01*
X223018Y200243D01*
X223087Y200271D01*
X223155Y200302D01*
X223220Y200336D01*
X223285Y200374D01*
X223347Y200415D01*
X223407Y200459D01*
X223464Y200506D01*
X223519Y200556D01*
X223572Y200609D01*
X223622Y200664D01*
X223669Y200721D01*
X223713Y200781D01*
X223754Y200843D01*
X223792Y200908D01*
X223826Y200974D01*
X223857Y201041D01*
X223885Y201110D01*
X223909Y201181D01*
X223929Y201252D01*
X223946Y201325D01*
X223959Y201398D01*
X223968Y201472D01*
X223974Y201546D01*
X223976Y201620D01*
X223975Y201620D02*
X223975Y205288D01*
X223976Y205288D02*
X223974Y205362D01*
X223968Y205437D01*
X223959Y205510D01*
X223946Y205583D01*
X223929Y205656D01*
X223909Y205727D01*
X223885Y205798D01*
X223857Y205867D01*
X223826Y205934D01*
X223792Y206000D01*
X223754Y206065D01*
X223713Y206127D01*
X223669Y206187D01*
X223622Y206244D01*
X223572Y206299D01*
X223519Y206352D01*
X223464Y206402D01*
X223407Y206449D01*
X223347Y206493D01*
X223285Y206534D01*
X223220Y206572D01*
X223155Y206606D01*
X223087Y206637D01*
X223018Y206665D01*
X222948Y206689D01*
X222876Y206709D01*
X222804Y206726D01*
X222730Y206739D01*
X222657Y206748D01*
X222582Y206754D01*
X222508Y206756D01*
X221040Y206756D01*
X216376Y206756D02*
X217844Y201620D01*
X214175Y201620D01*
X215275Y203087D02*
X215275Y200152D01*
D11*
X229872Y238506D02*
X229872Y245872D01*
X227826Y245872D01*
X227737Y245870D01*
X227648Y245864D01*
X227559Y245854D01*
X227471Y245841D01*
X227383Y245824D01*
X227296Y245802D01*
X227211Y245777D01*
X227126Y245749D01*
X227043Y245716D01*
X226961Y245680D01*
X226881Y245641D01*
X226803Y245598D01*
X226727Y245552D01*
X226652Y245502D01*
X226580Y245449D01*
X226511Y245393D01*
X226444Y245334D01*
X226379Y245273D01*
X226318Y245208D01*
X226259Y245141D01*
X226203Y245072D01*
X226150Y245000D01*
X226100Y244925D01*
X226054Y244849D01*
X226011Y244771D01*
X225972Y244691D01*
X225936Y244609D01*
X225903Y244526D01*
X225875Y244441D01*
X225850Y244356D01*
X225828Y244269D01*
X225811Y244181D01*
X225798Y244093D01*
X225788Y244004D01*
X225782Y243915D01*
X225780Y243826D01*
X225782Y243737D01*
X225788Y243648D01*
X225798Y243559D01*
X225811Y243471D01*
X225828Y243383D01*
X225850Y243296D01*
X225875Y243211D01*
X225903Y243126D01*
X225936Y243043D01*
X225972Y242961D01*
X226011Y242881D01*
X226054Y242803D01*
X226100Y242727D01*
X226150Y242652D01*
X226203Y242580D01*
X226259Y242511D01*
X226318Y242444D01*
X226379Y242379D01*
X226444Y242318D01*
X226511Y242259D01*
X226580Y242203D01*
X226652Y242150D01*
X226727Y242100D01*
X226803Y242054D01*
X226881Y242011D01*
X226961Y241972D01*
X227043Y241936D01*
X227126Y241903D01*
X227211Y241875D01*
X227296Y241850D01*
X227383Y241828D01*
X227471Y241811D01*
X227559Y241798D01*
X227648Y241788D01*
X227737Y241782D01*
X227826Y241780D01*
X229872Y241780D01*
X227417Y241780D02*
X225780Y238506D01*
X222247Y238506D02*
X222247Y245872D01*
X220201Y245872D01*
X220112Y245870D01*
X220023Y245864D01*
X219934Y245854D01*
X219846Y245841D01*
X219758Y245824D01*
X219671Y245802D01*
X219586Y245777D01*
X219501Y245749D01*
X219418Y245716D01*
X219336Y245680D01*
X219256Y245641D01*
X219178Y245598D01*
X219102Y245552D01*
X219027Y245502D01*
X218955Y245449D01*
X218886Y245393D01*
X218819Y245334D01*
X218754Y245273D01*
X218693Y245208D01*
X218634Y245141D01*
X218578Y245072D01*
X218525Y245000D01*
X218475Y244925D01*
X218429Y244849D01*
X218386Y244771D01*
X218347Y244691D01*
X218311Y244609D01*
X218278Y244526D01*
X218250Y244441D01*
X218225Y244356D01*
X218203Y244269D01*
X218186Y244181D01*
X218173Y244093D01*
X218163Y244004D01*
X218157Y243915D01*
X218155Y243826D01*
X218157Y243737D01*
X218163Y243648D01*
X218173Y243559D01*
X218186Y243471D01*
X218203Y243383D01*
X218225Y243296D01*
X218250Y243211D01*
X218278Y243126D01*
X218311Y243043D01*
X218347Y242961D01*
X218386Y242881D01*
X218429Y242803D01*
X218475Y242727D01*
X218525Y242652D01*
X218578Y242580D01*
X218634Y242511D01*
X218693Y242444D01*
X218754Y242379D01*
X218819Y242318D01*
X218886Y242259D01*
X218955Y242203D01*
X219027Y242150D01*
X219102Y242100D01*
X219178Y242054D01*
X219256Y242011D01*
X219336Y241972D01*
X219418Y241936D01*
X219501Y241903D01*
X219586Y241875D01*
X219671Y241850D01*
X219758Y241828D01*
X219846Y241811D01*
X219934Y241798D01*
X220023Y241788D01*
X220112Y241782D01*
X220201Y241780D01*
X222247Y241780D01*
X215293Y244235D02*
X213247Y245872D01*
X213247Y238506D01*
X215293Y238506D02*
X211201Y238506D01*
X161165Y239268D02*
X161165Y246634D01*
X159119Y246634D01*
X159030Y246632D01*
X158941Y246626D01*
X158852Y246616D01*
X158764Y246603D01*
X158676Y246586D01*
X158589Y246564D01*
X158504Y246539D01*
X158419Y246511D01*
X158336Y246478D01*
X158254Y246442D01*
X158174Y246403D01*
X158096Y246360D01*
X158020Y246314D01*
X157945Y246264D01*
X157873Y246211D01*
X157804Y246155D01*
X157737Y246096D01*
X157672Y246035D01*
X157611Y245970D01*
X157552Y245903D01*
X157496Y245834D01*
X157443Y245762D01*
X157393Y245687D01*
X157347Y245611D01*
X157304Y245533D01*
X157265Y245453D01*
X157229Y245371D01*
X157196Y245288D01*
X157168Y245203D01*
X157143Y245118D01*
X157121Y245031D01*
X157104Y244943D01*
X157091Y244855D01*
X157081Y244766D01*
X157075Y244677D01*
X157073Y244588D01*
X157075Y244499D01*
X157081Y244410D01*
X157091Y244321D01*
X157104Y244233D01*
X157121Y244145D01*
X157143Y244058D01*
X157168Y243973D01*
X157196Y243888D01*
X157229Y243805D01*
X157265Y243723D01*
X157304Y243643D01*
X157347Y243565D01*
X157393Y243489D01*
X157443Y243414D01*
X157496Y243342D01*
X157552Y243273D01*
X157611Y243206D01*
X157672Y243141D01*
X157737Y243080D01*
X157804Y243021D01*
X157873Y242965D01*
X157945Y242912D01*
X158020Y242862D01*
X158096Y242816D01*
X158174Y242773D01*
X158254Y242734D01*
X158336Y242698D01*
X158419Y242665D01*
X158504Y242637D01*
X158589Y242612D01*
X158676Y242590D01*
X158764Y242573D01*
X158852Y242560D01*
X158941Y242550D01*
X159030Y242544D01*
X159119Y242542D01*
X161165Y242542D01*
X158710Y242542D02*
X157073Y239268D01*
X153540Y239268D02*
X153540Y246634D01*
X151494Y246634D01*
X151405Y246632D01*
X151316Y246626D01*
X151227Y246616D01*
X151139Y246603D01*
X151051Y246586D01*
X150964Y246564D01*
X150879Y246539D01*
X150794Y246511D01*
X150711Y246478D01*
X150629Y246442D01*
X150549Y246403D01*
X150471Y246360D01*
X150395Y246314D01*
X150320Y246264D01*
X150248Y246211D01*
X150179Y246155D01*
X150112Y246096D01*
X150047Y246035D01*
X149986Y245970D01*
X149927Y245903D01*
X149871Y245834D01*
X149818Y245762D01*
X149768Y245687D01*
X149722Y245611D01*
X149679Y245533D01*
X149640Y245453D01*
X149604Y245371D01*
X149571Y245288D01*
X149543Y245203D01*
X149518Y245118D01*
X149496Y245031D01*
X149479Y244943D01*
X149466Y244855D01*
X149456Y244766D01*
X149450Y244677D01*
X149448Y244588D01*
X149450Y244499D01*
X149456Y244410D01*
X149466Y244321D01*
X149479Y244233D01*
X149496Y244145D01*
X149518Y244058D01*
X149543Y243973D01*
X149571Y243888D01*
X149604Y243805D01*
X149640Y243723D01*
X149679Y243643D01*
X149722Y243565D01*
X149768Y243489D01*
X149818Y243414D01*
X149871Y243342D01*
X149927Y243273D01*
X149986Y243206D01*
X150047Y243141D01*
X150112Y243080D01*
X150179Y243021D01*
X150248Y242965D01*
X150320Y242912D01*
X150395Y242862D01*
X150471Y242816D01*
X150549Y242773D01*
X150629Y242734D01*
X150711Y242698D01*
X150794Y242665D01*
X150879Y242637D01*
X150964Y242612D01*
X151051Y242590D01*
X151139Y242573D01*
X151227Y242560D01*
X151316Y242550D01*
X151405Y242544D01*
X151494Y242542D01*
X153540Y242542D01*
X144336Y246635D02*
X144251Y246633D01*
X144166Y246627D01*
X144082Y246617D01*
X143998Y246604D01*
X143914Y246586D01*
X143832Y246565D01*
X143751Y246540D01*
X143671Y246511D01*
X143592Y246478D01*
X143515Y246442D01*
X143440Y246402D01*
X143366Y246359D01*
X143295Y246313D01*
X143226Y246263D01*
X143159Y246210D01*
X143095Y246154D01*
X143034Y246095D01*
X142975Y246034D01*
X142919Y245970D01*
X142866Y245903D01*
X142816Y245834D01*
X142770Y245763D01*
X142727Y245689D01*
X142687Y245614D01*
X142651Y245537D01*
X142618Y245458D01*
X142589Y245378D01*
X142564Y245297D01*
X142543Y245215D01*
X142525Y245131D01*
X142512Y245047D01*
X142502Y244963D01*
X142496Y244878D01*
X142494Y244793D01*
X144336Y246634D02*
X144432Y246632D01*
X144528Y246626D01*
X144623Y246616D01*
X144718Y246603D01*
X144813Y246585D01*
X144906Y246564D01*
X144999Y246539D01*
X145090Y246510D01*
X145181Y246478D01*
X145270Y246442D01*
X145357Y246402D01*
X145443Y246359D01*
X145527Y246313D01*
X145609Y246263D01*
X145689Y246209D01*
X145766Y246153D01*
X145841Y246093D01*
X145914Y246031D01*
X145984Y245965D01*
X146052Y245897D01*
X146117Y245826D01*
X146178Y245753D01*
X146237Y245677D01*
X146293Y245598D01*
X146345Y245518D01*
X146394Y245435D01*
X146440Y245351D01*
X146482Y245265D01*
X146520Y245177D01*
X146555Y245088D01*
X146587Y244997D01*
X143108Y243361D02*
X143048Y243420D01*
X142991Y243482D01*
X142936Y243546D01*
X142885Y243613D01*
X142836Y243682D01*
X142790Y243752D01*
X142747Y243825D01*
X142707Y243899D01*
X142671Y243975D01*
X142638Y244053D01*
X142608Y244132D01*
X142581Y244212D01*
X142558Y244293D01*
X142539Y244375D01*
X142523Y244457D01*
X142510Y244541D01*
X142501Y244625D01*
X142496Y244709D01*
X142494Y244793D01*
X143108Y243360D02*
X146586Y239268D01*
X142494Y239268D01*
D13*
X160274Y175895D02*
X219964Y175895D01*
X219964Y76835D02*
X160274Y76835D01*
X205994Y164465D02*
X205994Y172085D01*
X212344Y168275D02*
X205994Y164465D01*
X212344Y168275D02*
X205994Y172085D01*
D12*
X193933Y261112D02*
X192465Y261112D01*
X193933Y261112D02*
X194007Y261114D01*
X194082Y261120D01*
X194155Y261129D01*
X194229Y261142D01*
X194301Y261159D01*
X194372Y261179D01*
X194443Y261203D01*
X194512Y261231D01*
X194580Y261262D01*
X194645Y261296D01*
X194710Y261334D01*
X194772Y261375D01*
X194832Y261419D01*
X194889Y261466D01*
X194944Y261516D01*
X194997Y261569D01*
X195047Y261624D01*
X195094Y261681D01*
X195138Y261741D01*
X195179Y261803D01*
X195217Y261868D01*
X195251Y261934D01*
X195282Y262001D01*
X195310Y262070D01*
X195334Y262141D01*
X195354Y262212D01*
X195371Y262285D01*
X195384Y262358D01*
X195393Y262432D01*
X195399Y262506D01*
X195401Y262580D01*
X195400Y262580D02*
X195400Y266248D01*
X195401Y266248D02*
X195399Y266322D01*
X195393Y266397D01*
X195384Y266470D01*
X195371Y266543D01*
X195354Y266616D01*
X195334Y266687D01*
X195310Y266758D01*
X195282Y266827D01*
X195251Y266894D01*
X195217Y266960D01*
X195179Y267025D01*
X195138Y267087D01*
X195094Y267147D01*
X195047Y267204D01*
X194997Y267259D01*
X194944Y267312D01*
X194889Y267362D01*
X194832Y267409D01*
X194772Y267453D01*
X194710Y267494D01*
X194645Y267532D01*
X194580Y267566D01*
X194512Y267597D01*
X194443Y267625D01*
X194373Y267649D01*
X194301Y267669D01*
X194229Y267686D01*
X194155Y267699D01*
X194082Y267708D01*
X194007Y267714D01*
X193933Y267716D01*
X192465Y267716D01*
X189269Y267716D02*
X189269Y266982D01*
X189269Y267716D02*
X185600Y267716D01*
X187434Y261112D01*
X230565Y70612D02*
X232033Y70612D01*
X232107Y70614D01*
X232182Y70620D01*
X232255Y70629D01*
X232329Y70642D01*
X232401Y70659D01*
X232472Y70679D01*
X232543Y70703D01*
X232612Y70731D01*
X232680Y70762D01*
X232745Y70796D01*
X232810Y70834D01*
X232872Y70875D01*
X232932Y70919D01*
X232989Y70966D01*
X233044Y71016D01*
X233097Y71069D01*
X233147Y71124D01*
X233194Y71181D01*
X233238Y71241D01*
X233279Y71303D01*
X233317Y71368D01*
X233351Y71434D01*
X233382Y71501D01*
X233410Y71570D01*
X233434Y71641D01*
X233454Y71712D01*
X233471Y71785D01*
X233484Y71858D01*
X233493Y71932D01*
X233499Y72006D01*
X233501Y72080D01*
X233500Y72080D02*
X233500Y75748D01*
X233501Y75748D02*
X233499Y75822D01*
X233493Y75897D01*
X233484Y75970D01*
X233471Y76043D01*
X233454Y76116D01*
X233434Y76187D01*
X233410Y76258D01*
X233382Y76327D01*
X233351Y76394D01*
X233317Y76460D01*
X233279Y76525D01*
X233238Y76587D01*
X233194Y76647D01*
X233147Y76704D01*
X233097Y76759D01*
X233044Y76812D01*
X232989Y76862D01*
X232932Y76909D01*
X232872Y76953D01*
X232810Y76994D01*
X232745Y77032D01*
X232680Y77066D01*
X232612Y77097D01*
X232543Y77125D01*
X232473Y77149D01*
X232401Y77169D01*
X232329Y77186D01*
X232255Y77199D01*
X232182Y77208D01*
X232107Y77214D01*
X232033Y77216D01*
X230565Y77216D01*
X227369Y74281D02*
X225167Y74281D01*
X225093Y74279D01*
X225018Y74273D01*
X224945Y74264D01*
X224871Y74251D01*
X224799Y74234D01*
X224728Y74214D01*
X224657Y74190D01*
X224588Y74162D01*
X224521Y74131D01*
X224455Y74097D01*
X224390Y74059D01*
X224328Y74018D01*
X224268Y73974D01*
X224211Y73927D01*
X224156Y73877D01*
X224103Y73824D01*
X224053Y73769D01*
X224006Y73712D01*
X223962Y73652D01*
X223921Y73590D01*
X223883Y73525D01*
X223849Y73459D01*
X223818Y73392D01*
X223790Y73323D01*
X223766Y73252D01*
X223746Y73181D01*
X223729Y73109D01*
X223716Y73035D01*
X223707Y72962D01*
X223701Y72887D01*
X223699Y72813D01*
X223700Y72813D02*
X223700Y72446D01*
X223702Y72361D01*
X223708Y72277D01*
X223718Y72193D01*
X223731Y72109D01*
X223749Y72026D01*
X223770Y71944D01*
X223795Y71863D01*
X223824Y71783D01*
X223856Y71705D01*
X223892Y71629D01*
X223932Y71554D01*
X223975Y71481D01*
X224021Y71410D01*
X224070Y71341D01*
X224123Y71274D01*
X224179Y71210D01*
X224237Y71149D01*
X224298Y71091D01*
X224362Y71035D01*
X224429Y70982D01*
X224498Y70933D01*
X224569Y70887D01*
X224642Y70844D01*
X224717Y70804D01*
X224793Y70768D01*
X224871Y70736D01*
X224951Y70707D01*
X225032Y70682D01*
X225114Y70661D01*
X225197Y70643D01*
X225281Y70630D01*
X225365Y70620D01*
X225449Y70614D01*
X225534Y70612D01*
X225619Y70614D01*
X225703Y70620D01*
X225787Y70630D01*
X225871Y70643D01*
X225954Y70661D01*
X226036Y70682D01*
X226117Y70707D01*
X226197Y70736D01*
X226275Y70768D01*
X226351Y70804D01*
X226426Y70844D01*
X226499Y70887D01*
X226570Y70933D01*
X226639Y70982D01*
X226706Y71035D01*
X226770Y71091D01*
X226831Y71149D01*
X226889Y71210D01*
X226945Y71274D01*
X226998Y71341D01*
X227047Y71410D01*
X227093Y71481D01*
X227136Y71554D01*
X227176Y71629D01*
X227212Y71705D01*
X227244Y71783D01*
X227273Y71863D01*
X227298Y71944D01*
X227319Y72026D01*
X227337Y72109D01*
X227350Y72193D01*
X227360Y72277D01*
X227366Y72361D01*
X227368Y72446D01*
X227369Y72446D02*
X227369Y74281D01*
X227367Y74388D01*
X227361Y74495D01*
X227351Y74602D01*
X227338Y74708D01*
X227320Y74814D01*
X227299Y74919D01*
X227274Y75023D01*
X227245Y75127D01*
X227212Y75229D01*
X227175Y75329D01*
X227135Y75429D01*
X227091Y75527D01*
X227044Y75623D01*
X226993Y75717D01*
X226939Y75810D01*
X226882Y75900D01*
X226821Y75989D01*
X226757Y76075D01*
X226690Y76158D01*
X226620Y76240D01*
X226547Y76318D01*
X226471Y76394D01*
X226393Y76467D01*
X226311Y76537D01*
X226228Y76604D01*
X226142Y76668D01*
X226053Y76729D01*
X225963Y76786D01*
X225870Y76840D01*
X225776Y76891D01*
X225680Y76938D01*
X225582Y76982D01*
X225483Y77022D01*
X225382Y77059D01*
X225280Y77092D01*
X225176Y77121D01*
X225072Y77146D01*
X224967Y77167D01*
X224861Y77185D01*
X224755Y77198D01*
X224648Y77208D01*
X224541Y77214D01*
X224434Y77216D01*
X187583Y47117D02*
X186115Y47117D01*
X187583Y47117D02*
X187657Y47119D01*
X187732Y47125D01*
X187805Y47134D01*
X187879Y47147D01*
X187951Y47164D01*
X188022Y47184D01*
X188093Y47208D01*
X188162Y47236D01*
X188230Y47267D01*
X188295Y47301D01*
X188360Y47339D01*
X188422Y47380D01*
X188482Y47424D01*
X188539Y47471D01*
X188594Y47521D01*
X188647Y47574D01*
X188697Y47629D01*
X188744Y47686D01*
X188788Y47746D01*
X188829Y47808D01*
X188867Y47873D01*
X188901Y47939D01*
X188932Y48006D01*
X188960Y48075D01*
X188984Y48146D01*
X189004Y48217D01*
X189021Y48290D01*
X189034Y48363D01*
X189043Y48437D01*
X189049Y48511D01*
X189051Y48585D01*
X189050Y48585D02*
X189050Y52253D01*
X189051Y52253D02*
X189049Y52327D01*
X189043Y52402D01*
X189034Y52475D01*
X189021Y52548D01*
X189004Y52621D01*
X188984Y52692D01*
X188960Y52763D01*
X188932Y52832D01*
X188901Y52899D01*
X188867Y52965D01*
X188829Y53030D01*
X188788Y53092D01*
X188744Y53152D01*
X188697Y53209D01*
X188647Y53264D01*
X188594Y53317D01*
X188539Y53367D01*
X188482Y53414D01*
X188422Y53458D01*
X188360Y53499D01*
X188295Y53537D01*
X188230Y53571D01*
X188162Y53602D01*
X188093Y53630D01*
X188023Y53654D01*
X187951Y53674D01*
X187879Y53691D01*
X187805Y53704D01*
X187732Y53713D01*
X187657Y53719D01*
X187583Y53721D01*
X186115Y53721D01*
X180901Y53721D02*
X180822Y53719D01*
X180744Y53714D01*
X180666Y53704D01*
X180589Y53691D01*
X180512Y53674D01*
X180436Y53654D01*
X180361Y53630D01*
X180287Y53603D01*
X180215Y53572D01*
X180144Y53537D01*
X180076Y53500D01*
X180008Y53459D01*
X179943Y53415D01*
X179880Y53368D01*
X179820Y53318D01*
X179762Y53265D01*
X179706Y53209D01*
X179653Y53151D01*
X179603Y53091D01*
X179556Y53028D01*
X179512Y52963D01*
X179471Y52896D01*
X179434Y52827D01*
X179399Y52756D01*
X179368Y52684D01*
X179341Y52610D01*
X179317Y52535D01*
X179297Y52459D01*
X179280Y52382D01*
X179267Y52305D01*
X179257Y52227D01*
X179252Y52149D01*
X179250Y52070D01*
X180901Y53721D02*
X180990Y53719D01*
X181079Y53714D01*
X181167Y53704D01*
X181255Y53691D01*
X181342Y53675D01*
X181429Y53654D01*
X181514Y53630D01*
X181599Y53603D01*
X181682Y53572D01*
X181764Y53537D01*
X181845Y53499D01*
X181924Y53458D01*
X182000Y53414D01*
X182076Y53366D01*
X182149Y53315D01*
X182219Y53262D01*
X182288Y53205D01*
X182354Y53145D01*
X182417Y53083D01*
X182478Y53018D01*
X182536Y52951D01*
X182591Y52881D01*
X182644Y52809D01*
X182693Y52735D01*
X182739Y52659D01*
X182781Y52581D01*
X182821Y52501D01*
X182857Y52420D01*
X182890Y52337D01*
X182919Y52253D01*
X179800Y50786D02*
X179744Y50842D01*
X179690Y50901D01*
X179639Y50962D01*
X179590Y51026D01*
X179545Y51091D01*
X179502Y51159D01*
X179463Y51228D01*
X179426Y51299D01*
X179393Y51372D01*
X179364Y51446D01*
X179337Y51521D01*
X179314Y51597D01*
X179295Y51675D01*
X179279Y51753D01*
X179266Y51831D01*
X179257Y51911D01*
X179252Y51990D01*
X179250Y52070D01*
X179800Y50786D02*
X182919Y47117D01*
X179250Y47117D01*
D14*
X276225Y269875D02*
X276225Y523875D01*
X22225Y523875D01*
X22225Y269875D01*
X276225Y269875D01*
D11*
X108979Y570103D02*
X108979Y577469D01*
X105705Y577469D01*
X105705Y574195D02*
X108979Y574195D01*
X100648Y577470D02*
X100563Y577468D01*
X100478Y577462D01*
X100394Y577452D01*
X100310Y577439D01*
X100226Y577421D01*
X100144Y577400D01*
X100063Y577375D01*
X99983Y577346D01*
X99904Y577313D01*
X99827Y577277D01*
X99752Y577237D01*
X99678Y577194D01*
X99607Y577148D01*
X99538Y577098D01*
X99471Y577045D01*
X99407Y576989D01*
X99346Y576930D01*
X99287Y576869D01*
X99231Y576805D01*
X99178Y576738D01*
X99128Y576669D01*
X99082Y576598D01*
X99039Y576524D01*
X98999Y576449D01*
X98963Y576372D01*
X98930Y576293D01*
X98901Y576213D01*
X98876Y576132D01*
X98855Y576050D01*
X98837Y575966D01*
X98824Y575882D01*
X98814Y575798D01*
X98808Y575713D01*
X98806Y575628D01*
X100648Y577469D02*
X100744Y577467D01*
X100840Y577461D01*
X100935Y577451D01*
X101030Y577438D01*
X101125Y577420D01*
X101218Y577399D01*
X101311Y577374D01*
X101402Y577345D01*
X101493Y577313D01*
X101582Y577277D01*
X101669Y577237D01*
X101755Y577194D01*
X101839Y577148D01*
X101921Y577098D01*
X102001Y577044D01*
X102078Y576988D01*
X102153Y576928D01*
X102226Y576866D01*
X102296Y576800D01*
X102364Y576732D01*
X102429Y576661D01*
X102490Y576588D01*
X102549Y576512D01*
X102605Y576433D01*
X102657Y576353D01*
X102706Y576270D01*
X102752Y576186D01*
X102794Y576100D01*
X102832Y576012D01*
X102867Y575923D01*
X102899Y575832D01*
X99420Y574196D02*
X99360Y574255D01*
X99303Y574317D01*
X99248Y574381D01*
X99197Y574448D01*
X99148Y574517D01*
X99102Y574587D01*
X99059Y574660D01*
X99019Y574734D01*
X98983Y574810D01*
X98950Y574888D01*
X98920Y574967D01*
X98893Y575047D01*
X98870Y575128D01*
X98851Y575210D01*
X98835Y575292D01*
X98822Y575376D01*
X98813Y575460D01*
X98808Y575544D01*
X98806Y575628D01*
X99420Y574195D02*
X102898Y570103D01*
X98806Y570103D01*
M02*
