G04 EAGLE Gerber RS-274X export*
G75*
%MOMM*%
%FSLAX34Y34*%
%LPD*%
%INSoldermask Top*%
%IPPOS*%
%AMOC8*
5,1,8,0,0,1.08239X$1,22.5*%
G01*
%ADD10C,3.429000*%
%ADD11R,1.181000X1.327000*%
%ADD12R,1.327000X1.181000*%
%ADD13R,0.635000X2.667000*%
%ADD14R,2.413000X1.905000*%
%ADD15C,1.077000*%
%ADD16R,0.827000X2.627000*%
%ADD17P,1.815168X8X292.500000*%
%ADD18R,1.327000X1.327000*%
%ADD19R,1.346200X2.362200*%
%ADD20R,3.727000X2.327000*%
%ADD21C,0.349503*%
%ADD22R,2.794000X2.667000*%
%ADD23R,0.889000X1.397000*%
%ADD24C,2.006600*%
%ADD25C,1.905000*%
%ADD26R,2.362200X1.346200*%
%ADD27R,2.327000X3.727000*%
%ADD28R,1.527000X1.527000*%
%ADD29C,0.731000*%

G36*
X192159Y163887D02*
X192159Y163887D01*
X192225Y163889D01*
X194405Y164273D01*
X194447Y164289D01*
X194512Y164302D01*
X196592Y165059D01*
X196631Y165081D01*
X196692Y165106D01*
X198610Y166212D01*
X198644Y166241D01*
X198700Y166276D01*
X200396Y167699D01*
X200425Y167733D01*
X200474Y167777D01*
X201897Y169473D01*
X201919Y169512D01*
X201961Y169563D01*
X203067Y171481D01*
X203083Y171523D01*
X203114Y171581D01*
X203871Y173661D01*
X203879Y173705D01*
X203900Y173768D01*
X204284Y175948D01*
X204284Y175993D01*
X204294Y176058D01*
X204294Y178272D01*
X204286Y178316D01*
X204284Y178382D01*
X203900Y180562D01*
X203884Y180604D01*
X203871Y180669D01*
X203114Y182749D01*
X203092Y182788D01*
X203067Y182849D01*
X201961Y184767D01*
X201932Y184801D01*
X201897Y184857D01*
X200474Y186553D01*
X200440Y186582D01*
X200396Y186631D01*
X198700Y188054D01*
X198661Y188076D01*
X198610Y188118D01*
X196692Y189224D01*
X196650Y189240D01*
X196592Y189271D01*
X194512Y190028D01*
X194468Y190036D01*
X194405Y190057D01*
X192225Y190441D01*
X192180Y190441D01*
X192115Y190451D01*
X189901Y190451D01*
X189857Y190443D01*
X189791Y190441D01*
X187611Y190057D01*
X187569Y190041D01*
X187504Y190028D01*
X185424Y189271D01*
X185385Y189249D01*
X185324Y189224D01*
X183406Y188118D01*
X183372Y188089D01*
X183316Y188054D01*
X181620Y186631D01*
X181591Y186597D01*
X181542Y186553D01*
X180119Y184857D01*
X180097Y184818D01*
X180055Y184767D01*
X178949Y182849D01*
X178933Y182807D01*
X178902Y182749D01*
X178145Y180669D01*
X178137Y180625D01*
X178116Y180562D01*
X177732Y178382D01*
X177732Y178337D01*
X177722Y178272D01*
X177722Y176058D01*
X177730Y176014D01*
X177732Y175948D01*
X178116Y173768D01*
X178132Y173726D01*
X178145Y173661D01*
X178902Y171581D01*
X178924Y171542D01*
X178949Y171481D01*
X180055Y169563D01*
X180084Y169529D01*
X180119Y169473D01*
X181542Y167777D01*
X181576Y167748D01*
X181620Y167699D01*
X183316Y166276D01*
X183355Y166254D01*
X183406Y166212D01*
X185324Y165106D01*
X185366Y165090D01*
X185424Y165059D01*
X187504Y164302D01*
X187548Y164294D01*
X187611Y164273D01*
X189791Y163889D01*
X189836Y163889D01*
X189901Y163879D01*
X192115Y163879D01*
X192159Y163887D01*
G37*
D10*
X31750Y552450D03*
X31750Y31750D03*
X260350Y31750D03*
X260350Y552450D03*
D11*
G36*
X239332Y140930D02*
X230981Y132579D01*
X221598Y141962D01*
X229949Y150313D01*
X239332Y140930D01*
G37*
G36*
X255652Y157250D02*
X247301Y148899D01*
X237918Y158282D01*
X246269Y166633D01*
X255652Y157250D01*
G37*
D12*
X136525Y413910D03*
X136525Y436990D03*
D13*
X200152Y92837D03*
X192152Y92837D03*
X184152Y92837D03*
X176152Y92837D03*
X168152Y92837D03*
D14*
X227327Y33357D03*
X227327Y89237D03*
X140967Y89237D03*
X140967Y33357D03*
D15*
X206152Y63837D03*
X162152Y63837D03*
D16*
X151700Y253825D03*
X139700Y253825D03*
X127700Y253825D03*
D17*
X142875Y530225D03*
X168275Y530225D03*
X142875Y504825D03*
X168275Y504825D03*
X142875Y479425D03*
X168275Y479425D03*
D18*
X171450Y343875D03*
X171450Y322875D03*
X142875Y343875D03*
X142875Y322875D03*
D12*
X158750Y413910D03*
X158750Y436990D03*
D18*
X200025Y322875D03*
X200025Y343875D03*
X228600Y322875D03*
X228600Y343875D03*
D19*
X227584Y435483D03*
X204470Y435483D03*
X181356Y435483D03*
D20*
X204470Y373505D03*
D21*
X188167Y205158D02*
X187764Y204755D01*
X182153Y210366D01*
X182556Y210769D01*
X188167Y205158D01*
X185250Y208075D02*
X184444Y208075D01*
X184632Y201622D02*
X184229Y201219D01*
X178618Y206830D01*
X179021Y207233D01*
X184632Y201622D01*
X181715Y204539D02*
X180909Y204539D01*
X181096Y198086D02*
X180693Y197683D01*
X175082Y203294D01*
X175485Y203697D01*
X181096Y198086D01*
X178179Y201003D02*
X177373Y201003D01*
X177561Y194551D02*
X177158Y194148D01*
X171547Y199759D01*
X171950Y200162D01*
X177561Y194551D01*
X174644Y197468D02*
X173838Y197468D01*
X174025Y191015D02*
X173622Y190612D01*
X168011Y196223D01*
X168414Y196626D01*
X174025Y191015D01*
X171108Y193932D02*
X170302Y193932D01*
X170490Y187480D02*
X170087Y187077D01*
X164476Y192688D01*
X164879Y193091D01*
X170490Y187480D01*
X167573Y190397D02*
X166767Y190397D01*
X166954Y183944D02*
X166551Y183541D01*
X160940Y189152D01*
X161343Y189555D01*
X166954Y183944D01*
X164037Y186861D02*
X163231Y186861D01*
X163418Y180409D02*
X163015Y180006D01*
X157404Y185617D01*
X157807Y186020D01*
X163418Y180409D01*
X160501Y183326D02*
X159695Y183326D01*
X163015Y174324D02*
X163418Y173921D01*
X157807Y168310D01*
X157404Y168713D01*
X163015Y174324D01*
X161127Y171630D02*
X160321Y171630D01*
X166551Y170789D02*
X166954Y170386D01*
X161343Y164775D01*
X160940Y165178D01*
X166551Y170789D01*
X164663Y168095D02*
X163857Y168095D01*
X170087Y167253D02*
X170490Y166850D01*
X164879Y161239D01*
X164476Y161642D01*
X170087Y167253D01*
X168199Y164559D02*
X167393Y164559D01*
X173622Y163718D02*
X174025Y163315D01*
X168414Y157704D01*
X168011Y158107D01*
X173622Y163718D01*
X171734Y161024D02*
X170928Y161024D01*
X177158Y160182D02*
X177561Y159779D01*
X171950Y154168D01*
X171547Y154571D01*
X177158Y160182D01*
X175270Y157488D02*
X174464Y157488D01*
X180693Y156647D02*
X181096Y156244D01*
X175485Y150633D01*
X175082Y151036D01*
X180693Y156647D01*
X178805Y153953D02*
X177999Y153953D01*
X184229Y153111D02*
X184632Y152708D01*
X179021Y147097D01*
X178618Y147500D01*
X184229Y153111D01*
X182341Y150417D02*
X181535Y150417D01*
X187764Y149575D02*
X188167Y149172D01*
X182556Y143561D01*
X182153Y143964D01*
X187764Y149575D01*
X185876Y146881D02*
X185070Y146881D01*
X199460Y143561D02*
X199863Y143964D01*
X199460Y143561D02*
X193849Y149172D01*
X194252Y149575D01*
X199863Y143964D01*
X196946Y146881D02*
X196140Y146881D01*
X202995Y147097D02*
X203398Y147500D01*
X202995Y147097D02*
X197384Y152708D01*
X197787Y153111D01*
X203398Y147500D01*
X200481Y150417D02*
X199675Y150417D01*
X206531Y150633D02*
X206934Y151036D01*
X206531Y150633D02*
X200920Y156244D01*
X201323Y156647D01*
X206934Y151036D01*
X204017Y153953D02*
X203211Y153953D01*
X210066Y154168D02*
X210469Y154571D01*
X210066Y154168D02*
X204455Y159779D01*
X204858Y160182D01*
X210469Y154571D01*
X207552Y157488D02*
X206746Y157488D01*
X213602Y157704D02*
X214005Y158107D01*
X213602Y157704D02*
X207991Y163315D01*
X208394Y163718D01*
X214005Y158107D01*
X211088Y161024D02*
X210282Y161024D01*
X217137Y161239D02*
X217540Y161642D01*
X217137Y161239D02*
X211526Y166850D01*
X211929Y167253D01*
X217540Y161642D01*
X214623Y164559D02*
X213817Y164559D01*
X220673Y164775D02*
X221076Y165178D01*
X220673Y164775D02*
X215062Y170386D01*
X215465Y170789D01*
X221076Y165178D01*
X218159Y168095D02*
X217353Y168095D01*
X224209Y168310D02*
X224612Y168713D01*
X224209Y168310D02*
X218598Y173921D01*
X219001Y174324D01*
X224612Y168713D01*
X221695Y171630D02*
X220889Y171630D01*
X224612Y185617D02*
X224209Y186020D01*
X224612Y185617D02*
X219001Y180006D01*
X218598Y180409D01*
X224209Y186020D01*
X222321Y183326D02*
X221515Y183326D01*
X221076Y189152D02*
X220673Y189555D01*
X221076Y189152D02*
X215465Y183541D01*
X215062Y183944D01*
X220673Y189555D01*
X218785Y186861D02*
X217979Y186861D01*
X217540Y192688D02*
X217137Y193091D01*
X217540Y192688D02*
X211929Y187077D01*
X211526Y187480D01*
X217137Y193091D01*
X215249Y190397D02*
X214443Y190397D01*
X214005Y196223D02*
X213602Y196626D01*
X214005Y196223D02*
X208394Y190612D01*
X207991Y191015D01*
X213602Y196626D01*
X211714Y193932D02*
X210908Y193932D01*
X210469Y199759D02*
X210066Y200162D01*
X210469Y199759D02*
X204858Y194148D01*
X204455Y194551D01*
X210066Y200162D01*
X208178Y197468D02*
X207372Y197468D01*
X206934Y203294D02*
X206531Y203697D01*
X206934Y203294D02*
X201323Y197683D01*
X200920Y198086D01*
X206531Y203697D01*
X204643Y201003D02*
X203837Y201003D01*
X203398Y206830D02*
X202995Y207233D01*
X203398Y206830D02*
X197787Y201219D01*
X197384Y201622D01*
X202995Y207233D01*
X201107Y204539D02*
X200301Y204539D01*
X199863Y210366D02*
X199460Y210769D01*
X199863Y210366D02*
X194252Y204755D01*
X193849Y205158D01*
X199460Y210769D01*
X197572Y208075D02*
X196766Y208075D01*
D22*
X149875Y374650D03*
D23*
X126375Y374650D03*
D12*
X269875Y299610D03*
X269875Y322690D03*
D24*
X82550Y361950D03*
X82550Y336550D03*
X82550Y311150D03*
X82550Y285750D03*
D12*
X269875Y207535D03*
X269875Y230615D03*
D25*
X250825Y422275D03*
X250825Y371475D03*
X47625Y498475D03*
X47625Y295275D03*
D24*
X82550Y158750D03*
X82550Y184150D03*
X82550Y209550D03*
X82550Y234950D03*
X82550Y412750D03*
X82550Y438150D03*
X82550Y488950D03*
X82550Y514350D03*
X82550Y107950D03*
X82550Y82550D03*
X82550Y57150D03*
D12*
X269875Y275065D03*
X269875Y251985D03*
X174625Y242460D03*
X174625Y265540D03*
X139700Y208390D03*
X139700Y185310D03*
D26*
X272288Y475361D03*
X272288Y498475D03*
X272288Y521589D03*
D27*
X210310Y498475D03*
D28*
X276225Y428575D03*
X276225Y390575D03*
D12*
X269875Y344060D03*
X269875Y367140D03*
D29*
X218821Y410972D03*
X181737Y408940D03*
X155575Y307975D03*
X284480Y347345D03*
X210947Y42799D03*
X152575Y176050D03*
X174400Y177225D03*
X111125Y152400D03*
X185225Y163725D03*
X185900Y59525D03*
X255016Y178435D03*
X121666Y473710D03*
X212725Y330200D03*
X100584Y300355D03*
X100584Y328930D03*
X100584Y268605D03*
X155575Y447675D03*
X189738Y240665D03*
X139700Y73025D03*
X251841Y105410D03*
X108966Y67310D03*
X105791Y445135D03*
X253746Y274447D03*
X253746Y347472D03*
X149225Y231775D03*
X136525Y104775D03*
X228600Y292100D03*
X273050Y463550D03*
X282575Y463550D03*
X279400Y457200D03*
X146050Y400050D03*
X244475Y276225D03*
X207400Y138225D03*
X231775Y231775D03*
X177800Y228600D03*
X196850Y457200D03*
X203200Y222250D03*
X231775Y222250D03*
X228600Y279400D03*
X231775Y206375D03*
X225425Y457200D03*
X236883Y311150D03*
X190500Y272161D03*
X117475Y161925D03*
X180975Y279400D03*
X187400Y137225D03*
X180975Y304800D03*
X187325Y469900D03*
X200124Y263525D03*
X133350Y355600D03*
X174625Y66675D03*
X181257Y74031D03*
X200025Y295275D03*
X222250Y301625D03*
X142875Y295275D03*
X161925Y76200D03*
X162306Y293370D03*
X123825Y168275D03*
X209550Y546100D03*
M02*
