G04 EAGLE Gerber RS-274X export*
G75*
%MOMM*%
%FSLAX34Y34*%
%LPD*%
%INSolderpaste Top*%
%IPPOS*%
%AMOC8*
5,1,8,0,0,1.08239X$1,22.5*%
G01*
%ADD10R,1.054000X1.200000*%
%ADD11R,1.200000X1.054000*%
%ADD12R,0.508000X2.540000*%
%ADD13R,2.286000X1.778000*%
%ADD14R,0.700000X2.500000*%
%ADD15R,1.200000X1.200000*%
%ADD16R,1.219200X2.235200*%
%ADD17R,3.600000X2.200000*%
%ADD18R,1.270000X1.270000*%
%ADD19C,0.223519*%
%ADD20R,2.667000X2.540000*%
%ADD21R,0.762000X1.270000*%
%ADD22R,2.235200X1.219200*%
%ADD23R,2.200000X3.600000*%
%ADD24R,1.400000X1.400000*%


D10*
G36*
X238434Y140930D02*
X230981Y133477D01*
X222496Y141962D01*
X229949Y149415D01*
X238434Y140930D01*
G37*
G36*
X254754Y157250D02*
X247301Y149797D01*
X238816Y158282D01*
X246269Y165735D01*
X254754Y157250D01*
G37*
D11*
X136525Y413910D03*
X136525Y436990D03*
D12*
X200152Y92837D03*
X192152Y92837D03*
X184152Y92837D03*
X176152Y92837D03*
X168152Y92837D03*
D13*
X227327Y33357D03*
X227327Y89237D03*
X140967Y89237D03*
X140967Y33357D03*
D14*
X151700Y253825D03*
X139700Y253825D03*
X127700Y253825D03*
D15*
X171450Y343875D03*
X171450Y322875D03*
X142875Y343875D03*
X142875Y322875D03*
D11*
X158750Y413910D03*
X158750Y436990D03*
D15*
X200025Y322875D03*
X200025Y343875D03*
X228600Y322875D03*
X228600Y343875D03*
D16*
X227584Y435483D03*
X204470Y435483D03*
X181356Y435483D03*
D17*
X204470Y373505D03*
D18*
G36*
X191008Y168185D02*
X182028Y177165D01*
X191008Y186145D01*
X199988Y177165D01*
X191008Y168185D01*
G37*
D19*
X187764Y204762D02*
X188160Y205158D01*
X187764Y204762D02*
X182160Y210366D01*
X182556Y210762D01*
X188160Y205158D01*
X186433Y206885D02*
X185641Y206885D01*
X184310Y209008D02*
X183518Y209008D01*
X184625Y201622D02*
X184229Y201226D01*
X178625Y206830D01*
X179021Y207226D01*
X184625Y201622D01*
X182898Y203349D02*
X182106Y203349D01*
X180775Y205472D02*
X179983Y205472D01*
X181089Y198086D02*
X180693Y197690D01*
X175089Y203294D01*
X175485Y203690D01*
X181089Y198086D01*
X179362Y199813D02*
X178570Y199813D01*
X177239Y201936D02*
X176447Y201936D01*
X177554Y194551D02*
X177158Y194155D01*
X171554Y199759D01*
X171950Y200155D01*
X177554Y194551D01*
X175827Y196278D02*
X175035Y196278D01*
X173704Y198401D02*
X172912Y198401D01*
X174018Y191015D02*
X173622Y190619D01*
X168018Y196223D01*
X168414Y196619D01*
X174018Y191015D01*
X172291Y192742D02*
X171499Y192742D01*
X170168Y194865D02*
X169376Y194865D01*
X170483Y187480D02*
X170087Y187084D01*
X164483Y192688D01*
X164879Y193084D01*
X170483Y187480D01*
X168756Y189207D02*
X167964Y189207D01*
X166633Y191330D02*
X165841Y191330D01*
X166947Y183944D02*
X166551Y183548D01*
X160947Y189152D01*
X161343Y189548D01*
X166947Y183944D01*
X165220Y185671D02*
X164428Y185671D01*
X163097Y187794D02*
X162305Y187794D01*
X163411Y180409D02*
X163015Y180013D01*
X157411Y185617D01*
X157807Y186013D01*
X163411Y180409D01*
X161684Y182136D02*
X160892Y182136D01*
X159561Y184259D02*
X158769Y184259D01*
X163015Y174317D02*
X163411Y173921D01*
X157807Y168317D01*
X157411Y168713D01*
X163015Y174317D01*
X159930Y170440D02*
X159138Y170440D01*
X161261Y172563D02*
X162053Y172563D01*
X166551Y170782D02*
X166947Y170386D01*
X161343Y164782D01*
X160947Y165178D01*
X166551Y170782D01*
X163466Y166905D02*
X162674Y166905D01*
X164797Y169028D02*
X165589Y169028D01*
X170087Y167246D02*
X170483Y166850D01*
X164879Y161246D01*
X164483Y161642D01*
X170087Y167246D01*
X167002Y163369D02*
X166210Y163369D01*
X168333Y165492D02*
X169125Y165492D01*
X173622Y163711D02*
X174018Y163315D01*
X168414Y157711D01*
X168018Y158107D01*
X173622Y163711D01*
X170537Y159834D02*
X169745Y159834D01*
X171868Y161957D02*
X172660Y161957D01*
X177158Y160175D02*
X177554Y159779D01*
X171950Y154175D01*
X171554Y154571D01*
X177158Y160175D01*
X174073Y156298D02*
X173281Y156298D01*
X175404Y158421D02*
X176196Y158421D01*
X180693Y156640D02*
X181089Y156244D01*
X175485Y150640D01*
X175089Y151036D01*
X180693Y156640D01*
X177608Y152763D02*
X176816Y152763D01*
X178939Y154886D02*
X179731Y154886D01*
X184229Y153104D02*
X184625Y152708D01*
X179021Y147104D01*
X178625Y147500D01*
X184229Y153104D01*
X181144Y149227D02*
X180352Y149227D01*
X182475Y151350D02*
X183267Y151350D01*
X187764Y149568D02*
X188160Y149172D01*
X182556Y143568D01*
X182160Y143964D01*
X187764Y149568D01*
X184679Y145691D02*
X183887Y145691D01*
X186010Y147814D02*
X186802Y147814D01*
X199460Y143568D02*
X199856Y143964D01*
X199460Y143568D02*
X193856Y149172D01*
X194252Y149568D01*
X199856Y143964D01*
X198129Y145691D02*
X197337Y145691D01*
X196006Y147814D02*
X195214Y147814D01*
X202995Y147104D02*
X203391Y147500D01*
X202995Y147104D02*
X197391Y152708D01*
X197787Y153104D01*
X203391Y147500D01*
X201664Y149227D02*
X200872Y149227D01*
X199541Y151350D02*
X198749Y151350D01*
X206531Y150640D02*
X206927Y151036D01*
X206531Y150640D02*
X200927Y156244D01*
X201323Y156640D01*
X206927Y151036D01*
X205200Y152763D02*
X204408Y152763D01*
X203077Y154886D02*
X202285Y154886D01*
X210066Y154175D02*
X210462Y154571D01*
X210066Y154175D02*
X204462Y159779D01*
X204858Y160175D01*
X210462Y154571D01*
X208735Y156298D02*
X207943Y156298D01*
X206612Y158421D02*
X205820Y158421D01*
X213602Y157711D02*
X213998Y158107D01*
X213602Y157711D02*
X207998Y163315D01*
X208394Y163711D01*
X213998Y158107D01*
X212271Y159834D02*
X211479Y159834D01*
X210148Y161957D02*
X209356Y161957D01*
X217137Y161246D02*
X217533Y161642D01*
X217137Y161246D02*
X211533Y166850D01*
X211929Y167246D01*
X217533Y161642D01*
X215806Y163369D02*
X215014Y163369D01*
X213683Y165492D02*
X212891Y165492D01*
X220673Y164782D02*
X221069Y165178D01*
X220673Y164782D02*
X215069Y170386D01*
X215465Y170782D01*
X221069Y165178D01*
X219342Y166905D02*
X218550Y166905D01*
X217219Y169028D02*
X216427Y169028D01*
X224209Y168317D02*
X224605Y168713D01*
X224209Y168317D02*
X218605Y173921D01*
X219001Y174317D01*
X224605Y168713D01*
X222878Y170440D02*
X222086Y170440D01*
X220755Y172563D02*
X219963Y172563D01*
X224605Y185617D02*
X224209Y186013D01*
X224605Y185617D02*
X219001Y180013D01*
X218605Y180409D01*
X224209Y186013D01*
X221124Y182136D02*
X220332Y182136D01*
X222455Y184259D02*
X223247Y184259D01*
X221069Y189152D02*
X220673Y189548D01*
X221069Y189152D02*
X215465Y183548D01*
X215069Y183944D01*
X220673Y189548D01*
X217588Y185671D02*
X216796Y185671D01*
X218919Y187794D02*
X219711Y187794D01*
X217533Y192688D02*
X217137Y193084D01*
X217533Y192688D02*
X211929Y187084D01*
X211533Y187480D01*
X217137Y193084D01*
X214052Y189207D02*
X213260Y189207D01*
X215383Y191330D02*
X216175Y191330D01*
X213998Y196223D02*
X213602Y196619D01*
X213998Y196223D02*
X208394Y190619D01*
X207998Y191015D01*
X213602Y196619D01*
X210517Y192742D02*
X209725Y192742D01*
X211848Y194865D02*
X212640Y194865D01*
X210462Y199759D02*
X210066Y200155D01*
X210462Y199759D02*
X204858Y194155D01*
X204462Y194551D01*
X210066Y200155D01*
X206981Y196278D02*
X206189Y196278D01*
X208312Y198401D02*
X209104Y198401D01*
X206927Y203294D02*
X206531Y203690D01*
X206927Y203294D02*
X201323Y197690D01*
X200927Y198086D01*
X206531Y203690D01*
X203446Y199813D02*
X202654Y199813D01*
X204777Y201936D02*
X205569Y201936D01*
X203391Y206830D02*
X202995Y207226D01*
X203391Y206830D02*
X197787Y201226D01*
X197391Y201622D01*
X202995Y207226D01*
X199910Y203349D02*
X199118Y203349D01*
X201241Y205472D02*
X202033Y205472D01*
X199856Y210366D02*
X199460Y210762D01*
X199856Y210366D02*
X194252Y204762D01*
X193856Y205158D01*
X199460Y210762D01*
X196375Y206885D02*
X195583Y206885D01*
X197706Y209008D02*
X198498Y209008D01*
D20*
X149875Y374650D03*
D21*
X126375Y374650D03*
D11*
X269875Y299610D03*
X269875Y322690D03*
X269875Y207535D03*
X269875Y230615D03*
X269875Y275065D03*
X269875Y251985D03*
X174625Y242460D03*
X174625Y265540D03*
X139700Y208390D03*
X139700Y185310D03*
D22*
X272288Y475361D03*
X272288Y498475D03*
X272288Y521589D03*
D23*
X210310Y498475D03*
D24*
X276225Y428575D03*
X276225Y390575D03*
D11*
X269875Y344060D03*
X269875Y367140D03*
M02*
