M48
;GenerationSoftware,Autodesk,EAGLE,9.3.1*%
;CreationDate,2019-07-28T19:57:30Z*%
FMAT,2
ICI,OFF
METRIC,TZ,000.000
T5C0.350
T4C0.950
T3C1.000
T2C1.016
T1C3.302
%
G90
M71
T1
X3175Y55245
X3175Y3175
X26035Y3175
X26035Y55245
T2
X8255Y48895
X8255Y43815
X8255Y41275
X8255Y23495
X8255Y20955
X8255Y18415
X8255Y15875
X8255Y28575
X8255Y31115
X8255Y33655
X8255Y36195
X16828Y47942
X14287Y47942
X16828Y50482
X14287Y50482
X16828Y53022
X14287Y53022
X8255Y51435
X8255Y10795
X8255Y8255
X8255Y5715
T3
X4763Y29527
X4763Y49847
X25082Y37148
X25082Y42228
T4
X16215Y6384
X20615Y6384
T5
X24447Y27622
X20740Y13822
X23177Y23177
X17780Y22860
X19685Y45720
X20320Y22225
X23177Y22225
X22860Y27940
X23177Y20638
X22542Y45720
X23688Y31115
X19050Y27216
X11747Y16192
X18098Y27940
X21882Y41097
X18098Y30480
X18733Y46990
X20012Y26352
X13335Y35560
X17463Y6667
X18126Y7403
X20003Y29527
X22225Y30162
X14287Y29527
X16192Y7620
X16231Y29337
X12382Y16828
X20955Y54610
X14605Y40005
X27940Y45720
X28257Y46355
X27305Y46355
X22860Y29210
X13652Y10478
X14922Y23177
X25375Y34747
X25375Y27445
X10579Y44513
X10897Y6731
X25184Y10541
X13970Y7302
X18974Y24066
X15557Y44767
X10058Y26860
X10058Y32893
X10058Y30035
X21273Y33020
X12167Y47371
X25502Y17844
X18590Y5952
X18523Y16372
X11112Y15240
X17440Y17723
X15257Y17605
X21095Y4280
X28448Y34735
X15557Y30797
X18174Y40894
X18740Y13722
M30